<svg id="Layer_1" data-name="Layer 1" xmlns="http://www.w3.org/2000/svg" viewBox="0 0 1200.77 764.57"><defs><style>.cls-1{fill:#f29857;}.cls-2{fill:#49dd98;}.cls-3{fill:#ffe9de;}.cls-4{fill:#f0c9b6;}.cls-5{fill:#3e107a;}.cls-6{fill:#72994b;}.cls-7{fill:#8f36dd;}.cls-8{fill:#daf2e5;}.cls-9{fill:#c77438;}.cls-10{fill:#334b66;}.cls-11{fill:#49d3cd;}.cls-12{fill:#7f93d3;}</style></defs><path class="cls-1" d="M152.32,546.44c-1.4-.94-2.83-1.84-4.26-2.74l-2.28,24.2c1.8,4.47,2.06,10.09-1.85,13.55-2.07,1.83-4.87,2.19-7.52,2.38-3.35.23-6.72.27-10.08.26-6.9,0-13.82-.31-20.72.17a65.86,65.86,0,0,0-19,4.08c-11.72,4.47-22,12-31.76,19.68-8.28,6.52-18.63,17-30.28,13.76a25.65,25.65,0,0,1-5.12-2.17l-.7-.39c-1.13-.63-2.24-1.3-3.34-2-3-1.78-6-3.53-9-5.33-2-1.23-4.19-2.6-5.46-4.69a8,8,0,0,1-.39-7.11,28.57,28.57,0,0,1,4.85-7.71,61.91,61.91,0,0,1,6.3-6.65,122.12,122.12,0,0,1,14.57-11.15c11.5-7.77,23-15.48,34-24,5.46-4.21,10.75-8.61,16.09-13,4.79-3.9,9.78-7.68,15.44-10.25,7.6-3.44,17.25-4.26,24.54-.07,2,.74,3.93,1.58,5.82,2.36a174.13,174.13,0,0,1,25.31,12.9,2.83,2.83,0,0,0,0-.29c0-.41.69-.44.65,0,0,.23,0,.46-.07.68,1.52.94,3,1.9,4.51,2.88C153,546.1,152.67,546.67,152.32,546.44Z"/><path class="cls-2" d="M1167.48,703.24c-.34-.28,10.87-111.15,10.87-111.15s-140.77-30.56-174.29-62c-42.57-39.89-63.93-22.69-104.88-64-16.11-16.26-34-38.89-61.37-36.82-7.66.58-15.17,2.67-22.62,4.58l-24.41,6.25-47.37,12.13c-64.35,16.48-135.85,33.19-200.2,49.67-6.55,1.68-13.6,2.93-19.71,5.93-5.67,2.78-9.24,7.36-12.46,12.36-7.42,11.51-15.1,22.83-23.55,33.75q-11.4,14.74-24.17,28.56l-28.91-19.68c-.32-.23-.79.23-.46.45L462.89,583a435.89,435.89,0,0,1-33.58,32.56q-7.83,6.83-16,13.29c-.33.27.14.67.46.41a441.28,441.28,0,0,0,49.57-45.94l90.2,61.41,59.81,40.71c9.3,6.34,18.37,13.23,28.16,18.92,9.31,5.42,19.45,6.23,30.48,6.1,50.84-.55,312.36-4.28,312.36-4.28l152.67-2C1141.17,704.09,1167.69,703.4,1167.48,703.24Z"/><path class="cls-3" d="M1165,593.16c-.57,6.74-2.49,26.21-3.31,35.24-2.76,30.4-4.27,28.46-6.3,55.91-.13,1.77-.26,3.57-.39,5.38h-.33a.32.32,0,0,1-.24.13h-.17c-9.71.12-426.44,5.79-476.81,6.33a82.37,82.37,0,0,1-17.76-1.33A41.5,41.5,0,0,1,647,690.06c-9.8-5.69-18.86-12.58-28.16-18.92C598.9,657.58,444.89,553,417.06,534.06c.17-4.45,45.89-100.59,45.89-100.59,1.22-1.31,6.68-3.74,15.32-7C530.1,407,696.65,358,751.81,343.91l47.37-12.14,24.4-6.25c7.46-1.9,15-4,22.63-4.57,27.32-2.07,45.26,20.56,61.37,36.81,40.95,41.33,82.23,82.4,124.81,122.27s86.91,74.37,132.78,110.78A22.2,22.2,0,0,1,1165,593.16Z"/><path class="cls-4" d="M686.21,544.74s-12.24,69.4-26.5,150.09A41.5,41.5,0,0,1,647,690.06c-9.8-5.69-18.86-12.58-28.16-18.92C598.9,657.58,444.89,553,417.06,534.06c.17-4.45,45.89-100.59,45.89-100.59,1.22-1.31,6.68-3.74,15.32-7,40,26.36,117.3,76.61,124.73,82,32.53,23.73,58.67,42.2,62.76,43.59C666.11,552.23,686.21,544.74,686.21,544.74Z"/><path class="cls-2" d="M1178.47,592c-46-36.47-89.82-75.12-132.36-115S962.25,396,921.3,354.71c-16.11-16.25-34-38.88-61.37-36.81-7.66.58-15.17,2.67-22.62,4.57l-24.41,6.25-47.36,12.13L572.47,390.29c-6.55,1.68-13.6,2.93-19.71,5.94-5.66,2.78-9.24,7.35-12.46,12.35C532.88,420.1,497.4,381,489,391.87c-6.71,8.69-19.31,42.42-34.51,44.73-.39,1.66-.85,3.31-1.37,5,31.73,21.81,100.69,71.74,129.75,91.52l59.8,40.72c9.3,6.33,18.37,13.23,28.16,18.92,9.31,5.41,19.46,6.22,30.49,6.1,50.84-.56,101.69-1.35,152.54-2l152.67-2,152.68-2,19.08-.25C1178.52,592.48,1178.68,592.12,1178.47,592Z"/><path class="cls-5" d="M1122.76,477.16s-125-27.14-154.83-55c-37.81-35.43-56.78-20.16-93.17-56.87-14.3-14.44-30.23-34.54-54.51-32.71-6.8.52-13.48,2.37-20.1,4.07l-21.68,5.55L736.4,352.94c-57.17,14.64-120.68,29.49-177.85,44.13-5.82,1.49-12.08,2.6-17.51,5.27-5,2.47-8.21,6.54-11.07,11-6.59,10.23-13,.32-20.48,10-6.12,7.92-16.32-45.37-23.1-37.92-.22,1.33-25.44,44.88-25.66,46.2C487,449.48,541.94,486.09,568.18,504l53.12,36.16c8.26,5.63,16.32,11.76,25,16.81,8.27,4.81,17.28,5.53,27.08,5.42,45.16-.49,277.47-3.81,277.47-3.81l135.62-1.81c3.68-.05,27.24-.66,27-.8S1122.76,477.16,1122.76,477.16Z"/><path class="cls-3" d="M1102.47,543.9h-.29a.28.28,0,0,1-.22.11h-.33c-12.68.17-378.88,5.14-423.37,5.63-8.36.09-16.14-.42-23.38-3.55a36.67,36.67,0,0,1-3.7-1.87c-8.7-5.05-16.75-11.18-25-16.81-15-10.24-93-63-131.32-89-6.8-4.61-12.34-8.37-16.06-10.91.14-4,2.4-67.7,2.33-67.63,0-.34,20.1,12.6,20.1,12.26l.17.12a9.72,9.72,0,0,1,1.43-1.18c9.05-6.57,53.52-30.58,103.1-55.11,52-25.73,109.7-52,137.94-59.24l42.07-10.77,21.68-5.55c6.62-1.7,13.3-3.56,20.1-4.08,24.27-1.83,40.21,18.28,54.51,32.72,36.39,36.71,73,73.18,110.88,108.61,37.21,34.86,76.15,65.23,116.3,97.1l1.65,1.31C1111.2,476,1102.59,542.28,1102.47,543.9Z"/><path class="cls-4" d="M992.46,501.41q-42.66.91-85.32,1.76-65.92,1.32-131.87,2.5-45.66.82-91.32,1.59l-35,.57c-.06.22-.12.44-.19.65l7.24-.12q59.63-1,119.27-2,52-.93,103.92-1.95,56.83-1.11,113.68-2.31,51.72-1.08,103.45-2.25c0-.22,0-.44.08-.66Q1044.43,500.32,992.46,501.41Z"/><path class="cls-4" d="M1023.91,525.56q-54.23,1.17-108.47,2.25-68.19,1.35-136.4,2.57-43.39.79-86.79,1.51-26,.43-52.07.84c0,.22-.09.43-.14.65l24.23-.38q57.33-.94,114.68-2,54.25-1,108.51-2,68.41-1.32,136.82-2.8,37.31-.8,74.61-1.63c0-.22,0-.44.08-.66Q1061.44,524.77,1023.91,525.56Z"/><path class="cls-6" d="M1122.87,477c-40.82-32.39-79.79-66.73-117.58-102.13S930.79,303,894.42,266.3c-14.31-14.44-30.25-34.55-54.52-32.71-6.8.51-13.48,2.37-20.1,4.07l-21.67,5.55L756.05,254,584.54,297.9c-5.82,1.49-12.07,2.6-17.51,5.27-5,2.47-8.2,6.54-11.06,11-6.59,10.23-13.42,20.28-20.92,30q-10.14,13.11-21.47,25.37L487.9,352c-.29-.2-.71.2-.42.4l25.71,17.5a391.88,391.88,0,0,1-29.82,28.93q-7,6.06-14.21,11.8c-.29.23.12.59.41.36a391.28,391.28,0,0,0,44-40.81l80.13,54.55,53.13,36.17c8.26,5.63,16.32,11.75,25,16.81,8.27,4.8,17.29,5.52,27.08,5.42,45.17-.5,90.34-1.2,135.51-1.8l135.63-1.81,135.62-1.8,17-.23A.28.28,0,0,0,1122.87,477Z"/><path class="cls-5" d="M1112.35,476l-1.65-1.31a2.82,2.82,0,0,0,.61,1.14c-9,2.33-14.34,11.22-15.94,20-2,11.06-.5,23.14,2.41,33.91a92.73,92.73,0,0,0,5.15,14.27h.33a.31.31,0,0,0,.22-.11h.29C1103.89,542.28,1112.5,476,1112.35,476Z"/><path class="cls-4" d="M689.13,352.17s-17,96.3-34.25,193.93a36.67,36.67,0,0,1-3.7-1.87c-8.7-5.05-16.75-11.18-25-16.81-15-10.24-114-76.88-152.34-102.86,2.67-22.61,5.42-45.92,8-67.34,1.82-15.47,3.53-30,5-42.49,3.1-26.27,5.18-43.92,5.18-43.92h.13c1.81.13,42.79,15.34,76.56,17.72h0l7,5.15c10.38,7.67,20.61,15.19,30.27,22.24,32.53,23.74,58.67,42.21,62.76,43.6C669,359.66,689.13,352.17,689.13,352.17Z"/><path class="cls-7" d="M1189.33,476c-.34-.27,10.87-111.15,10.87-111.15s-140.77-30.55-174.29-62C983.34,263,962,280.21,921,238.88c-16.11-16.25-34-38.88-61.37-36.82-7.66.59-15.17,2.68-22.62,4.58l-24.41,6.25L765.26,225c-64.35,16.48-135.85,33.2-200.2,49.67-6.55,1.68-13.6,2.93-19.71,5.94-5.67,2.77-9.24,7.36-12.46,12.35-7.42,11.51-15.1,22.83-23.55,33.75q-11.4,14.76-24.16,28.57l-28.92-19.68c-.32-.23-.79.22-.46.44l28.94,19.71a439.66,439.66,0,0,1-33.58,32.56q-7.83,6.82-16,13.29c-.33.26.14.66.46.4a440.35,440.35,0,0,0,49.57-45.94l90.2,61.41,59.81,40.72c9.3,6.33,18.37,13.23,28.16,18.92,9.31,5.41,19.45,6.22,30.48,6.1,50.84-.55,312.36-4.29,312.36-4.29l152.67-2C1163,476.85,1189.54,476.16,1189.33,476Z"/><path class="cls-3" d="M1186.9,365.53c-.53,6.34-2.51,26.42-3.35,35.63-2.75,30.4-4.26,28.47-6.29,55.91-.08,1.14-.16,2.29-.25,3.45,0,.64-.09,1.28-.14,1.93h-.33a.31.31,0,0,1-.24.12c-2,0-426.13,5.8-477,6.35a107.51,107.51,0,0,1-11.88-.43,45.34,45.34,0,0,1-18.61-5.68c-9.79-5.68-18.86-12.58-28.16-18.92L528.39,367.46l-31-21.1c.16-4.46,2.47-59.49,3.34-98.86l-.24.25c0-.39,0-.78,0-1.16l.19.13c2.38-2.58,19.79-12.63,45-26.12,19.15-10.22,42.8-22.43,67.83-34.86C673.38,156,741,125,773.67,116.67L821,104.54l24.4-6.25c7.46-1.91,15-4,22.63-4.58,27.33-2.07,45.26,20.57,61.37,36.82,41,41.33,82.23,82.39,124.81,122.27s86.91,74.36,132.78,110.77A18.44,18.44,0,0,1,1186.9,365.53Z"/><path class="cls-4" d="M727.06,244.21S706.35,361.56,687.45,468.5a45.34,45.34,0,0,1-18.61-5.68c-9.79-5.68-18.86-12.58-28.16-18.92L528.39,367.46c5.69-47.95,12.69-107.22,17.37-146.86,3.1-26.27,5.18-43.92,5.18-43.92h.13l55.54,3.89h0l7,5.16c45.31,33.5,87.72,64,93,65.84C707,251.7,727.06,244.21,727.06,244.21Z"/><path class="cls-7" d="M1200.66,364.7q-16.41-12.56-32.51-25.45C1131.81,310.2,1096.54,280,1062,249l-.63-.56c-44.54-40-87.86-81.08-130.87-122.47-17-16.36-36.17-39.14-63.38-37.06-7.63.58-15,2.69-22.37,4.61L820.7,99.81,774,112,583.64,161.77c-6.46,1.69-13.44,2.95-19.39,6-5.51,2.79-8.83,7.4-11.78,12.43-6.79,11.59-13.86,23-21.7,34q-10.6,14.84-22.61,28.74l-30-19.81c-.34-.22-.78.23-.44.46l30,19.82A406,406,0,0,1,476,276.12q-7.47,6.87-15.27,13.37c-.32.27.16.67.48.41a409.6,409.6,0,0,0,47.06-46.23l93.56,61.8,62,41c9.64,6.37,19.09,13.31,29.19,19,9.61,5.44,19.8,6.26,30.82,6.14,50.81-.56,101.62-1.36,152.43-2l152.57-2.05,152.55-2,19.08-.26A.3.3,0,0,0,1200.66,364.7Z"/><path class="cls-1" d="M869.33,79a35.56,35.56,0,0,0-7.11-17.57c-8.94-12-76.34-20.88-98.39-22.61-36-2.82-63.05-8.46-99.11-8.25-3.33,0-6.65,0-10,.06-.34-1.1-.67-2.19-1-3.3-.11-.4-.75-.28-.63.12.3,1.07.62,2.13,1,3.19h-2.89c-.41,0-.47.65,0,.65l3.14,0a164.48,164.48,0,0,0,44.36,70.83c2.6,2.42,5.42,4.82,8.88,5.91,3.78,1.19,7.82.68,11.66.11,9-1.33,17.92-2.73,26.88-4.09l54.14-8.26,54.14-8.25,6.4-1a32,32,0,0,0,6-1.08C869.69,84.41,869.59,81.68,869.33,79Z"/><path class="cls-7" d="M988.94,226.66c-2.63-4.89-7.33-8.65-12.05-11.38a74,74,0,0,0-16-6.46c-6.53-2-13.14-3.66-19.72-5.46L854.78,179.7c-12.84-3.51-25.91-7-39.3-7.36a56.74,56.74,0,0,0-36.73,11.12c-12,8.21-23.39,17.3-35,26l-36.32,27.11-36,26.9c-11.26,8.4-22.76,16.58-33.6,25.54l-.55.47a76,76,0,0,1-9-1.47,61.18,61.18,0,0,1-16.62-6.41.33.33,0,0,0-.33.56A64.67,64.67,0,0,0,636.59,290a154.07,154.07,0,0,0-13.44,12.61c-.28.3.18.76.46.46a154.6,154.6,0,0,1,13.88-13c15,1.44,30.72-1.35,45.09-5.34,26.64-7.4,52.86-19.06,81.12-16.68,26.16,2.2,51.35,14.12,77.91,11.8,13.2-1.15,24.65-6.94,36.43-12.53,12.93-6.13,26.46-10.13,40.81-10.85a114.14,114.14,0,0,1,21.3,1.17c6.84.94,13.76,2.05,20.67,1.35a35,35,0,0,0,26.34-16.73C990.08,237.4,991.8,232,988.94,226.66Z"/><path class="cls-1" d="M817.57,127.23a26.41,26.41,0,0,0-6.26-9.34c-3.32-3.13-7.44-5.18-11.22-7.67-4.09-2.69-7.45-6-9.14-10.69A22.28,22.28,0,0,1,790.21,87a20.77,20.77,0,0,1,1.07-3.35c1.09.63,2.2,1.27,3.29,1.92.36.2.7-.35.34-.56l-3.37-2a19.66,19.66,0,0,1,5-6.81c.32-.28-.14-.74-.45-.47a20.24,20.24,0,0,0-5.09,7,1042.7,1042.7,0,0,0-102.84-52.4q-6.74-3-13.52-5.92c-10.41-4.49-20.91-8.84-31.54-12.76q-5.61-2.07-11.27-4C614.58,1.92,596.29-1.82,578.11.91a68.15,68.15,0,0,0-23.67,8,64,64,0,0,0-18.59,16.67c-5.58,7.21-10.11,15.15-14.75,23q-8.1,13.65-16.19,27.3Q497,89.17,489.06,102.53q-24.69,41.63-49.37,83.24l-26.55,44.76c-12.9,21.74-28.55,42.76-41.44,64.5l-5.44,14.54a.33.33,0,0,0,.11.44,464.17,464.17,0,0,1,54.26,37.36c8.38,6.7,16.18,14.1,24.57,20.77,7.26,5.77,15.67,10.09,25.16,7.94,5.08-1.15,9.75-3.61,14.38-5.93q7.69-3.84,15.37-7.75c10.23-5.18,22.09,4.64,22.09,4.64s66.49-50.79,113.22-83.35c19.63-13.68,27.74-6.82,44.33-18,13.14-8.83,24.28-16.11,31.77-20.61,8.14-4.89,16.3-9.76,24.43-14.69q7.2-4.35,14.32-8.77h0q8.64-5.37,17.15-10.92c1.18-.77,2.36-1.55,3.53-2.34,13.86-9.28,27.3-19.83,37-33.56,6.16-8.76,11.18-19.7,12.06-30.71A37,37,0,0,0,817.57,127.23Z"/><path class="cls-8" d="M549.7,665.91c-3-13.93-7.28-27.64-11.61-41.2q-6.32-19.79-13.72-39.2-5.34-14-11.21-27.7-10.25-24-22.11-47.15-6.68-13-13.84-25.77-7.63-13.62-15.85-26.9-5.92-9.62-12.16-19.05-1.24-1.86-2.48-3.74-4.34-6.45-8.8-12.84c1.85-2.22,3.66-4.49,5.4-6.8,2.24-3,4.8-6,5.75-9.65.64-2.51.44-5.33-2.13-6.59-.38-.18-.69.39-.31.58,3.44,1.67,2,6.26.62,8.88-1.87,3.59-4.73,6.84-7.23,10q-1.29,1.61-2.61,3.18a.32.32,0,0,0-.27.33q-4.93,5.9-10.36,11.35c-1.17,1.18-2.35,2.33-3.56,3.47l-.37.35c-2.87,2.72-5.86,5.3-8.91,7.83-8,6.6-16.29,12.78-24,19.73a109.93,109.93,0,0,0-8.16,8.14,63.19,63.19,0,0,0-10.88,16.22,46.56,46.56,0,0,0-2.71,7.76c-2.09,8.36-1.69,17.15-1.74,25.7v2.06l-.14,25.69-.12,23.63a38.22,38.22,0,0,0-5.55.17,72.35,72.35,0,0,0-12.91,2.81L344,578.36c-1.81.58-3.65,1.18-5.51,1.76-.83.26-1.66.52-2.5.76-2.21.66-4.46,1.28-6.71,1.78-6.86,1.52-13.83,2-20.7-.46-6.22-2.21-11.61-6.14-16.82-10.09-4.71-3.58-9.41-7.14-14.4-10.32-9.83-6.27-20.77-11.38-32.5-12.48-8.14-.76-15.94.91-23.76,2.65a145,145,0,0,1-14.88,2.81,48.61,48.61,0,0,1-6.37.31,37.88,37.88,0,0,1-12.06-2.15c-5.28-1.9-26.85-20.18-32.16-21.55a10.92,10.92,0,0,0-12.25,4.44c-3.61,5-6.23,10.94-8.74,16.52q-2.3,5.13-4.24,10.42l-.21.58c-1.35,3.7-4,14.59-6.57,26.31-.55,2.47-1.11,5-1.65,7.48-2.67,12.22-5.07,23.9-5.83,27.93-.6,3.18-1.09,6.38-1.5,9.58a.32.32,0,0,0,.23.39c10.75,3.75,55.7,20.59,107.18,40.16,14.38,5.46,29.27,11.14,44.07,16.8,37.69,14.42,74.78,28.76,101.3,39.26,3.82,1.5,7.41,2.94,10.75,4.27,13.11,5.26,22.42,9.13,26.17,11,4.51,2.2,9.11,4.27,13.77,6.16,5.31,2.15,10.69,4.08,16.16,5.73a135.65,135.65,0,0,0,42,6.18,98,98,0,0,0,12-.95c2.25-.33,4.48-.73,6.69-1.23a71.79,71.79,0,0,0,17.73-6.49,76.08,76.08,0,0,0,24.68-21.11,77.26,77.26,0,0,0,5.07-7.56,73.49,73.49,0,0,0,6.78-15.05c.66-2.06,1.23-4.16,1.7-6.28a69.83,69.83,0,0,0,1.37-9.16C553.14,686.42,551.86,676,549.7,665.91Z"/><path class="cls-4" d="M1161,396.71c0,.22,0,.43-.07.65q-51.74,1.17-103.46,2.26-56.84,1.2-113.68,2.31-52,1-103.92,1.94-59.64,1.08-119.27,2.05l-40.72.65c.06-.22.11-.43.16-.63.36,0,11.86-.19,29.15-.48l1.69,0,37.7-.62q45.66-.75,91.32-1.59,66-1.19,131.87-2.49,42.66-.86,85.32-1.76Q1109,397.89,1161,396.71Z"/><path class="cls-4" d="M1163.37,431.63c0,.21,0,.43-.08.65q-37.29.84-74.6,1.64-68.42,1.47-136.82,2.8-54.27,1-108.51,2-57.35,1-114.69,2l-52.7.84.18-.65q40.25-.61,80.51-1.29,43.38-.74,86.79-1.52,68.2-1.21,136.4-2.57,54.23-1.08,108.47-2.25Q1125.85,432.48,1163.37,431.63Z"/><path class="cls-4" d="M1139.6,624.29c0,.22-.06.43-.08.66q-51.74,1.15-103.46,2.25-56.84,1.2-113.67,2.31-52,1-103.93,1.94-59.64,1.08-119.27,2l-40.71.65c0-.22.11-.43.15-.63.37,0,11.86-.18,29.15-.48l1.69,0,37.71-.61q45.65-.76,91.32-1.6,65.94-1.18,131.87-2.49,42.66-.85,85.31-1.76Q1087.64,625.47,1139.6,624.29Z"/><path class="cls-4" d="M1142,659.21c0,.21,0,.43-.08.65q-37.31.84-74.61,1.64-68.41,1.47-136.82,2.8-54.26,1.05-108.51,2-57.35,1-114.68,2-26.35.44-52.71.84c.06-.22.13-.44.18-.65q40.25-.62,80.51-1.29,43.4-.74,86.79-1.51,68.21-1.23,136.4-2.58,54.24-1.08,108.47-2.24Z"/><path class="cls-9" d="M820,144.12c-.88,11-5.9,21.95-12.06,30.71-9.66,13.73-23.1,24.28-37,33.56-5.39-7.18-7.87-16.36-9.45-25-2-11.15-2.77-22.61-6.89-33.28-2.1-5.44-4.81-10.64-6.68-16.18A59.09,59.09,0,0,1,745,118.93a60.47,60.47,0,0,1,5.64-29.7,16.85,16.85,0,0,0,1.25,1.15,13.06,13.06,0,0,0,2.68,4.3c7.27,7.8,19.41,6.69,28.82,9.87a55.11,55.11,0,0,1,22.82,14.88C812.75,126.54,816.6,135.23,820,144.12Z"/><path class="cls-8" d="M485.79,330.41l-9.17-5.83c-13.06-8.28-27-17-39.81-25L426,292.82l-6.38-4-.54-.34c-9.14-5.69-17-10.55-22.55-14-5.08-3.15-8.26-5.13-8.76-5.45-.06,0-2.67,2.4-7,6.51l-8.08,7.61-.49.46c-18.77,17.77-50.59,48.43-72.57,71.68-3.8,4-7.31,7.83-10.4,11.31a154,154,0,0,0-11,13.46c-8.32,12-16,24.84-20.25,38.95a99.68,99.68,0,0,0-3.27,39.7c3.05,27.55,15.72,53.15,32.81,74.67,11.88,14.94,25.68,28.13,40.19,40.5,2.75,2.35,5.53,4.67,8.31,7l3.55,2.9q5.18,4.22,10.4,8.35l7.84,6.21.4.31c.2.16.58.06.55-.24l0-.26c-.32-3.13-.63-6.26-.95-9.39,3,.87,6,1.36,6.87,1.57l2,.5,11,2.69c4,1,8,2.21,12.12,2.6,7.36.7,12.8-2.94,17-8.69,1.81-2.47,3.49-5.06,5.1-7.68,1.72-2.8,3.36-5.66,5-8.5l.33-.55c.8-1.38,1.6-2.75,2.43-4.1q.63-1.05,1.29-2.22c5.94-10.57,13.08-28,20.07-46.88,1.25-3.39,2.5-6.83,3.74-10.29,6.16-17.24,12-34.91,16.62-49.22,1.25-3.88,2.4-7.52,3.45-10.83,2-6.24,3.54-11.32,4.58-14.74,1-3.09,1.47-4.82,1.47-4.82l4.87-5.45c7.66-8.6,23-25.79,35.37-39.85l.43-.48c9.86-11.18,17.79-20.27,18.4-21.28S510.8,346.37,485.79,330.41Z"/><path class="cls-1" d="M1014.15,425c-5-15.9-12.32-31.45-22.36-44.8A105.59,105.59,0,0,0,975.6,363a63.35,63.35,0,0,0-16.17-11.84c-5.52-2.88-11.23-5.39-16.87-8-5.84-2.72-11.68-5.47-17.54-8.18-5.12-2.36-11.21-4.62-16.4-1.16-2.43,1.62-4.22,4-6,6.3l-6,7.79,0,0c-.25-.23-.62.16-.36.39l.05.06-.47.61c-.26.34.43.84.5,0l.42-.17a38.48,38.48,0,0,1,9.35,13.91,41.21,41.21,0,0,1,2.49,17.19,89.64,89.64,0,0,0-.23,10,56.12,56.12,0,0,0,1.45,9.38c.53,2.25,1.14,4.48,1.79,6.7.84,5.25,3.06,10.27,4.83,15.24,2,5.56,3.94,11.13,5.79,16.74a281.5,281.5,0,0,1,9.32,34.35c.53,2.73.9,5.49,1.5,8.2.51,2.3,1.27,4.83,2.91,6.59,1.12,1.2,2.78,1.8,4.23.79,1.71-1.19,2.2-3.66,2.4-5.57a33.94,33.94,0,0,0-.4-8.05q-.57-4.35-1.3-8.7c-1-5.8-2.14-11.58-3.55-17.29-.58-2.37-2-7.35-2.79-10.05a1.85,1.85,0,0,1,1.27-2.3l1.58-.46a1.85,1.85,0,0,1,2.21,1c1.86,4.11,7.07,15.73,9.23,21.73a100.4,100.4,0,0,1,6,26.08,83.64,83.64,0,0,1-.06,11.74c-.13,2.31-.15,5.44,1.9,7s5,.46,6.41-1.5c1.93-2.63,2-6.48,2.2-9.59,1.26-16.53-2.22-33-7.3-48.68q-1.74-5.37-3.7-10.64a1.85,1.85,0,0,1,1.22-2.42l.09,0a1.83,1.83,0,0,1,2.18.95c1.27,2.54,3.89,7.92,5.19,10.82,6.73,15,13.25,30.76,14.34,47.4a85.2,85.2,0,0,1-.22,11.74c-.17,2.31-.23,5.44,1.81,7s5,.52,6.43-1.41c2-2.61,2-6.46,2.32-9.57,1.48-16.51-1.77-33.06-6.64-48.78-2.23-7.21-4.81-14.29-7.47-21.35a1.86,1.86,0,0,1,1.22-2.44h0a1.87,1.87,0,0,1,2.19,1c1.46,2.95,2.72,6,4,9,6.58,15.11,13,30.89,13.87,47.54a83.69,83.69,0,0,1-.32,11.74c-.19,2.31-.29,5.44,1.73,7s5,.57,6.45-1.35c2-2.59,2.11-6.43,2.42-9.54,1.63-16.49-1.46-33.08-6.17-48.84-3.12-10.42-7-20.6-10.72-30.81.54.43,1.07.86,1.59,1.31a55.94,55.94,0,0,1,14,17.89,47.47,47.47,0,0,1,2.16,5.35c.55,1.68.89,3.41,1.43,5.08.66,2.08,2,5.05,4.67,4.74,3-.35,3.72-4.36,3.94-6.76C1016.45,433.44,1015.44,429.1,1014.15,425Z"/><path class="cls-7" d="M1062,249l-.63-.56-.74.06c-9.16.86-18.4,1.75-27.43,3.48a71,71,0,0,0-13.65,3.9c-3.74,1.53-7.31,3.41-11,5.09A39.24,39.24,0,0,1,996,264.84c-4.41.41-8.68-.74-13-1.34l-.28,0a108.39,108.39,0,0,0,9.65-12.63c.23-.35-.33-.68-.56-.34A106.61,106.61,0,0,1,982,263.36a16.32,16.32,0,0,0-9.52,1.29c-.37.19,0,.75.33.56A15.07,15.07,0,0,1,981.4,264c-.6.66-1.22,1.32-1.84,2-.41-.64-.82-1.27-1.26-1.89-.25-.33-.81,0-.57.33.48.67.93,1.34,1.38,2-1.15,1.18-2.3,2.34-3.49,3.46-.31.29.15.74.45.45q1.74-1.64,3.4-3.35c4,6.41,6.83,13.52,9.86,20.46,3.18,7.27,6.87,14.21,12.07,20.26,9.92,11.52,23.58,19.39,37.92,24.08,36.31,11.9,75.09,3.67,112.41,5.79,5,.28,9.88.74,14.79,1.45.55.08,1.09.16,1.63.26C1131.81,310.2,1096.54,280,1062,249Z"/><path class="cls-1" d="M1104.82,317.37a54.56,54.56,0,0,0-4.37-12.52,59.24,59.24,0,0,0-17-20.79,56.76,56.76,0,0,0-12.57-7.35,53.34,53.34,0,0,0-6.52-2.24c-2.2-2.08-4.36-4.19-6.47-6.36s-4.09-4.29-6.05-6.52-3.54-4.59-5.55-6.61-4.26-1.15-6.61-.73c-3.15.58-6.3,1.16-9.45,1.76q-10.86,2.06-21.69,4.29c-.31.06-.18.53.13.47l6.26-1.27c0,.12,0,.25,0,.38a.21.21,0,0,0-.06.17,52.14,52.14,0,0,1,.19,5.31.26.26,0,0,0,0,.42c0,1.58-.1,3.16-.21,4.75l-.42-.84c-.14-.29-.57,0-.42.24l.78,1.56c-.73,10.34-2.31,20.8,2.48,30.39a21.13,21.13,0,0,0,4.93,6.51c1.76,1.53,4.4,3.63,6.77,2.23,2.7-1.58,2.56-5,2.18-7.65a62.07,62.07,0,0,1-.58-12.26,82.76,82.76,0,0,1,2.26-13.26c.23-1,.44-2.07.6-3.12a138.39,138.39,0,0,0,15.6,17.49c3.46,3.28,7,6.49,10.15,10.06a48.4,48.4,0,0,1,7.79,12.1c2,4.32,3.59,8.81,6.08,12.86.92,1.49,2,3.45,3.79,4a2.83,2.83,0,0,0,3.41-1.61,10.44,10.44,0,0,0,.65-5.93,30.33,30.33,0,0,0-1.94-7.17,123.28,123.28,0,0,0-5.8-13,131.2,131.2,0,0,0-11.58-18.47c4.45-.09,8.77,2.59,12.25,5.2a61.59,61.59,0,0,1,12,11.93,111.07,111.07,0,0,1,8.43,14,80.26,80.26,0,0,0,4.49,7.44c.94,1.36,2.19,3.21,4.09,3C1106.6,325.79,1105.32,319.69,1104.82,317.37Z"/><path class="cls-5" d="M1153.06,388.75c-8.36,17.35.6,36.29,10.51,51.45,4.44,6.79,9.25,13.4,13.44,20.32.09-1.16.17-2.31.25-3.45,2-27.44,3.54-25.51,6.29-55.91.84-9.21,2.82-29.29,3.35-35.63C1172.19,367.44,1159,376.54,1153.06,388.75Z"/><path class="cls-5" d="M1148.44,596.93a33.29,33.29,0,0,0-14.54,17.91c-6.43,17.83.07,36.68,8.32,52.71,3.86,7.51,8.17,14.79,12.06,22.28h.17a.32.32,0,0,0,.24-.13h.33c.13-1.81.26-3.61.39-5.38,2-27.45,3.54-25.51,6.3-55.91.82-9,2.74-28.5,3.31-35.24A28.12,28.12,0,0,0,1148.44,596.93Z"/><path class="cls-8" d="M610.92,634.09c-1.31-14.52-7-28.23-13.63-41.06-7-13.43-14.79-26.46-22.76-39.31s-16.21-25.29-24.85-37.58c-3.92-5.57-9.56-13.14-16.17-21.77-10.08-13.17-22.42-28.81-34.34-43.61-8.32-10.32-16.44-20.23-23.44-28.61-2.86-3.41-5.53-6.56-8-9.39-2.08-2.43-4-4.62-5.67-6.52-1.05-1.18-2.6,1.61-4.48,5.95-3,7-6.91,18.15-10.9,23-1.44,1.75-2.89,2.69-4.32,2.35-5.22-1.25-10.41-2.59-15.62-3.91-1.59-.4-3.17-.81-4.77-1.2l-3.26-.81a71,71,0,0,0-9-1.66,41.7,41.7,0,0,0-12.15.31,53.85,53.85,0,0,0-18.94,7.66,69.4,69.4,0,0,0-8,5.86,89.43,89.43,0,0,0-13.22,14.13c-2.28,3-4.4,6.11-6.37,9.3a187,187,0,0,0-18,39.57,219.25,219.25,0,0,0-7.21,27.84q-1.57,8.28-2.49,16.65a2.49,2.49,0,0,1-.42,1.28c-2.3,3.14-12.64-11.12-12.29-4.54.11,2.08,6.16,7.14,14.32,13.17,3.14,2.31,6.59,4.78,10.14,7.27,4.18,2.93,8.48,5.9,12.57,8.73,8.12,5.62,15.35,10.65,18.91,13.63a11.88,11.88,0,0,1,2.16,2.12c1.53,2.31-3.81,3.9-10.12,5.2l-.92.19c-8.58,1.7-18.4,2.92-15.2,4.68,6.88,3.79,13.79,7.52,20.65,11.34q21.46,12,42.55,24.58c6.23,3.72,12.43,7.52,18.61,11.32l9.08,5.57q6.59,4,13.2,8c9.95,5.91,20.17,11.6,30.71,16.55q3.76,1.77,7.57,3.4c14.88,6.36,30.38,11.07,46.62,12.72,3.05.31,6.19.52,9.37.58,2.43.05,4.88,0,7.34-.08,1.34-.06,2.67-.15,4-.26a82.9,82.9,0,0,0,28.4-7.1,61.23,61.23,0,0,0,5.44-2.88,51.57,51.57,0,0,0,16-14.76C609.78,661,612.1,647.21,610.92,634.09Z"/><path class="cls-8" d="M790.74,154,774,142.76a.3.3,0,0,0-.33,0c-1.47.77-3,1.51-4.45,2.24l-16.86,5.05-.1,0c-6.43,1.93-12.88,3.9-19.47,5.18h0l-1.4.26c-4.93.87-17.87,0-30.8-14.53a76,76,0,0,1-8.83-12.42,118,118,0,0,1-8.5-18.35c-1.53-4.12-2.31-12.65-2.44-22.77a285.8,285.8,0,0,1,1.5-31.61c1.28-12.09,3.33-22.68,6.05-27.56a.32.32,0,0,0-.11-.43c-1-.65-13.4-5.93-19-6.71-.37-.05-.38-.08-.79.93-7.69,17.83-20.32,32.43-36,43.66a130.56,130.56,0,0,1-13,8.17,157.69,157.69,0,0,1-38.9,14.78q-3.37.82-6.77,1.51a244.49,244.49,0,0,1-34.84,4.37q-5.5.33-11,.45c-2.14.06-4.29.09-6.43.11a44.54,44.54,0,0,1-12.81-1.28,24.83,24.83,0,0,1-4.4-1.71c-4.38-2.2-8.44-3.74-13.22-1.72s-8.47,5.93-12.21,9.28q-13.55,12.14-26.9,24.47c-17.8,16.46-21.6,19.89-38.87,36.91Q400,174,387.12,187.05c-2,2-4.16,4-6,6.17a4.27,4.27,0,0,0-1,4.36c.79,2.17,2.9,4,4.45,5.62s3.39,3.52,5.17,5.21l1.29,1.22c2.53,2.37,5.14,4.63,7.81,6.81A243.27,243.27,0,0,0,423.72,234q4.13,2.59,8.32,5.09,2.83,1.71,5.69,3.39c12,7.06,24.1,13.93,35.67,21.64q3.89,2.56,7.68,5.3t7.72,5.84C497.29,282,505.09,289.56,513,297c2.73,2.58,5.48,5.15,8.27,7.66a180.31,180.31,0,0,0,18.22,14.69A190.3,190.3,0,0,0,558.81,331h0c3,1.57,6,3.06,9,4.51,10,4.75,20.27,8.9,30.57,12.82,5,1.92,10,3.78,15.07,5.64a.34.34,0,0,0,.37-.15c19.75-31.51,28.75-47.79,54.11-75q4.54-4.86,9.19-9.6l5.62-1.16c13-2.67,26.9-5.34,38.15-12.69a34,34,0,0,0,12.24-13.65c3-6.16,4.5-12.92,6.69-19.37a179.34,179.34,0,0,1,18.82-39.21c7.82-12.15,18-23.66,32-28.58A.32.32,0,0,0,790.74,154Z"/><path class="cls-1" d="M923.34,218.83c4.92-.87,9.09-3.79,12.53-7.21,7.3-7.27,11.52-16.91,15.55-26.12A213.41,213.41,0,0,0,962.67,154c5.45-20.84,6.55-43.36-1-63.85-3.28-8.86-8.16-17.36-15.2-23.94A41.68,41.68,0,0,0,929,56.4l2.76.5c.31.05.44-.4.13-.46q-18-3.3-36.17-6.13c-11.81-1.85-23.65-3.73-35.55-4.94s-23.88-1.5-35.62.74c-11.25,2.14-22.21,6.15-32.74,10.49-18.15,7.46-36.67,19.09-42.58,38.47-6,19.61,6.23,39.28,18.41,54.09,12.39,15.05,28,27.41,45.09,37.15,19,10.87,85.43,24.4,106.7,30,11,2.89-23.43-.7-12.23,1.34C912.47,218.58,918,219.78,923.34,218.83Z"/><path class="cls-5" d="M1121.11,289.9a132.79,132.79,0,0,0-25.87-36.28c-19.56-19.9-43.43-35.68-60.39-58.08a97.41,97.41,0,0,1-10.53-17.16,102.37,102.37,0,0,1-7.47-24c-1.75-8.81-2.88-17.74-4.7-26.54a115,115,0,0,0-7.64-24A109.85,109.85,0,0,0,976.4,65.93,122.06,122.06,0,0,0,935.72,43c-30-10.18-92.29-1.2-104.94,1.79-6.95,1.64-14,.49-21-.27-.36,0-.11.32.11.63,3,4.45,8.51,6.1,12.65,6.6a47.26,47.26,0,0,1,10.39,2.14,13.59,13.59,0,0,1,8,6.68,15,15,0,0,1,.77,2c0,.67,0,1.35,0,2a23.87,23.87,0,0,0,1,5.31c0,.33,0,.66,0,1a.3.3,0,0,0,.41.28,17.63,17.63,0,0,0,7.28,9.24c5.93,3.63,13.21,4.06,19.23,7.59a40.22,40.22,0,0,1,14,14.4c8.36,14.15,8.55,31,7.13,46.95-1.5,16.88-4.83,34-2,50.87,1.41,8.3,4.38,16.23,7.58,24,2.85,6.92,5.65,14,9.38,20.47a46.38,46.38,0,0,0,13.95,15.68c5.92,4,12.72,6.57,19.58,8.47,16,4.44,32.69,6.37,49.24,6.79,8.68.22,17.38.07,26,.8a94.56,94.56,0,0,1,24,5.19c14.82,5.33,79.78,39.62,103.72,47.67q10.29,3.45,20.67,6.64c.26.08.44-.19.39-.41C1159.62,318.67,1128.49,305.51,1121.11,289.9Z"/><path class="cls-5" d="M830.73,99.11c.25-1.06.77-3.42-.49-4-1.87-.92-4,1.08-4.78,2.56-4.08,7.9-3.33,11.86-2.2,16.78.5,2.18,2.92,9.21,6.42,6.41,1.6-1.27,1.27-3.51.84-5.25-.7-2.89-2.1-5.74-2-8.77C828.64,104.07,830.1,101.72,830.73,99.11Z"/><path class="cls-5" d="M834.72,163.44c0-1.09-.08-3.5-1.45-3.79-2-.43-3.63,2-4,3.65-2,8.66-.34,12.32,2,16.82,1,2,5.08,8.21,7.79,4.64,1.24-1.62.37-3.71-.46-5.29-1.39-2.63-3.44-5.05-4.07-8C833.91,168.76,834.75,166.13,834.72,163.44Z"/><path class="cls-9" d="M847.74,150.55l-17.85,1.81c-5.91.61-11.89,1.52-17.83,1.69a17.35,17.35,0,0,1-8.42-1.44c-3-1.53-4-4-4.16-7.27a112.9,112.9,0,0,1,.46-18.2c0-.41-.59-.56-.63-.15a100.48,100.48,0,0,0-.42,19.23,8,8,0,0,0,3,6,13,13,0,0,0,6.55,2.33,42.09,42.09,0,0,0,8.76-.27l10.2-1,20.39-2.08C848.17,151.15,848.15,150.5,847.74,150.55Z"/><path class="cls-5" d="M867.55,115.47a119.61,119.61,0,0,0-5-13.45c-1-2.41-1.82-4.87-2.93-7.25a8.31,8.31,0,0,0-3.52-4.15,6.06,6.06,0,0,0-3.21-.58,5.12,5.12,0,0,0-3.79.93,6,6,0,0,0-1.93,4.29c-.23,2.2-.22,4.42-.31,6.62-.19,4.72-.64,9.51-.31,14.22A18.73,18.73,0,0,0,850.49,127c2.17,2.62,5.78,5.09,9.83,5.12a7.8,7.8,0,0,0,7.31-5.1C869.15,123.29,868.53,119.16,867.55,115.47Z"/><path class="cls-5" d="M855.83,181c1.66,4.1,4.09,8,6.29,11.87,1.2,2.12,2.3,4.3,3.63,6.36a7.91,7.91,0,0,0,3.92,3.45,6.45,6.45,0,0,0,3.25.17,4.82,4.82,0,0,0,5.16-5.47c0-2-.23-4.1-.36-6.15-.28-4.38-.31-8.85-1.11-13.17a16.56,16.56,0,0,0-5-9.58,13.75,13.75,0,0,0-10.28-3.62,7.79,7.79,0,0,0-6.75,5.53C853.45,174,854.49,177.75,855.83,181Z"/><path class="cls-9" d="M784.57,120.87A12.41,12.41,0,0,0,783,119a4.4,4.4,0,0,1-1.14-4.61c.64-2.86,1.45-5.69,2.17-8.53a.33.33,0,0,0-.33-.4c-1.35,0-5.31,4.49-6.23,6.11-1.3,2.32-2.43,5-2.51,15.16,0,4,.82,8.63,3.5,11.81,1.32,1.55,5.69,4,6.64.81,1.16-4-1.92-8.41-4.18-11.51A4.64,4.64,0,0,0,784.57,120.87Z"/><path class="cls-1" d="M849.47,58a10.73,10.73,0,0,0-5.67-5.27c-2.89-1-6.15-.74-9.13-.39-5,.59-10.09,2.09-13.84,5.42-.23-.19-.65.12-.48.44h0a15.86,15.86,0,0,0-1.82,2.08c-.24.33.23.78.47.44a15.43,15.43,0,0,1,1.67-1.92L825.93,69,828.56,74c.73,1.39,1.34,3.27,2.44,4.41.78.81,1.74.71,2.79.57a25.45,25.45,0,0,0,12.63-5.56c2.16-1.77,4.48-4,5-6.92S850.8,60.52,849.47,58Z"/><path class="cls-10" d="M962.05,245.88c-15.88-8.59-27.5-23.34-34.16-39.95a95.66,95.66,0,0,1-6.4-26.34c-1-10.5-.37-21.07-.28-31.59.1-11.68-.53-23.53-4.8-34.54-.15-.38-.78-.21-.63.18,8,20.7,3.13,43.22,5,64.75,1.48,17.52,7.71,34.88,18.53,48.82a72,72,0,0,0,22.47,19.23C962.09,246.64,962.42,246.08,962.05,245.88Z"/><path class="cls-10" d="M942.07,63.53a63.62,63.62,0,0,0-12.56-7c-.39-.16-.56.46-.18.62A65.71,65.71,0,0,1,963.9,91.44,62.63,62.63,0,0,1,968.06,105c.08.41.71.24.63-.17A66.35,66.35,0,0,0,942.07,63.53Z"/><path class="cls-10" d="M945.71,89.19c-.22-.36-.78,0-.56.32a64.57,64.57,0,0,1,9.32,43.86c-.06.41.57.58.63.17A65.25,65.25,0,0,0,945.71,89.19Z"/><path class="cls-4" d="M824.36,330.14l1.61-2.48-37.13-24,.8-1.59,186.42,4.52,42.59,27.56Z"/><path class="cls-9" d="M835.14,66.37c-3.36-3.1-10.27-1.67-12.07-6.52-.15-.38-.78-.22-.63.18,1.48,4,6,4,9.39,5.19,4.75,1.67,6.09,6.6,5.54,11.18,0,.42.6.41.65,0C838.43,72.91,837.85,68.87,835.14,66.37Z"/><path class="cls-10" d="M511.53,381.82l-.43.48q-7.61-5.76-15.24-11.46-36.36-27.18-73.62-53.13-9.28-6.46-18.63-12.86l-.53-.37Q387.69,294,372.15,283.65l.48-.46q8.25,5.46,16.44,11,7.26,4.89,14.48,9.84c.18.11.35.24.53.36q30.1,20.6,59.65,42Q487.82,363.84,511.53,381.82Z"/><path class="cls-11" d="M822.33,502.89c-.29-6.56-.78-13.11-1.35-19.66-.67-7.54-1.28-15.11-2.27-22.62-1.86-14-6.15-27.46-11.73-40.4a107.46,107.46,0,0,0-4.76-10.2c-1.38-2.46-3.16-4.66-5.82-5.73a8.45,8.45,0,0,1-2.12.28,1.85,1.85,0,0,1-.78-.16q-7.74,0-15.47.07a2.24,2.24,0,0,1-.61.09,16.7,16.7,0,0,0-5.33.44c2.67,1.17,4.37,3.64,5.69,6.18,1.49,2.87,2.77,5.85,4.06,8.8a181.92,181.92,0,0,1,7.27,19.54c4.18,13.75,5.45,27.86,6.73,42.11.74,8.22,1.38,16.45,1.65,24.7a.33.33,0,0,0,.55.23,64.42,64.42,0,0,1,5.42-5.16q1.5-1.27,3.09-2.46c.46-.34.93-.67,1.4-1,1-.72,1.17-.95,2.49-.76a3.55,3.55,0,0,1,2.33,1.19l1.68,1.43,2.88,2.47,2.87,2.46c.51.43,1,1.13,1.73,1.06a.34.34,0,0,0,.3-.2.27.27,0,0,0,.07-.18c.05-.79.07-1.58.06-2.38A.32.32,0,0,0,822.33,502.89Z"/><path class="cls-7" d="M1074.56,687.69c-.29-6.56-.77-13.11-1.35-19.66-.67-7.54-1.28-15.11-2.27-22.62a127.91,127.91,0,0,0-4-19.16c-9.12.41-24.58.69-24.83.58,3.6,13,4.8,26.22,6,39.6.74,8.22,1.37,16.45,1.64,24.69a.33.33,0,0,0,.56.23,64.3,64.3,0,0,1,5.41-5.16c1-.85,2-1.66,3.09-2.45l1.4-1c1-.71,1.17-.94,2.49-.75a3.49,3.49,0,0,1,2.33,1.18l1.68,1.44,2.88,2.47,2.88,2.46c.5.43,1,1.12,1.73,1.06a.37.37,0,0,0,.3-.2.32.32,0,0,0,.06-.18,23.56,23.56,0,0,0,.06-2.38A.32.32,0,0,0,1074.56,687.69Z"/><path class="cls-10" d="M424,654.53a256.19,256.19,0,0,0-53-54.48q-8.79-6.67-18.12-12.56c-.34-.22-.65.32-.31.53a255.61,255.61,0,0,1,57.34,49.54q7.15,8.34,13.57,17.28C423.68,655.16,424.22,654.85,424,654.53Z"/><path class="cls-5" d="M542.32,170.11a250.79,250.79,0,0,1-55.5-19.23c-5-2.42-9.9-5-14.72-7.76-.34-.2-.66.34-.31.53a251.24,251.24,0,0,0,54,22.88c5.42,1.58,10.88,3,16.4,4.18C542.54,170.79,542.71,170.2,542.32,170.11Z"/><path class="cls-9" d="M45.11,605.17A120.31,120.31,0,0,1,19.5,619.61l-.7-.39a119.68,119.68,0,0,0,26-14.58C45.13,604.4,45.43,604.93,45.11,605.17Z"/><path class="cls-9" d="M32.53,600.12a97.88,97.88,0,0,1-18.12,9.67c-.36.15-.2.75.17.6a98.73,98.73,0,0,0,18.26-9.73C33.17,600.43,32.86,599.9,32.53,600.12Z"/><path class="cls-9" d="M23.54,591.73a152.64,152.64,0,0,1-15.72,8.12c-.36.16-.05.69.31.53a151.62,151.62,0,0,0,15.72-8.12C24.19,592.06,23.88,591.52,23.54,591.73Z"/><path class="cls-12" d="M527.88,95q-10.8,9.83-21.56,19.71-29.77,27.39-59.12,55.22-24.34,23.09-48.39,46.5c-2.67-2.18-5.28-4.44-7.81-6.81l20.82-20.49q28.07-27.62,56.11-55.22l40.71-40.08a44.54,44.54,0,0,0,12.81,1.28C523.59,95.1,525.74,95.07,527.88,95Z"/><path class="cls-12" d="M619.42,73.9c-1.9,2-3.87,3.94-5.75,5.91q-22.45,23.57-46.38,45.65-24,22.26-49,43.38T468,210.35q-17.93,14.44-36,28.74-4.19-2.51-8.32-5.09,20.91-16.14,41.65-32.52c16.3-12.88,32.59-25.8,48.07-39.66a488.29,488.29,0,0,0,41.92-42.58c8.69-9.94,17-20.16,25.16-30.56A157.69,157.69,0,0,0,619.42,73.9Z"/><path class="cls-12" d="M680.78,87.45q-7.31,8.85-14.94,17.43c-15.14,17-31.15,33.3-47.7,49s-33.76,30.86-51.21,45.64-35.38,29.37-53.29,43.78q-16.27,13.1-32.56,26.15-3.79-2.73-7.68-5.3,16.44-14.06,32.57-28.48,25-22.39,49.26-45.65t47.66-47.32q23.42-24.07,46-49,17-18.7,33.42-37.86A285.8,285.8,0,0,0,680.78,87.45Z"/><path class="cls-12" d="M700.55,141c-1.59,1.62-3.22,3.22-4.87,4.79-7.38,7-15,13.81-22.58,20.68q-42.47,38.65-84.93,77.31L545.7,282.43q-10.49,9.57-21,19.12l-3.44,3.11c-2.79-2.51-5.54-5.08-8.27-7.66q16.32-13.15,32.29-26.73,21.65-18.39,42.62-37.57t41.44-39.26q20.28-19.91,39.82-40.53,11.4-12,22.56-24.34A76,76,0,0,0,700.55,141Z"/><path class="cls-12" d="M752.23,150.08c-14.25,13.89-28.64,27.64-42.42,42-7.2,7.48-14.17,15.18-20.76,23.21s-13,16.4-19.85,24.28c-11.55,13.23-24.7,24.94-38.08,36.29s-26.9,22.25-39.63,34.2a233.34,233.34,0,0,0-23.67,25.44c-3-1.45-6-2.94-9-4.51q17.36-15.87,34.39-32.06,40.74-38.68,79.69-79.19Q703.4,188,732.75,155.26h0C739.35,154,745.8,152,752.23,150.08Z"/><path class="cls-1" d="M906.71,368c2.57-3.38,32-10.11,39.57-21.73,0,0-171.86-108.5-186.12-117.21a183.47,183.47,0,0,1-36-28.6C703.51,179.2,637.43,24.52,636.31,21.94c-20,15-76.89,51.6-79.57,53.28,18.39,26.44,75.27,140.42,95.5,164.54a183.51,183.51,0,0,0,32.28,30.61c13.25,9.65,27.92,16.44,43.27,22C762.93,305.08,893.46,359.32,906.71,368Z"/><path class="cls-12" d="M495,762.36c-2.21.5-4.44.9-6.69,1.23-.08-6.85-.52-13.7-1.27-20.54-2.08-19.08-5.64-38-8.7-57-.31-1.91-.61-3.82-.92-5.73-5.55-34.93-10.39-70.15-18.29-104.63a407.93,407.93,0,0,0-15.54-51.53c-.84-2.23-1.68-4.46-2.54-6.69-5.29-13.76-10.95-27.37-16.25-41.12-3.94-10.25-7.65-20.61-10.81-31.09q-2.31-7.62-4.21-15.32c-4.06-16.66-6.48-33.65-6.16-51.05A190.59,190.59,0,0,1,426,292.82l10.81,6.74c-.46,1.15-.9,2.3-1.34,3.45A255.14,255.14,0,0,0,419.34,406.7,252.52,252.52,0,0,0,422,432.44c.26,1.67.54,3.35.84,5q1.93,11,4.85,21.74c4.45,16.41,10.73,32.23,17,48l1.8,4.51c6.94,17.4,13.38,34.9,18.08,53.06,4.75,18.43,8.14,37.19,11.1,56q5,31.43,9.22,63,3.57,26,6.79,52Q493.38,749.06,495,762.36Z"/><path class="cls-12" d="M549.21,712.15a73.49,73.49,0,0,1-6.78,15.05c-.22-8.32-.58-16.62-1.13-24.93-.11-1.74-.23-3.49-.37-5.22-2.5-33.39-8.21-66.4-18.66-98.27S497.7,536.17,485.07,505c-2.7-6.68-5.34-13.38-7.86-20.12-3.38-9.05-6.55-18.18-9.38-27.42q-1.57-5.13-3-10.31a231.33,231.33,0,0,1-7.19-35c-.18-1.62-.35-3.24-.49-4.86a126,126,0,0,1,5.9-50.05,258.44,258.44,0,0,1,13.59-32.7l9.17,5.83c-7.3,12.48-11.19,26.67-13.81,40.8-2.52,13.65-4.3,27.61-4.21,41.55,0,2.68.1,5.37.27,8.06a107.73,107.73,0,0,0,1.35,11.6c2.2,12.87,6.58,25.08,11.86,37.22,6.59,15.16,12.95,30.29,18.29,46,4.78,14,9.18,28.11,13.62,42.22.72,2.27,1.43,4.54,2.15,6.8,5.18,16.33,10.44,32.64,15.51,49s9.75,32.86,12.92,49.71A328.39,328.39,0,0,1,548.27,697C548.69,702,549,707.09,549.21,712.15Z"/><path class="cls-12" d="M586.12,686.73a61.23,61.23,0,0,1-5.44,2.88c-.34-3-.73-6-1.16-9-3.23-22.56-9.25-44.45-16.39-66-7.07-21.39-15-42.52-21.07-64.21-3-10.78-5.46-21.76-9.31-32.3-3.79-10.36-9.29-19.91-14.94-29.36-7.13-11.94-14.71-24.45-18.64-37.9,11.92,14.8,24.26,30.44,34.34,43.61,8.36,20.85,16.09,42,22.86,63.38q10.88,34.37,18.74,69.6Q581.69,656.83,586.12,686.73Z"/><path class="cls-12" d="M434.59,674.85q-.46-9.5-1.13-19c-2.07-29.63-5.67-59.35-11.85-88.33-.22-1-.45-2.08-.68-3.12-3.52-15.81-8.28-31.39-15.24-46-7.32-15.4-16.69-29.71-23.89-45.17-.19-.4-.37-.79-.55-1.19a210.74,210.74,0,0,1-10.57-28.17c-7.05-23.86-9.74-48.94-6.55-73.76,4.31-33.64,17.9-65.14,32.4-95.52-5.08-3.15-8.26-5.13-8.76-5.45-.06,0-2.67,2.4-7,6.51q-7.77,15.8-15,31.86c-7.59,17-15.36,34.23-19.48,52.46-7.45,33-.51,66.84,11.18,98,1,2.66,2,5.29,3.07,7.91,3.23,8,6.73,15.78,10.39,23.54,12,25.38,25.52,50,35.8,76.16q2.77,7.05,5.14,14.21a236.79,236.79,0,0,1,9.52,39.41,308.15,308.15,0,0,1,3,31.1c.46,9.35.56,18.71.43,28.06a489.54,489.54,0,0,1-6.71,74.31c5.31,2.15,10.69,4.08,16.16,5.73A783.27,783.27,0,0,0,434.59,674.85Z"/><path class="cls-12" d="M339.53,583.78l-3.55-2.9c-2.78-2.29-5.56-4.61-8.31-7q-1.23-6.39-2.64-12.72c-.65-2.88-1.32-5.76-2-8.63q-2.08-8.49-4.5-16.93-4-13.87-8.87-27.47c-3.29-9.15-6.88-18.18-9.89-27.43A259.49,259.49,0,0,1,288.52,428a263.63,263.63,0,0,1,.66-61.38c3.09-3.48,6.6-7.28,10.4-11.31a113.13,113.13,0,0,0-1.12,12.84c-.58,18.33,3.05,36.4,7.11,54.19,2.19,9.58,4.52,19.12,6.43,28.77,1.87,9.41,3.13,18.89,4.12,28.44,1.06,10.15,2.25,20.26,4.16,30.3,1.59,8.32,3.52,16.57,5.63,24.77.31,1.25.64,2.5,1,3.74,2.64,10.06,5.45,20.08,8.29,30.09Q337.33,576.14,339.53,583.78Z"/><path class="cls-12" d="M363.86,712.53c-5.79-9.73-11.3-19.63-16.39-29.75-4.89-9.75-9-20-15.34-29s-14.26-16.21-22-23.71c-7.92-7.73-15.85-15.44-23.89-23.05-16.1-15.27-32.61-30.15-50.1-43.83-5-3.88-10-7.61-15.09-11.27a145,145,0,0,1-14.88,2.81,48.61,48.61,0,0,1-6.37.31c4.16,3.48,8.42,6.84,12.74,10.12,16.3,12.38,33.41,23.67,49.48,36.38a245.69,245.69,0,0,1,22.65,20,299.94,299.94,0,0,1,23.64,27.7c14.5,18.81,28.82,37.8,42.47,57.24,5.7,8.12,11.27,16.35,16.59,24.73,3.82,1.5,7.41,2.94,10.75,4.27C373.27,727.94,368.48,720.29,363.86,712.53ZM236.8,672.43a134.6,134.6,0,0,1-20.71-16.68c-6.06-6.06-11.58-12.63-17.32-19a152.7,152.7,0,0,0-18.36-17.6,123,123,0,0,0-20.78-13.26c-7.65-3.86-15.76-6.49-23.67-9.74a60.21,60.21,0,0,1-12.35-6.52c-.55,2.47-1.11,5-1.65,7.48l12.4,6.89c8.07,4.49,16.23,8.91,23.8,14.24,13.93,9.8,25.71,22.2,37.82,34.07,5.88,5.77,11.87,11.43,18.21,16.67q3.87,3.18,7.85,6.19c14.38,5.46,29.27,11.14,44.07,16.8-2.33-1.72-4.69-3.39-7.07-5C251.75,681.93,244.16,677.36,236.8,672.43Z"/></svg>