<svg id="Layer_1" data-name="Layer 1" xmlns="http://www.w3.org/2000/svg" viewBox="0 0 363.88 68"><defs><style>.cls-1{fill:#b24326;}</style></defs><path class="cls-1" d="M21.35,64.83c.52,0,.58.58,0,.58h-3C8.67,65.41,5.3,62.24,5.3,56c0-5.37,2.27-11,2.27-16.37,0-2.33-.71-5.43-6.6-5.43-.58,0-.58-.58,0-.58,5.89,0,6.6-3.11,6.6-5.44,0-5.37-2.27-11-2.27-16.37,0-6.21,3.37-9.38,13.07-9.38h3c.58,0,.52.58,0,.58h-3C11.84,3,5.89,4.27,5.89,11.58c0,6.54,2.26,10.55,2.26,16.57,0,3.1-1,4.85-4.53,5.75,3.5,1,4.53,2.79,4.53,5.83,0,6-2.26,10-2.26,16.56,0,7.31,6,8.54,12.48,8.54Z"/><path class="cls-1" d="M24.26,19.35c-.39,0-.39-.58.07-.58h3.23V17.34C27.56,8.48,33.9,3,40.31,3a9.34,9.34,0,0,1,9.18,6.28c.2.45-.32.71-.51.32-1.88-4.53-5.12-6-8.67-6-6.15,0-7.7,5.75-7.7,14.23v.91H46.07c.51,0,.51.58-.07.58H32.61V51.44H27.56V19.35Z"/><path class="cls-1" d="M79.19,36.56c-3.43,9.31-9.31,15.52-18.7,15.52S44.13,45,44.13,36.3c0-9.64,6-18.12,16.95-18.12C67.87,18.18,74,21.1,74,25.3c0,7.12-10.48,7.05-17.47,8.67-3.68.91-6.47,2.26-6.08,5.5,1.81,5.18,6.15,9.9,13.91,9.9,7.18,0,11.65-5.7,14.3-13C78.87,35.91,79.39,36.11,79.19,36.56ZM49.37,33.39A18.89,18.89,0,0,0,50,37.92c.52-2.66,3.3-3.76,6.47-4.53,5.43-1.3,12.16-1.68,12.1-8-.07-3.36-1.82-6.66-7.44-6.66C54.61,18.77,49.37,23.62,49.37,33.39Z"/><path class="cls-1" d="M111,23.88c-1-3.3-2.91-4.86-6-4.86-7.63,0-14.3,14.76-15.33,28.34l.06-3-.19,6.86v.26H84.69V31.19l.07-12.42,5,.06V29.38l-1.1,18.18h.45c1.23-15.08,8.35-29.12,16-29.12,2.78,0,5.37,1.36,6.47,5.24C111.67,24.27,111.22,24.33,111,23.88Z"/><path class="cls-1" d="M110.57,48.59A3.56,3.56,0,0,1,114.33,45,3.61,3.61,0,0,1,118,48.59a3.58,3.58,0,0,1-3.68,3.56A3.64,3.64,0,0,1,110.57,48.59Z"/><path class="cls-1" d="M173.46,28.92c0,6.15-4.59,13.07-9.12,19.67L162.07,52h-1.74L148,22.32h-.38A18.37,18.37,0,0,1,148.94,28c.39,7.05-3,14.82-7.25,20.84L139.36,52h-1.81L123.71,18.77h5.5l12.16,29.3c3.49-5.24,7.38-12.22,7-20.18a14.55,14.55,0,0,0-1.1-4.72l-1.88-4.4H152l12,29.17c4.2-6.08,8.8-13.06,8.8-19.08,0-6.92-3.69-9.58-9.71-9.58-.45,0-.45-.51,0-.51C170,18.77,173.46,21.81,173.46,28.92Z"/><path class="cls-1" d="M192.94,18.9c-5.31,3-5.76,7.89-5.76,12.87l.13,19.67H182.2V31.25c0-3.36,1.42-7.57,6.79-11.13-5.31,2.07-9.83,5.18-11.58,7.32-.32.45-.78,0-.45-.39,2.71-3.24,9.51-7.12,15.59-8.61C193,18.31,193.19,18.7,192.94,18.9Zm-9.77-9.39a3.33,3.33,0,0,1,6.66,0,3.17,3.17,0,0,1-3.36,3.3A3.23,3.23,0,0,1,183.17,9.51Z"/><path class="cls-1" d="M195.65,35.78c0-10.35,8.61-17.6,18.25-17.6,4.92,0,9.83,3,11.52,7.51.25.52-.33.77-.46.45-1.49-4-5.5-7.37-11.64-7.37S200.7,23.29,200.7,32.68c0,9,5.69,17.4,13.91,17.4,5.43,0,12.29-2.46,16.37-13.91.19-.71.78-.39.58.13-3.88,10.48-10.09,15.78-18.44,15.78C203.87,52.08,195.65,45.68,195.65,35.78Z"/><path class="cls-1" d="M268.25,22.58a7.75,7.75,0,0,0-7.18-3.81c-11.07,0-16,10.74-18,20,2.72-6.6,7.7-9.71,12.42-9.71,5.24,0,6.86,3.88,8.15,9.38l2.79,13h-5.11l-2.53-12.1C258,35.46,257,30.28,254,30.28c-5.5,0-9.84,5.31-11.45,11.65a55.46,55.46,0,0,0-.46,6.6v2.91h-5V11.33l.06-9.52h5v9.52L242,30l-1.1,17.6h.32c.84-8.29,3.63-29.38,19.87-29.38a8.32,8.32,0,0,1,7.63,4C269,22.65,268.57,23,268.25,22.58Z"/><path class="cls-1" d="M309.07,36.56c-3.43,9.31-9.31,15.52-18.69,15.52S274,45,274,36.3c0-9.64,6-18.12,16.95-18.12,6.79,0,12.87,2.92,12.87,7.12,0,7.12-10.48,7.05-17.47,8.67-3.68.91-6.46,2.26-6.08,5.5,1.81,5.18,6.15,9.9,13.91,9.9,7.18,0,11.65-5.7,14.3-13C308.75,35.91,309.27,36.11,309.07,36.56Zm-29.82-3.17a18.89,18.89,0,0,0,.58,4.53c.52-2.66,3.3-3.76,6.47-4.53,5.43-1.3,12.16-1.68,12.1-8-.07-3.36-1.81-6.66-7.44-6.66C284.49,18.77,279.25,23.62,279.25,33.39Z"/><path class="cls-1" d="M340.91,23.88c-1-3.3-2.91-4.86-6-4.86-7.63,0-14.29,14.76-15.33,28.34l.07-3-.2,6.86v.26h-4.91V31.19l.06-12.42,5,.06V29.38l-1.1,18.18H319c1.23-15.08,8.35-29.12,16-29.12,2.79,0,5.37,1.36,6.48,5.24C341.55,24.27,341.1,24.33,340.91,23.88Z"/><path class="cls-1" d="M362.91,34.23c-5.89,0-6.6,3.1-6.6,5.43,0,5.37,2.26,11,2.26,16.37,0,6.21-3.36,9.38-13.07,9.38h-3c-.59,0-.52-.58,0-.58h3C352,64.83,358,63.6,358,56.29c0-6.53-2.27-10.55-2.27-16.56,0-3,1-4.85,4.53-5.83-3.56-.9-4.53-2.65-4.53-5.75,0-6,2.27-10,2.27-16.57C358,4.27,352,3,345.5,3h-3c-.52,0-.59-.58,0-.58h3c9.71,0,13.07,3.17,13.07,9.38,0,5.37-2.26,11-2.26,16.37,0,2.33.71,5.44,6.6,5.44C363.49,33.65,363.49,34.23,362.91,34.23Z"/></svg>