<?xml version="1.0" standalone="no"?>
<!DOCTYPE svg PUBLIC "-//W3C//DTD SVG 1.1//EN" "http://www.w3.org/Graphics/SVG/1.1/DTD/svg11.dtd">
<svg xmlns="http://www.w3.org/2000/svg"><metadata>This SVG WebFont was generated by YouWorkForThem.
Copyright Â© 2019 by Cosimo Lorenzo Pancini. All rights reserved.</metadata><defs><font horiz-adv-x="0" id="ywftsvg"><font-face ascent="1638" bbox="-1264 -647 2517 1933" cap-height="1450" descent="-410" font-family="" font-stretch="normal" font-weight="400" panose-1="0 0 5 0 0 0 0 0 0 0" underline-position="0" underline-thickness="0" unicode-range="U+0020-2265" units-per-em="2048" x-height="1047"/><missing-glyph horiz-adv-x="1538"/><glyph glyph-name=".notdef" horiz-adv-x="1538"/><glyph glyph-name="glyph1"/><glyph glyph-name="glyph2" horiz-adv-x="681"/><glyph glyph-name="space" horiz-adv-x="542" unicode=" "/><glyph d="M260 1184q0 123 38 192.5t91 73.5q53 2 94 -68.5t41 -197.5q0 -137 -55 -422t-55 -481h-43q0 197 -55.5 481.5t-55.5 421.5zM279 78q0 49 31.5 82t80.5 33q47 0 80 -34t33 -81q0 -49 -33 -83t-80 -34q-45 0 -78.5 35t-33.5 82z" glyph-name="exclam" horiz-adv-x="710" unicode="!"/><glyph d="M84 1382q-10 35 10.5 63t55.5 28q47 0 67 -82q10 -18 4 -77t-11 -87.5t-19.5 -94t-20.5 -96.5q-2 -12 -10 -17t-17.5 0t-11.5 17v6q10 27 2 94.5t-11 89t-19.5 83t-18.5 73.5zM434 1382q-10 35 10.5 63t55.5 28q47 0 67 -82q10 -18 4 -77t-11 -87.5t-19.5 -94 t-20.5 -96.5q-2 -12 -11 -17t-17.5 0t-10.5 17v6q10 27 2 94.5t-11 89t-19.5 83t-18.5 73.5z" glyph-name="quotedbl" horiz-adv-x="724" unicode="&quot;"/><glyph d="M350 436h-248v51h267l131 361h-275v51h293l195 539l45 -11l-191 -528h500l195 539l45 -11l-191 -528h252v-51h-270l-131 -361h278v-51h-297l-155 -434l-45 12l151 422h-500l-155 -434l-45 12zM549 848l-131 -361h500l131 361h-500z" glyph-name="numbersign" horiz-adv-x="1470" unicode="#"/><glyph d="M1102 373q0 -166 -133 -277.5t-346 -128.5v-186h-50v184h-14q-178 0 -323.5 103.5t-165.5 291.5l43 13v-4q14 -152 141 -252.5t305 -100.5h14v674q-14 6 -40.5 15.5t-36.5 13.5q-350 129 -351 418q0 143 120 236t308 95v224h50v-224q309 -18 421 -292l-40 -23 q-96 246 -381 264v-565q86 -33 144 -58.5t127 -69.5t109.5 -89t69.5 -113.5t29 -148.5zM260 1190q0 -199 313 -322v549q-145 -4 -229 -64.5t-84 -162.5zM623 670v-652q168 12 256 89t88 212q0 106 -81 190.5t-263 160.5z" glyph-name="dollar" horiz-adv-x="1181" unicode="$"/><glyph d="M571 -92l-43 16l721 1555l39 -21zM422 682q-154 0 -250 107.5t-96 279.5q0 170 101.5 287t248.5 117q158 0 256 -109t98 -283q0 -170 -103 -284.5t-255 -114.5zM434 733q92 0 148.5 87t56.5 231q0 160 -61.5 264t-157.5 106q-90 0 -147.5 -89t-57.5 -232 q0 -162 61.5 -264.5t157.5 -102.5zM1395 -31q-154 0 -251 108.5t-97 278.5t101 287t251 117q156 0 255 -108.5t99 -280.5q0 -170 -103 -286t-255 -116zM1405 23q92 0 148.5 86t56.5 229q0 162 -61.5 266.5t-155.5 104.5q-90 0 -147.5 -88.5t-57.5 -231.5q0 -162 60.5 -264 t156.5 -102z" glyph-name="percent" horiz-adv-x="1828" unicode="%"/><glyph d="M80 414q0 195 100.5 314.5t290.5 156.5q-125 29 -197.5 103.5t-72.5 178.5q0 135 114.5 217t305.5 84q328 4 448 -268l-37 -24q-106 238 -393 241h-23q-121 -4 -181 -77.5t-60 -161.5q0 -145 87 -209t277 -56v-51q-125 0 -215 -27.5t-139 -68.5t-77.5 -104.5t-37 -119 t-8.5 -128.5q0 -152 111.5 -268.5t359.5 -122.5q201 6 336 122.5t135 284.5q0 131 -72.5 213t-189.5 82h-22q-244 -33 -244 -240q0 -94 42 -147t116 -53q68 0 127 47t81 119l41 -17q-29 -86 -100.5 -143.5t-148.5 -57.5q-115 0 -193 68t-78 168q0 121 77 196.5t222 102.5 l37 6q55 8 133 8q575 0 576 377q0 68 -41 112t-103 44q-94 0 -153.5 -54.5t-59.5 -142.5h-43q0 106 73 177t183 71q106 0 179 -67.5t73 -165.5q0 -172 -168 -280t-448 -120q147 -94 147 -301q0 -182 -152.5 -324.5t-410.5 -144.5q-268 -2 -436 124t-168 327z" glyph-name="ampersand" horiz-adv-x="1675" unicode="&amp;"/><glyph d="M84 1382q-10 35 10.5 63t55.5 28q47 0 67 -82q10 -18 4 -77t-11 -87.5t-19.5 -94t-20.5 -96.5q-2 -12 -10 -17t-17.5 0t-11.5 17v6q10 27 2 94.5t-11 89t-19.5 83t-18.5 73.5z" glyph-name="quotesingle" horiz-adv-x="374" unicode="'"/><glyph d="M80 541q0 170 32.5 329.5t97 301t175.5 244t254 143.5l12 -52q-182 -49 -306 -206.5t-173 -350t-49 -409.5q0 -219 49 -410.5t172 -349.5t307 -209l-12 -51q-190 53 -320.5 216t-184.5 367t-54 437z" glyph-name="parenleft" horiz-adv-x="747" unicode="("/><glyph d="M668 541q0 -233 -54.5 -437t-184.5 -367t-320 -216l-13 51q184 51 307 209t172.5 349.5t49.5 410.5q0 217 -49.5 409.5t-173 350t-306.5 206.5l13 52q143 -41 253.5 -143.5t175 -244t97.5 -301t33 -329.5z" glyph-name="parenright" horiz-adv-x="747" unicode=")"/><glyph d="M84 1210l88 170q33 -154 141 -170q-55 111 -22 242l207 -18q-160 -84 -144 -199q86 90 226 98l32 -198q-53 53 -113.5 71.5t-101.5 -2.5q104 -55 160 -186l-178 -82q68 150 -4 221q-20 -125 -123 -211l-133 148q162 -23 209 63q-123 -19 -244 53z" glyph-name="asterisk" horiz-adv-x="696" unicode="*"/><glyph d="M418 618h330v-51h-330v-323h-43v323h-328v51h328v326h43v-326z" glyph-name="plus" horiz-adv-x="794" unicode="+"/><glyph d="M133 -279l-18 50q170 55 190 215q-27 -20 -63 -21q-49 0 -81 32t-32 81t32 83t79 34q53 0 84.5 -34t31.5 -89q4 -281 -223 -351z" glyph-name="comma" horiz-adv-x="456" unicode=","/><glyph d="M797 547h-750v51h750v-51z" glyph-name="hyphen" horiz-adv-x="843" unicode="-"/><glyph d="M121 78q0 49 32.5 82t82.5 33q47 0 79.5 -34t32.5 -81q0 -49 -32.5 -83t-80 -34t-81 35t-33.5 82z" glyph-name="period" horiz-adv-x="468" unicode="."/><glyph d="M0 -354l823 1872q8 20 21.5 24t20.5 -8t1 -31l-823 -1872q-6 -18 -20.5 -21t-21.5 8.5t-1 27.5z" glyph-name="slash" horiz-adv-x="897" unicode="/"/><glyph d="M750 -35q-299 0 -484.5 209t-185.5 543q0 336 185.5 543.5t482.5 207.5q299 0 484 -207.5t185 -543.5t-185 -544t-482 -208zM246 717q0 -322 136 -511.5t366 -189.5q248 0 375.5 200t127.5 501q0 315 -138 507.5t-365 192.5q-242 0 -372 -200.5t-130 -499.5z" glyph-name="zero" horiz-adv-x="1497" unicode="0"/><glyph d="M94 1165l-20 45l362 263q14 10 25.5 5t11.5 -22l-2 -1472h-158v1341z" glyph-name="one" horiz-adv-x="624" unicode="1"/><glyph d="M70 0h-31q0 127 105.5 222t308.5 210q106 57 180 107.5t149.5 121t114.5 159.5t39 192q0 213 -85 311t-265 94q-272 -6 -408 -301l-37 25q66 156 193 244t276 83q221 -4 366.5 -118.5t145.5 -288.5q0 -92 -41 -179t-95 -147.5t-151.5 -130t-163 -107.5t-175.5 -100 q-18 -10 -27 -14q-190 -102 -283 -186q47 20 105 20q94 0 260 -45t256 -45q53 0 84 2t90 19.5t98 51t78 102.5t57 167l43 -4v-4q-49 -242 -167.5 -376t-282.5 -134q-86 0 -161 33.5t-119 73.5t-106.5 74t-129.5 34q-49 0 -71.5 -3t-53.5 -17.5t-52 -49.5t-44 -96z" glyph-name="two" horiz-adv-x="1255" unicode="2"/><glyph d="M80 293l43 12q35 -123 162 -206t290 -83q215 0 327 103.5t112 298.5q0 184 -133 285.5t-357 87.5q-18 0 -23 18t9 29v4q207 0 302 72.5t95 228.5q0 131 -70.5 201.5t-203.5 72.5q-145 0 -256 -78.5t-170 -222.5l-39 25l-2 -2q59 150 181 237.5t271 91.5 q111 2 213.5 -29.5t176 -106.5t73.5 -177q0 -254 -301 -330q412 -74 412 -415q0 -195 -173 -320t-444 -125q-180 0 -319 92.5t-176 235.5z" glyph-name="three" horiz-adv-x="1271" unicode="3"/><glyph d="M96 367l-16 39l840 1095l38 -16v-1067h209v-51h-209v-383h-161v383h-701zM797 1264l-650 -846h650v846z" glyph-name="four" horiz-adv-x="1247" unicode="4"/><glyph d="M80 276l43 15q39 -125 163 -200t292 -75q205 0 311 113t106 326q0 201 -105.5 329.5t-266.5 128.5q-268 0 -441 -225q-16 -20 -32.5 -10t-12.5 35l146 737q82 -6 216 -19.5t191.5 -18.5t144.5 -8t133 3t97 21.5t92 44.5l21 -35q-102 -125 -296 -159t-587 3l-100 -508 q172 190 428 191q238 0 395.5 -140.5t157.5 -353.5q0 -225 -166 -365.5t-432 -140.5q-166 0 -308.5 80.5t-189.5 230.5z" glyph-name="five" horiz-adv-x="1257" unicode="5"/><glyph d="M80 645q0 354 176 586.5t455 236.5q139 -4 252.5 -71.5t152.5 -173.5l-41 -17q-39 92 -142.5 150.5t-232.5 60.5q-449 0 -448 -772l2 -76q51 160 181 249t259 89q223 0 367.5 -128t144.5 -328q0 -211 -155.5 -348.5t-395.5 -137.5q-248 0 -411.5 193.5t-163.5 486.5z M272 385q70 -369 383 -369q180 0 276.5 108.5t96.5 313.5q0 197 -89 307.5t-245 110.5q-174 0 -298 -136t-124 -335z" glyph-name="six" horiz-adv-x="1286" unicode="6"/><glyph d="M74 1282l-2 168h972l23 -43q-326 -424 -399 -535q-285 -424 -279 -888h-178q-12 293 422 919q121 172 280 379h-839z" glyph-name="seven" horiz-adv-x="989" unicode="7"/><glyph d="M80 377q0 119 125 231.5t315 171.5q-375 121 -375 344q0 139 149.5 241.5t350.5 102.5q238 0 375 -95t137 -259q0 -100 -96 -196.5t-264 -163.5l22 -6q201 -53 305.5 -148.5t104.5 -226.5q0 -174 -168 -291t-418 -117t-406.5 115t-156.5 297zM324 1165q0 -137 74.5 -232 t211.5 -130l105 -29q268 117 268 328q0 162 -88 238.5t-270 76.5q-129 0 -215 -71.5t-86 -180.5zM264 393q0 -170 104.5 -273.5t276.5 -103.5q180 0 291 91.5t111 236.5q0 289 -285 365l-150 43q-170 -49 -259 -143.5t-89 -215.5z" glyph-name="eight" horiz-adv-x="1308" unicode="8"/><glyph d="M1206 788q0 -354 -176 -586.5t-455 -236.5q-139 4 -252.5 71.5t-152.5 174.5l41 16q39 -92 142.5 -150.5t232.5 -60.5q449 0 448 772l-2 76q-51 -160 -181 -249t-259 -89q-223 0 -367.5 128t-144.5 329q0 211 155.5 348t395.5 137q248 0 411.5 -193.5t163.5 -486.5z M1014 1049q-70 369 -383 368q-180 0 -276.5 -108.5t-96.5 -313.5q0 -197 89 -307t245 -110q174 0 298 136t124 335z" glyph-name="nine" horiz-adv-x="1286" unicode="9"/><glyph d="M121 950q0 49 32.5 82t82.5 33q47 0 79.5 -34t32.5 -81q0 -49 -32.5 -82.5t-80 -33.5t-81 34.5t-33.5 81.5zM121 78q0 49 32.5 82t82.5 33q47 0 79.5 -34t32.5 -81q0 -49 -32.5 -83t-80 -34t-81 35t-33.5 82z" glyph-name="colon" horiz-adv-x="468" unicode=":"/><glyph d="M147 950q0 49 33 82t82 33q47 0 80 -34t33 -81q0 -49 -33 -82.5t-80 -33.5t-81 34.5t-34 81.5zM139 -279l-18 50q170 55 190 215q-27 -20 -63 -21q-49 0 -81 32t-32 81t32 83t79 34q53 0 84.5 -34t31.5 -89q4 -281 -223 -351z" glyph-name="semicolon" horiz-adv-x="495" unicode=";"/><glyph d="M164 530l676 -395l-23 -43l-719 418q-8 4 -8 19.5t8 19.5l713 420l27 -43z" glyph-name="less" horiz-adv-x="976" unicode="&lt;"/><glyph d="M748 707h-701v51h701v-51zM748 426h-701v51h701v-51z" glyph-name="equal" horiz-adv-x="794" unicode="="/><glyph d="M160 92l-23 43l676 395l-674 396l27 43l713 -420q10 -4 10 -19.5t-10 -19.5z" glyph-name="greater" horiz-adv-x="976" unicode=">"/><glyph d="M233 705q-29 139 66 139h170q119 0 189.5 48t70.5 126q0 123 -80 221t-183.5 144.5t-195.5 46.5v51q70 0 153 -30t163 -85t133 -147.5t53 -200.5q0 -360 -342 -361h-117v-338l-43 -2q0 198 -37 388zM182 78q0 49 32 82t81 33q47 0 80 -34t33 -81q0 -49 -33 -83t-80 -34 q-45 0 -79 35t-34 82z" glyph-name="question" horiz-adv-x="851" unicode="?"/><glyph d="M80 387q0 188 78 363.5t209 301.5t309 201.5t373 75.5q172 0 312 -58.5t224 -153.5t128 -205.5t44 -225.5q0 -268 -153.5 -445.5t-389.5 -177.5q-92 0 -142 46.5t-50 134.5q0 51 33 155q-96 -145 -190.5 -233t-198.5 -88q-80 0 -129.5 68.5t-49.5 177.5q0 125 55.5 242.5 t140.5 198.5t185.5 129t190.5 48q150 0 313 -119l2 -18q-16 -37 -65 -137.5t-76 -157.5t-51.5 -134t-24.5 -128q0 -59 24.5 -95t63.5 -36q199 0 334 164.5t135 404.5q0 111 -42 214.5t-122 189.5t-214 137t-300 51q-242 0 -452.5 -122t-335.5 -327.5t-125 -443.5 q0 -299 202.5 -485.5t530.5 -186.5q291 0 516 178l27 -41q-229 -188 -545 -188q-344 0 -559 201.5t-215 523.5zM649 338q0 -66 18.5 -128.5t59.5 -62.5q96 0 247.5 213t235.5 410q-33 121 -159 121q-119 0 -213.5 -85t-141.5 -210t-47 -258z" glyph-name="at" horiz-adv-x="1837" unicode="@"/><glyph d="M25 -16h-52l605 1263l-60 139q-4 6 -2 16.5t10 12.5q82 29 105 70q12 8 22 -2l631 -1499h-172l-194 458h-674zM600 1192l-332 -698h629z" glyph-name="A" horiz-adv-x="1257" unicode="A"/><glyph d="M621 -16h-459v1466h321q487 0 488 -289q0 -90 -73 -157.5t-202 -100.5q262 -35 400.5 -153.5t138.5 -313.5q0 -207 -167.5 -329.5t-446.5 -122.5zM324 1139v-215h147q176 0 246.5 53t70.5 184q0 121 -80.5 179.5t-248.5 58.5h-121q-14 -72 -14 -260zM324 870v-501 q0 -233 20 -334h252q221 0 338 103.5t117 297.5q0 102 -36 182t-92.5 127.5t-135 77t-154.5 39.5t-160 10z" glyph-name="B" horiz-adv-x="1314" unicode="B"/><glyph d="M80 692q0 338 224 561.5t556 214.5q193 -6 327 -96t179 -246l-41 -16q-104 303 -494 307q-258 2 -412.5 -178t-154.5 -481q0 -324 169 -518.5t454 -194.5q412 0 588 459l38 -25q-199 -516 -696 -516q-326 0 -531.5 203.5t-205.5 525.5z" glyph-name="C" horiz-adv-x="1505" unicode="C"/><glyph d="M586 -16h-424v1466h424q432 0 672.5 -192.5t240.5 -540.5q0 -346 -240.5 -539.5t-672.5 -193.5zM324 1100v-764q0 -180 20 -301h256q342 0 528.5 178t186.5 504q0 315 -196.5 498.5t-534.5 183.5h-246q-14 -96 -14 -299z" glyph-name="D" horiz-adv-x="1579" unicode="D"/><glyph d="M322 780v-745h745v-51h-905v1466h868v-51h-708v-568h462v-51h-462z" glyph-name="E" horiz-adv-x="1097" unicode="E"/><glyph d="M324 -16h-162v1466h882v-51h-720v-651h477v-52h-477v-712z" glyph-name="F" horiz-adv-x="1075" unicode="F"/><glyph d="M80 692q0 238 119 430q109 172 280.5 262.5t380.5 83.5q193 -6 327 -96t179 -246l-41 -16q-104 303 -494 307q-258 2 -412.5 -178t-154.5 -481q0 -328 164 -522.5t438 -194.5q115 0 200 23.5t183 80.5v377q0 109 -26.5 149t-126.5 42l-295 4v47q80 0 264 -3t201 -3h133 l6 -781h-41q-27 84 -102 119q-229 -133 -451 -133q-322 0 -526.5 205t-204.5 524z" glyph-name="G" horiz-adv-x="1515" unicode="G"/><glyph d="M324 -16h-162v1466h162v-614h878v614h162v-1466h-162v802h-878v-802z" glyph-name="H" horiz-adv-x="1525" unicode="H"/><glyph d="M324 -16h-162v1466h162v-1466z" glyph-name="I" horiz-adv-x="485" unicode="I"/><glyph d="M-55 -223l-15 49q143 45 204 156.5t61 334.5v1133h159v-1106q0 -129 -32.5 -229.5t-94 -165t-128 -104t-154.5 -68.5z" glyph-name="J" horiz-adv-x="516" unicode="J"/><glyph d="M324 -16h-162v1466h162v-791l788 791h64l-697 -700q102 43 215 43q326 0 447 -439q6 -25 39.5 -161t52.5 -209h-166q-14 49 -37.5 146t-36.5 144q-113 471 -325 467q-92 -2 -184.5 -46t-159.5 -107v-604z" glyph-name="K" horiz-adv-x="1206" unicode="K"/><glyph d="M1006 -16h-844v1464l160 2v-1415h684v-51z" glyph-name="L" horiz-adv-x="1036" unicode="L"/><glyph d="M164 -16l-2 1466h90l649 -864l576 864h125v-1466h-162v1331l-508 -770l69 -94q-82 -63 -100 -101q-8 -25 -29 -4l-665 879v-1241h-43z" glyph-name="M" horiz-adv-x="1763" unicode="M"/><glyph d="M207 -14h-45v1464h84l1040 -1206v1206h43v-1448q0 -18 -13 -22.5t-26 10.5l-1083 1259v-1263z" glyph-name="N" horiz-adv-x="1490" unicode="N"/><glyph d="M819 -41q-324 0 -531.5 211t-207.5 539q0 326 226 545t562 219q324 0 532 -211t208 -539q0 -319 -229.5 -541.5t-559.5 -222.5zM225 815q0 -309 193.5 -548.5t476.5 -239.5q242 0 404.5 170t162.5 421q0 195 -83 375.5t-239.5 297t-348.5 116.5q-246 0 -406 -167 t-160 -425z" glyph-name="O" horiz-adv-x="1687" unicode="O"/><glyph d="M324 -16h-162v1466h438q307 0 470 -110.5t163 -321.5q0 -190 -156.5 -292.5t-447.5 -102.5h-305v-639zM324 1171v-497h256q229 0 346.5 88t117.5 258q0 184 -116.5 281.5t-339.5 97.5h-252q-12 -50 -12 -228z" glyph-name="P" horiz-adv-x="1312" unicode="P"/><glyph d="M80 709q0 326 226 545t562 219q324 0 532 -211t208 -539q0 -254 -151.5 -453.5t-393.5 -273.5q-96 -47 -193 -109q61 14 117 15q100 0 219 -45t216.5 -100.5t247 -100.5t304.5 -45q176 0 272.5 32.5t161.5 143.5h50q-80 -152 -213.5 -240t-284.5 -88q-145 0 -271 40 t-213 98.5t-165 116t-161 97t-165 39.5q-100 0 -176 -40.5t-154 -116.5q-39 -49 -61 -107l-43 15q98 213 346 362q-53 -4 -78 -4q-324 0 -531.5 211t-207.5 539zM225 815q0 -309 193.5 -548.5t476.5 -239.5q242 0 404.5 170t162.5 421q0 195 -83 375.5t-239.5 297 t-348.5 116.5q-246 0 -406 -167t-160 -425z" glyph-name="Q" horiz-adv-x="1687" unicode="Q"/><glyph d="M324 -16h-162v1466h430q293 0 433 -88t140 -272q0 -139 -101 -231.5t-284 -125.5l383 -749h-186l-363 735h-292zM322 1171v-401h296q170 0 266.5 85t96.5 235q0 158 -93 233.5t-290 75.5h-264q-12 -62 -12 -228z" glyph-name="R" horiz-adv-x="1255" unicode="R"/><glyph d="M70 360l43 13v-4q14 -152 141 -252.5t305 -100.5q199 0 303.5 78t104.5 225q0 123 -109.5 217.5t-361.5 182.5q-350 129 -351 418q0 145 123 238t318 93q340 0 458 -292l-40 -23q-104 264 -418 264q-150 0 -238 -61.5t-88 -165.5q0 -199 315 -322q98 -37 155.5 -60.5 t138.5 -68.5t124 -91t76 -117.5t33 -157.5q0 -180 -152.5 -294t-390.5 -114q-178 0 -323.5 103.5t-165.5 291.5z" glyph-name="S" horiz-adv-x="1181" unicode="S"/><glyph d="M514 1399h-483v51h1112v-51h-467v-1415h-162v1415z" glyph-name="T" horiz-adv-x="1173" unicode="T"/><glyph d="M121 600v850h162v-793q0 -109 9 -193.5t35.5 -171.5t72.5 -145.5t124 -94.5t183 -36q233 0 361 166t128 467v801h43v-793q0 -90 -12.5 -175t-48 -182t-92 -169t-154.5 -119t-227 -47q-285 0 -434.5 162t-149.5 473z" glyph-name="U" horiz-adv-x="1359" unicode="U"/><glyph d="M606 -39l-633 1487h179l530 -1253l530 1255h52l-568 -1339l-67 -150h-23z" glyph-name="V" horiz-adv-x="1263" unicode="V"/><glyph d="M594 -37l-621 1485h181l518 -1255l317 706l-192 498q16 0 62 25.5t63 41.5q12 12 24 0l486 -1257l505 1243h50l-541 -1325l-70 -162h-24l-340 879l-318 -705l-78 -174h-22z" glyph-name="W" horiz-adv-x="1986" unicode="W"/><glyph d="M39 -12h-66l564 735l-486 727h199l424 -633l493 633h60l-525 -674l531 -792h-201l-467 698z" glyph-name="X" horiz-adv-x="1232" unicode="X"/><glyph d="M545 641l-504 809h199l426 -690l491 690h60l-510 -711v-755h-162v657z" glyph-name="Y" horiz-adv-x="1296" unicode="Y"/><glyph d="M14 18l914 1381h-764v51h966q12 0 15.5 -13.5t-4.5 -21.5l-916 -1380h897v-51h-1095q-12 0 -16.5 13t3.5 21z" glyph-name="Z" horiz-adv-x="1249" unicode="Z"/><glyph d="M555 -479h-403v2038h403v-52h-360v-1935h360v-51z" glyph-name="bracketleft" horiz-adv-x="593" unicode="["/><glyph d="M74 1518l823 -1872q6 -16 -1 -27.5t-21.5 -8.5t-20.5 21l-823 1872q-6 18 1 30.5t20.5 8.5t21.5 -24z" glyph-name="backslash" horiz-adv-x="897" unicode="\"/><glyph d="M442 1559v-2038h-403v51h360v1935h-360v52h403z" glyph-name="bracketright" horiz-adv-x="593" unicode="]"/><glyph d="M150 764l411 666h19l409 -664q10 -14 4 -26.5t-18 -13.5t-23 13l-381 621l-387 -623q-14 -18 -29 -5.5t-5 32.5z" glyph-name="asciicircum" horiz-adv-x="1140" unicode="^"/><glyph d="M1116 -135h-1083v51h1083v-51z" glyph-name="underscore" horiz-adv-x="1200" unicode="_"/><glyph d="M526 1212l-20 -32q-31 20 -88.5 55t-93 58.5t-75.5 52t-61.5 53t-23.5 43.5q-2 31 12 49t41 18q31 0 66.5 -26.5t64.5 -59t83 -99.5t95 -112z" glyph-name="grave" horiz-adv-x="724" unicode="`"/><glyph d="M2 465l-43 14q49 135 104.5 234.5t132 183.5t179 127t229.5 43q145 0 244.5 -69.5t136.5 -272.5l133 -741h-149l-84 471q-39 -201 -180.5 -348.5t-307.5 -147.5q-135 0 -220 70.5t-85 183.5q0 180 204 294t556 130l-18 88q-29 135 -95.5 212t-156.5 77q-115 0 -208 -42 t-162 -122t-117 -171t-93 -214zM256 254q0 -88 60.5 -144.5t154.5 -56.5q145 0 265 165t124 368q-287 -8 -445.5 -94t-158.5 -238z" glyph-name="a" horiz-adv-x="1163" unicode="a"/><glyph d="M203 -4l-41 4q16 109 16 199v1353h148v-866l-21 -280h8q55 338 213 496.5t357 158.5q158 0 254 -135t96 -357q0 -240 -160 -422t-371 -182q-109 0 -217 40t-149 40q-45 0 -87 -15.5t-46 -33.5zM334 180q66 -63 164 -113.5t204 -50.5q170 0 265.5 138.5t95.5 382.5 q0 207 -69.5 325.5t-190.5 118.5q-195 0 -325 -221.5t-144 -579.5z" glyph-name="b" horiz-adv-x="1308" unicode="b"/><glyph d="M76 496q0 240 165 404.5t402 164.5q131 0 237.5 -67.5t149.5 -178.5l-37 -26q-39 100 -134 159.5t-222 61.5q-178 0 -291 -123t-113 -320q0 -223 125 -371.5t310 -148.5q338 0 491 434l43 -16q-98 -262 -238.5 -384t-340.5 -122q-229 0 -388 154t-159 379z" glyph-name="c" horiz-adv-x="1198" unicode="c"/><glyph d="M76 436q0 268 165 448.5t410 180.5q176 0 330 -90v561h147v-1552h-147v516l29 282h-9q-70 -365 -226.5 -592t-340.5 -227q-170 0 -264 124t-94 349zM244 479q0 -186 65.5 -306t165.5 -120q123 0 231.5 130t177 323.5t95.5 411.5q-59 33 -93 49t-100.5 31.5t-144.5 15.5 q-168 0 -282.5 -154t-114.5 -381z" glyph-name="d" horiz-adv-x="1290" unicode="d"/><glyph d="M76 501.5q0 231.5 169 397.5t404 166q172 0 294 -105.5t122 -254.5q0 -33 -12 -82h-822v-29q0 -229 123 -374.5t318 -145.5q338 0 477 415l41 -18q-86 -246 -234.5 -377t-349.5 -131q-227 0 -378.5 153.5t-151.5 385zM238 674h579q76 0 76 76q0 127 -68.5 195.5 t-195.5 68.5q-125 0 -244.5 -90t-146.5 -250z" glyph-name="e" horiz-adv-x="1185" unicode="e"/><glyph d="M174 993h-139l2 51h137v91q0 180 104.5 296.5t268.5 116.5q109 0 190.5 -54t122.5 -155l-39 -22q-76 180 -274 180q-117 0 -171 -90t-54 -283v-80h411v-51h-411v-1009h-148v1009z" glyph-name="f" horiz-adv-x="722" unicode="f"/><glyph d="M76 438q0 256 163.5 441.5t387.5 185.5q82 0 181 -39t144 -39q92 0 115 47l39 -8l-2 -838q0 -221 -62.5 -390t-161 -262t-204 -138t-209.5 -45q-225 0 -338 178q-8 14 -3 28.5t16.5 15.5t23.5 -13q96 -158 301 -158q225 0 357 209t132 569v193l21 260h-8 q-53 -309 -204 -490.5t-312 -181.5q-180 0 -278.5 125t-98.5 350zM240 479q0 -209 65.5 -323.5t183.5 -114.5q70 0 141.5 47t140.5 139t117 253t58 364q-2 2 -35.5 34.5t-44 41t-44.5 34t-58.5 33.5t-63 17.5t-79.5 9.5q-170 0 -275.5 -146.5t-105.5 -388.5z" glyph-name="g" horiz-adv-x="1247" unicode="g"/><glyph d="M305 -16h-143v708l2 862l145 -2l-2 -888l-26 -379l8 -4q66 395 208 587.5t304 192.5q145 0 229 -109.5t129 -355.5l111 -612h-152l-114 639q-66 362 -254 362q-141 0 -267.5 -223t-169.5 -623z" glyph-name="h" horiz-adv-x="1351" unicode="h"/><glyph d="M176 1335q0 45 28.5 76t71.5 31t73 -31t30 -76t-28.5 -74.5t-74.5 -29.5q-41 0 -70.5 30.5t-29.5 73.5zM197 -16v1060h147v-1060h-147z" glyph-name="i" horiz-adv-x="540" unicode="i"/><glyph d="M193 1333q0 45 28.5 76t71.5 31t72.5 -31t29.5 -76t-28.5 -74.5t-73.5 -29.5q-41 0 -70.5 30.5t-29.5 73.5zM-31 -537l-2 52q252 0 252 346v1169h148v-452l2 -594q0 -141 -39 -249t-103.5 -163t-129.5 -82t-128 -27z" glyph-name="j" horiz-adv-x="557" unicode="j"/><glyph d="M162 -16v1570h147v-1034l637 524h78l-508 -417q45 10 80 10q102 0 177 -51t108 -144l159 -458h-157l-140 415q-27 80 -78 130.5t-108 50.5q-94 0 -235 -113l-13 -8v-475h-147z" glyph-name="k" horiz-adv-x="1107" unicode="k"/><glyph d="M162 -16v1568h147v-1568h-147z" glyph-name="l" horiz-adv-x="471" unicode="l"/><glyph d="M309 -16h-147v618l2 445l145 -3v-432l-24 -280h8q57 385 185 560t278 175q270 0 282 -455h9q80 453 327 453q150 0 220.5 -113.5t115.5 -353.5l113 -614h-150l-108 583q-39 217 -93.5 314.5t-132.5 97.5q-121 0 -198.5 -195.5t-96.5 -509.5l-2 -290h-145v555 q0 96 -5 160.5t-23.5 136t-59.5 108.5t-107 37q-145 0 -250.5 -228.5t-142.5 -623.5v-145z" glyph-name="m" horiz-adv-x="1904" unicode="m"/><glyph d="M305 -16h-143v1063l147 -3v-380l-26 -379h8q63 391 204.5 583.5t305.5 192.5q150 0 230.5 -105.5t127.5 -359.5l111 -612h-152l-114 639q-35 188 -95.5 275t-160.5 87q-152 0 -274 -236.5t-161 -609.5z" glyph-name="n" horiz-adv-x="1351" unicode="n"/><glyph d="M602 -43q-223 0 -374.5 150.5t-151.5 373.5q0 250 172 422t420 172q221 0 371.5 -153.5t150.5 -378.5q0 -252 -167 -419t-421 -167zM199 604q0 -219 158.5 -395t355.5 -176q152 0 254 109.5t102 271.5q0 215 -150.5 397t-363.5 182q-152 0 -254 -111.5t-102 -277.5z" glyph-name="o" horiz-adv-x="1265" unicode="o"/><glyph d="M309 -514h-147v1558h147v-380l-24 -283h8q61 307 222 493.5t351 186.5q156 0 248 -135t94 -365q0 -176 -86 -316.5t-212 -211t-263 -70.5q-76 0 -148.5 19.5t-103 34t-86.5 42.5v-573zM309 139v-22q61 -35 99 -52.5t100.5 -33t132.5 -15.5q188 0 292.5 125t104.5 348 q0 229 -61.5 355.5t-173.5 130.5q-117 4 -229.5 -109.5t-182.5 -314.5q-82 -226 -82 -412z" glyph-name="p" horiz-adv-x="1284" unicode="p"/><glyph d="M76 436q0 268 165 448.5t410 180.5q176 0 330 -90v49h147v-1536h-147v1012l29 282h-9q-70 -365 -226.5 -592t-340.5 -227q-170 0 -264 124t-94 349zM244 479q0 -186 65.5 -306t165.5 -120q123 0 231.5 130t177 323.5t95.5 411.5q-59 33 -93 49t-100.5 31.5t-144.5 15.5 q-168 0 -282.5 -154t-114.5 -381z" glyph-name="q" horiz-adv-x="1290" unicode="q"/><glyph d="M162 -16v671l2 392l145 -3v-385l-30 -370h8q55 326 200.5 549t305.5 223q166 0 225 -174l-41 -21q-49 143 -184 144q-113 0 -220.5 -132.5t-177 -334t-86.5 -414.5l-2 -145h-145z" glyph-name="r" horiz-adv-x="997" unicode="r"/><glyph d="M47 215l45 14q98 -211 346 -211q111 0 178.5 55.5t67.5 145.5q0 96 -60.5 150.5t-191.5 107.5q-147 53 -228 122t-81 198q0 119 92 193.5t238 74.5q121 0 216 -67.5t126 -176.5l-43 -18q-76 211 -303 211q-190 0 -191 -174q0 -84 55.5 -130t165.5 -85q74 -29 125 -54.5 t107.5 -67.5t86 -101.5t29.5 -135.5q0 -135 -106.5 -218t-280.5 -83q-137 0 -241.5 66.5t-151.5 183.5z" glyph-name="s" horiz-adv-x="905" unicode="s"/><glyph d="M70 993l-4 51h2q115 0 175 80t83 244l36 -4v-320h392v-51h-394v-749q0 -96 33 -151.5t86 -55.5q100 0 174 153l41 -22q-109 -207 -264 -207q-219 0 -219 277v755h-141z" glyph-name="t" horiz-adv-x="712" unicode="t"/><glyph d="M121 416v631h147v-625q0 -367 260 -367q98 0 180.5 88t126.5 208t67.5 223.5t23.5 156.5v316h147v-1063h-147v403l26 170h-8q-27 -111 -64.5 -206t-94 -188t-138.5 -146.5t-180 -53.5q-346 0 -346 453z" glyph-name="u" horiz-adv-x="1234" unicode="u"/><glyph d="M477 -35l-457 1082h158l397 -928q285 377 285 598q0 145 -84 214.5t-260 69.5v48q199 0 293 -81t94 -255q0 -100 -54 -228.5t-111.5 -216.5t-155.5 -221l-58 -82h-47z" glyph-name="v" horiz-adv-x="964" unicode="v"/><glyph d="M465 -35l-445 1082h158l389 -932q236 346 224 626q-2 63 -39 148l-68 158h201l370 -928q285 381 285 598q0 285 -307 284l-2 48q352 0 352 -336q0 -98 -51 -221t-106.5 -209t-149.5 -215l-68 -101h-51l-328 809l5 -33q8 -168 -67 -353t-194 -349l-2 2l-57 -78h-49z" glyph-name="w" horiz-adv-x="1644" unicode="w"/><glyph d="M76 -10h-64l439 518l-377 539h178l317 -447l344 444h62l-377 -483l412 -577l-195 2l-336 481z" glyph-name="x" horiz-adv-x="1021" unicode="x"/><glyph d="M20 -336l41 10q10 -47 48 -73.5t94 -24.5q96 2 196.5 104.5t233.5 292.5l-453 1074h158l397 -928q285 377 285 598q0 145 -84 214.5t-260 69.5v48q199 0 293 -81t94 -255q0 -78 -24.5 -158t-86 -185.5t-93.5 -151.5t-118 -171l-57 -82q-68 -98 -115 -159.5t-113.5 -133 t-130 -107.5t-124.5 -36q-72 0 -122.5 37t-58.5 98z" glyph-name="y" horiz-adv-x="1124" unicode="y"/><glyph d="M836 -16h-811v26l657 983l-571 2v52h766v-29l-654 -983h613v-51z" glyph-name="z" horiz-adv-x="899" unicode="z"/><glyph d="M31 528q-16 0 -23.5 12.5t-0.5 26t24 13.5q197 0 196 155q0 84 -35.5 258t-35.5 260q0 164 101 239t325 75h94v-51h-94q-201 0 -292 -60.5t-91 -193.5q0 -102 35.5 -265t35.5 -260q0 -141 -106 -182q106 -51 106 -184q0 -96 -35.5 -259t-35.5 -266q0 -133 91 -193.5 t292 -60.5h94v-51h-94q-223 0 -324.5 75t-101.5 239q0 86 35.5 260t35.5 258q1 155 -196 155z" glyph-name="braceleft" horiz-adv-x="698" unicode="{"/><glyph d="M248 -379h-49v1911h49v-1911z" glyph-name="bar" horiz-adv-x="446" unicode="|"/><glyph d="M668 528q-197 0 -197 -155q0 -84 36 -258t36 -260q0 -164 -101.5 -239t-324.5 -75h-94v51h94q201 0 292 60.5t91 193.5q0 102 -36 265t-36 260q0 133 107 184q-106 41 -107 182q0 96 36 259t36 266q0 133 -91.5 193.5t-291.5 60.5h-94v51h94q223 0 324.5 -75t101.5 -239 q0 -86 -36 -260t-36 -258q0 -156 197 -155q16 0 23 -13.5t0 -26t-23 -12.5z" glyph-name="braceright" horiz-adv-x="698" unicode="}"/><glyph d="M100 565q35 84 105.5 134.5t146.5 48.5q59 -2 179 -54.5t186 -54.5q80 -2 112 90q8 27 32 19.5t18 -33.5v-2q-37 -92 -102.5 -139.5t-149.5 -43.5q-55 2 -178 53.5t-187 53.5q-41 2 -65.5 -18.5t-46.5 -71.5q-6 -16 -21.5 -17.5t-25 9t-3.5 26.5z" glyph-name="asciitilde" horiz-adv-x="976" unicode="~"/><glyph d="M205 950q0 47 33.5 82t78.5 35q47 0 80 -34t33 -83q0 -47 -32.5 -80.5t-80.5 -33.5q-49 0 -80.5 32.5t-31.5 81.5zM186 -156q0 137 55.5 422t55.5 482h43q0 -197 55.5 -481.5t55.5 -422.5q0 -127 -41 -197.5t-95 -68.5q-53 4 -91 73.5t-38 192.5z" glyph-name="exclamdown" horiz-adv-x="710" unicode="¡"/><glyph d="M1159 485l43 -16q-96 -256 -231 -378t-328 -128v-328h-49v328q-219 10 -368.5 163t-149.5 370q0 225 148.5 386.5t369.5 180.5v287h49v-285q131 0 237.5 -67.5t149.5 -178.5l-37 -26q-39 100 -132 158.5t-218 62.5v-963h25q337 0 491 434zM233 571q0 -199 101.5 -341 t259.5 -173v955q-162 -16 -261.5 -136.5t-99.5 -304.5z" glyph-name="cent" horiz-adv-x="1198" unicode="¢"/><glyph d="M121 -10l-41 16l2 4q39 78 111.5 160t129 137t100.5 134t44 163q0 49 -21 107h-225v51h205q-4 8 -36 71.5t-42 91t-24.5 86t-14.5 113.5q0 137 141.5 243t319.5 101q166 -4 295 -98t174 -244l-41 -16q-35 119 -146.5 212t-287.5 95h-25q-135 -4 -214 -67.5t-79 -171.5 q0 -98 69 -233.5t83 -182.5h285v-51h-273q8 -39 8 -95q0 -51 -15 -95t-52 -88t-63.5 -68.5t-88 -73.5t-84.5 -70q37 10 70 10q66 0 214.5 -59t285.5 -59q317 0 436 362l43 -16q-37 -102 -77 -180t-98.5 -159t-136 -126t-169.5 -45q-88 0 -163 35.5t-119 80t-101.5 80 t-114.5 35.5q-137 0 -248 -157z" glyph-name="sterling" horiz-adv-x="1443" unicode="£"/><glyph d="M199 399l63 56q-61 72 -61 170q0 96 57 166l-59 53q-12 8 -9 22.5t13 19.5t24 -3l66 -58q72 61 168 61.5t168 -65.5l69 62q12 10 24.5 4t13.5 -19.5t-9 -23.5l-65 -60q53 -74 53 -159q0 -94 -58 -164l70 -62q12 -8 9 -22.5t-13 -19.5t-25 3l-73 66q-74 -63 -164 -64 q-92 0 -164 60l-70 -62q-12 -10 -24.5 -4t-13 19.5t9.5 23.5zM244 625q0 -86 64.5 -148.5t152.5 -62.5q86 0 149.5 63.5t63.5 147.5q0 86 -63.5 148.5t-149.5 62.5q-88 0 -152.5 -62.5t-64.5 -148.5z" glyph-name="currency" horiz-adv-x="925" unicode="¤"/><glyph d="M1006 481h-680v51h680v-51zM1006 297h-680v51h680v-51z" glyph-name="yen" horiz-adv-x="1337" unicode="¥"/><glyph d="M242 809h-43v707h43v-707zM242 -362h-43v651h43v-651z" glyph-name="brokenbar" horiz-adv-x="440" unicode="¦"/><glyph d="M70 907q0 238 132 399.5t328 161.5q39 0 79 -9t88 -47t69 -101l-41 -21q-12 57 -66.5 92t-128.5 35q-182 0 -182 -172q0 -51 30 -107.5t59.5 -90t95 -98t85.5 -87.5q109 -113 161 -211t52 -237q0 -131 -53 -255t-160.5 -211t-244.5 -89q-68 0 -142.5 34.5t-111.5 116.5 l37 27v4q18 -57 78.5 -93t138.5 -36q180 0 180 174q0 16 -4 34.5t-9 35t-16.5 38t-19.5 36t-26.5 39t-29 37.5t-34 41t-33.5 40t-37 42t-37 42q-6 6 -38.5 45t-43 50.5t-38 47t-39 54t-31 52.5t-26.5 60.5t-14 60t-7 66.5zM147 1053q0 -45 17.5 -94.5t55.5 -107.5t63.5 -94 t77 -98.5t61.5 -76.5q20 -27 67.5 -86.5t66.5 -84t51 -72.5t45.5 -78t24.5 -72t11 -80q0 -14 -2 -23q66 106 66 200.5t-75 229.5t-190 250q-276 283 -276 459q0 12 2 18q-66 -102 -66 -190z" glyph-name="section" horiz-adv-x="911" unicode="§"/><glyph d="M145 1239q-39 0 -67.5 27.5t-28.5 68.5t27.5 68t68.5 27t69 -28t28 -67q0 -41 -29 -68.5t-68 -27.5zM420 1335q0 41 27.5 68t68.5 27q39 0 66.5 -28t27.5 -67q0 -41 -27.5 -68.5t-66.5 -27.5q-41 0 -68.5 27.5t-27.5 68.5z" glyph-name="dieresis" horiz-adv-x="653" unicode="¨"/><glyph d="M80 713q0 307 217 524t522 217q303 0 520 -218t217 -523q0 -307 -216 -525.5t-521 -218.5t-522 218.5t-217 525.5zM123 712.5q0 -284.5 204.5 -488.5t491.5 -204t489.5 203t202.5 490q0 285 -203.5 487.5t-488.5 202.5q-287 0 -491.5 -203t-204.5 -487.5zM385 702 q0 195 137 329t330 128q100 -4 182 -52t121 -130l-35 -29q-80 156 -293 160q-141 -4 -223 -96t-82 -250q0 -176 95.5 -291t240.5 -115q268 0 381 336l43 -14q-76 -207 -187.5 -304.5t-273.5 -97.5q-182 0 -309 123t-127 303z" glyph-name="copyright" horiz-adv-x="1636" unicode="©"/><glyph d="M20 1188l-2 -2q102 297 321.5 297t250.5 -178l65 -404h-129l-34 215q-33 -92 -103 -152.5t-149 -62.5q-78 0 -123 39t-45 107q0 98 110.5 163.5t280.5 69.5l-4 25q-23 127 -127 127q-59 0 -105.5 -23t-79 -68t-51 -80.5t-41.5 -91.5zM205 1059q0 -41 20.5 -66.5 t53.5 -25.5q61 0 115.5 79.5t76.5 182.5q-266 0 -266 -170zM643 795h-547v51h547v-51z" glyph-name="ordfeminine" horiz-adv-x="768" unicode="ª"/><glyph d="M109 473h-3q-14 4 -13 22.5t13 22.5h3v4l4 -2q332 125 424 404q10 23 28.5 14.5t12.5 -31.5q-94 -285 -398 -413q307 -131 398 -410q6 -23 -12.5 -32t-28.5 14q-88 276 -420 403l-8 -2v6zM512 473h-2q-14 4 -13 22.5t13 22.5h2v4l4 -2q332 125 424 404q10 23 28.5 14.5 t12.5 -31.5q-94 -285 -397 -413q307 -131 397 -410q6 -23 -12.5 -32t-28.5 14q-88 276 -420 403l-8 -2v6z" glyph-name="guillemotleft" horiz-adv-x="1116" unicode="«"/><glyph d="M889 618v-2q18 -6 18 -32v-400q0 -18 -11 -25t-21.5 0t-10.5 25v383h-792q-27 0 -26 25.5t26 25.5h817z" glyph-name="logicalnot" horiz-adv-x="954" unicode="¬"/><glyph d="M797 547h-750v51h750v-51z" glyph-name="uni00AD" horiz-adv-x="843" unicode="­"/><glyph d="M76 969q0 207 146.5 354t353 147t353 -147t146.5 -354q0 -209 -146.5 -357.5t-353 -148.5t-353 148.5t-146.5 357.5zM119 969q0 -186 135 -320.5t321 -134.5q188 0 322.5 134t134.5 321q0 184 -135 317t-321.5 133t-321.5 -133t-135 -317zM465 680h-80v614h180 q240 0 240 -155q0 -59 -42 -100.5t-114 -55.5l168 -303h-94l-164 295h-96zM463 1163v-137h112q139 0 140 113q0 55 -35 80.5t-113 25.5h-100q-4 -29 -4 -82z" glyph-name="registered" horiz-adv-x="1150" unicode="®"/><glyph d="M575 1317h-501v51h501v-51z" glyph-name="macron" horiz-adv-x="811" unicode="¯"/><glyph d="M358.5 893q-116.5 0 -199.5 85t-83 203.5t83 203.5t199.5 85t200.5 -85t84 -203.5t-84 -203.5t-200.5 -85zM117 1181.5q0 -96.5 72.5 -168t168.5 -71.5q98 0 171 71.5t73 168t-72.5 168t-171.5 71.5q-96 0 -168.5 -71.5t-72.5 -168z" glyph-name="degree" horiz-adv-x="718" unicode="°"/><glyph d="M23 799l-5 51q0 49 16.5 87t55.5 67.5t67.5 45t86.5 42.5q59 27 93 47t75 54t59 81t18 108q0 106 -36.5 153.5t-120.5 51.5q-182 0 -209 -164l-35 9q10 90 79 146t165 52q135 -6 217 -69.5t82 -159.5q0 -66 -29 -119t-87 -94t-107.5 -65.5t-122.5 -57.5q-16 -6 -25 -10 q-92 -43 -133 -72q20 4 35 4q49 0 149.5 -24.5t147.5 -24.5q35 0 57.5 3t58 17.5t59 50t36.5 93.5l30 -6v-2q0 -125 -76.5 -205t-172.5 -80q-74 0 -158 67.5t-131 67.5q-109 0 -109 -145h-30z" glyph-name="uni00B2" horiz-adv-x="722" unicode="²"/><glyph d="M29 1008l37 14q51 -156 235 -156q209 0 209 205q0 190 -246 191v41q117 0 157 30.5t40 116.5q0 137 -146 137q-78 -4 -127 -46t-59 -116l-35 7q10 84 68.5 137t150.5 61q121 4 199 -46t78 -130q0 -127 -135 -170q190 -45 190 -217q0 -109 -96 -176.5t-248 -67.5 q-98 0 -171.5 50.5t-100.5 134.5z" glyph-name="uni00B3" horiz-adv-x="663" unicode="³"/><glyph d="M219 1180l-20 32q41 45 95 112t83 99.5t64.5 59t66.5 26.5q27 0 41 -18t12 -49q-2 -18 -23.5 -43t-61.5 -53.5t-75.5 -52t-93 -58.5t-88.5 -55z" glyph-name="acute" horiz-adv-x="724" unicode="´"/><glyph d="M342 1450h489v-1210q0 -299 -134 -444.5t-410 -145.5q-82 0 -147.5 41t-92.5 110l39 21q16 -49 73.5 -85t121.5 -36q37 0 63.5 8t41.5 29.5t25.5 37t14.5 54.5t5 55.5t0 64.5t-1 60v643h-88q-178 0 -295 114t-117 288q0 170 118 282.5t294 112.5zM680 125v1274h-98v-1313 q0 -150 -15.5 -228.5t-66.5 -125.5q180 84 180 393z" glyph-name="paragraph" horiz-adv-x="993" unicode="¶"/><glyph d="M41 641q0 41 27.5 68.5t68.5 27.5q39 0 66.5 -28.5t27.5 -67.5q0 -41 -27.5 -68.5t-66.5 -27.5t-67.5 28.5t-28.5 67.5z" glyph-name="periodcentered" horiz-adv-x="552" unicode="·"/><glyph d="M262 -334q-8 29 14 35q12 4 21 -14q10 -23 47 -38.5t82 -15.5q100 0 100 80q4 78 -182 86l119 217h51l-68 -125q88 -12 137.5 -53t49.5 -102q0 -66 -60.5 -110t-148.5 -44q-53 0 -100.5 24.5t-61.5 59.5z" glyph-name="cedilla" horiz-adv-x="1148" unicode="¸"/><glyph d="M16 1442l-16 39l229 147q12 8 20.5 5t8.5 -17v-596q0 -102 14.5 -125t75.5 -25v-41q-41 0 -72.5 2.5t-39.5 2.5h-80q-8 0 -40 -2.5t-73 -2.5v41q61 2 76.5 27t15.5 123v498z" glyph-name="uni00B9" horiz-adv-x="387" unicode="¹"/><glyph d="M317 901q-131 0 -215 79t-84 202q0 127 93.5 215t228.5 88q131 0 212 -79t81 -206t-91.5 -213t-224.5 -86zM342 952q70 0 112 54.5t42 144.5q0 117 -57.5 201t-133.5 80q-70 -2 -109.5 -55.5t-39.5 -143.5q0 -117 53 -199t133 -82zM602 795h-547v51h547v-51z" glyph-name="ordmasculine" horiz-adv-x="651" unicode="º"/><glyph d="M606 473h-2v-6l-8 2q-332 -127 -420 -403q-10 -23 -28.5 -14t-12.5 32q90 279 397 410q-303 129 -397 413q-6 23 12.5 31t28.5 -14q92 -279 424 -404l4 2v-4h2q12 -4 13 -22.5t-13 -22.5zM1010 473h-2v-6l-9 2q-332 -127 -419 -403q-10 -23 -29 -14t-12 32 q90 279 397 410q-303 129 -397 413q-6 23 12 31t29 -14q92 -279 424 -404l4 2v-4h2q12 -4 13 -22.5t-13 -22.5z" glyph-name="guillemotright" horiz-adv-x="1116" unicode="»"/><glyph d="M670 944q0 -49 -32 -82t-81 -33q-47 0 -80 34t-33 81q0 49 33 83t80 34q45 0 79 -35t34 -82zM618 317q29 -139 -65 -139h-170q-119 0 -189.5 -48t-70.5 -126q0 -123 80 -221t183 -144.5t196 -46.5v-51q-70 0 -153 30t-163 85t-133 147.5t-53 200.5q0 360 342 361h117v337 l43 3q-1 -198 36 -388z" glyph-name="questiondown" horiz-adv-x="851" unicode="¿"/><glyph d="M770 1622l-20 -33q-31 20 -88.5 55t-93.5 58.5t-75.5 52.5t-61 53.5t-23.5 42.5q-2 31 12 49.5t41 18.5q31 0 66.5 -26.5t64.5 -59.5t83 -99.5t95 -111.5zM25 -16h-52l605 1263l-60 139q-4 6 -2 16.5t10 12.5q82 29 105 70q12 8 22 -2l631 -1499h-172l-194 458h-674z M600 1192l-332 -698h629z" glyph-name="Agrave" horiz-adv-x="1257" unicode="À"/><glyph d="M498 1589l-21 33q41 45 95.5 111.5t83 99.5t64.5 59.5t66 26.5q27 0 41.5 -18.5t12.5 -49.5q-2 -18 -23.5 -42.5t-61.5 -53.5t-76 -52.5t-93 -58.5t-88 -55zM25 -16h-52l605 1263l-60 139q-4 6 -2 16.5t10 12.5q82 29 105 70q12 8 22 -2l631 -1499h-172l-194 458h-674z M600 1192l-332 -698h629z" glyph-name="Aacute" horiz-adv-x="1257" unicode="Á"/><glyph d="M334 1626q158 145 244 281h92q86 -135 243 -281q8 -8 6.5 -18.5t-9 -14.5t-17.5 0h2q-147 66 -272 181q-121 -115 -271 -181q-14 -8 -22 6.5t4 26.5zM25 -16h-52l605 1263l-60 139q-4 6 -2 16.5t10 12.5q82 29 105 70q12 8 22 -2l631 -1499h-172l-194 458h-674zM600 1192 l-332 -698h629z" glyph-name="Acircumflex" horiz-adv-x="1257" unicode="Â"/><glyph d="M301 1694q27 76 83 122t118 44q47 -2 142 -49.5t147 -49.5q63 -2 90 82q4 16 15 18.5t18.5 -7t5.5 -23.5v-2q-61 -174 -201 -168q-43 2 -141.5 49t-147.5 49q-33 2 -52.5 -16.5t-37.5 -65.5q-6 -14 -17.5 -16t-18.5 8.5t-3 24.5zM25 -16h-52l605 1263l-60 139 q-4 6 -2 16.5t10 12.5q82 29 105 70q12 8 22 -2l631 -1499h-172l-194 458h-674zM600 1192l-332 -698h629z" glyph-name="Atilde" horiz-adv-x="1257" unicode="Ã"/><glyph d="M442 1649q-41 0 -68.5 27.5t-27.5 68.5t27.5 67.5t68.5 26.5t69 -27.5t28 -66.5q0 -41 -28 -68.5t-69 -27.5zM717 1745q0 41 27.5 67.5t68.5 26.5q39 0 66.5 -27.5t27.5 -66.5q0 -41 -27.5 -68.5t-66.5 -27.5t-67.5 27.5t-28.5 68.5zM25 -16h-52l605 1263l-60 139 q-4 6 -2 16.5t10 12.5q82 29 105 70q12 8 22 -2l631 -1499h-172l-194 458h-674zM600 1192l-332 -698h629z" glyph-name="Adieresis" horiz-adv-x="1257" unicode="Ä"/><glyph d="M627 1599q-66 0 -113 46.5t-47 112t47 112.5t113 47q63 0 108 -47t45 -112.5t-45 -112t-108 -46.5zM512 1757q0 -47 31.5 -76.5t83.5 -29.5q47 0 78.5 30.5t31.5 75.5t-31.5 77t-78.5 32q-49 0 -82 -31t-33 -78zM25 -16h-52l605 1263l-60 139q-4 6 -2 16.5t10 12.5 q82 29 105 70q12 8 22 -2l631 -1499h-172l-194 458h-674zM600 1192l-332 -698h629z" glyph-name="Aring" horiz-adv-x="1257" unicode="Å"/><glyph d="M-20 12l903 1243l-35 195h872v-51h-702l100 -568h465v-51h-457l131 -745h746v-51h-897l-80 458h-678l-328 -450q-16 -29 -38 -12q-16 12 -2 32zM893 1192l-508 -698h313h318z" glyph-name="AE" horiz-adv-x="2033" unicode="Æ"/><glyph d="M1475 504l38 -25q-186 -489 -643 -514l-39 -74q88 -12 137.5 -53t49.5 -102q0 -66 -60.5 -110t-148.5 -44q-53 0 -100 24.5t-62 59.5q-8 29 15 35q12 4 20 -14q10 -23 47 -38.5t82 -15.5q100 0 100 80q4 78 -182 86l90 164h-2q-326 0 -531.5 204t-205.5 525 q0 338 224 561.5t556 214.5q193 -6 327 -96t179 -246l-41 -16q-104 303 -494 307q-258 2 -412.5 -178t-154.5 -481q0 -324 169 -518.5t454 -194.5q412 0 588 459z" glyph-name="Ccedilla" horiz-adv-x="1505" unicode="Ç"/><glyph d="M764 1616l-21 -33q-31 20 -88 55t-93 58.5t-76 52.5t-61.5 53.5t-23.5 42.5q-2 31 12.5 49.5t41.5 18.5q31 0 66.5 -26.5t64 -59.5t83 -99.5t95.5 -111.5zM322 780v-745h745v-51h-905v1466h868v-51h-708v-568h462v-51h-462z" glyph-name="Egrave" horiz-adv-x="1097" unicode="È"/><glyph d="M834 1845q-2 -18 -24 -42.5t-61.5 -53.5t-75.5 -52.5t-93.5 -58t-87.5 -55.5l-21 33q41 45 95.5 111.5t83 99.5t64.5 59.5t66 26.5q27 0 41.5 -18.5t12.5 -49.5zM322 780v-745h745v-51h-905v1466h868v-51h-708v-568h462v-51h-462z" glyph-name="Eacute" horiz-adv-x="1097" unicode="É"/><glyph d="M346 1587q-14 -8 -22.5 6.5t4.5 26.5q158 145 243 281h93q86 -135 243 -281q8 -8 6 -18.5t-9 -14.5t-17 0h2q-147 66 -273 180q-120 -114 -270 -180zM322 780v-745h745v-51h-905v1466h868v-51h-708v-568h462v-51h-462z" glyph-name="Ecircumflex" horiz-adv-x="1097" unicode="Ê"/><glyph d="M436 1642q-39 0 -67.5 29t-28.5 68q0 41 27.5 67.5t68.5 26.5t68.5 -27.5t27.5 -66.5t-28.5 -68t-67.5 -29zM807 1642q-41 0 -68.5 29t-27.5 68q0 41 27.5 67.5t68.5 26.5q39 0 66.5 -27.5t27.5 -66.5q0 -41 -27.5 -69t-66.5 -28zM322 780v-745h745v-51h-905v1466h868 v-51h-708v-568h462v-51h-462z" glyph-name="Edieresis" horiz-adv-x="1097" unicode="Ë"/><glyph d="M389 1616l-20 -33q-31 20 -88.5 55t-93 58.5t-75.5 52.5t-61.5 53.5t-23.5 42.5q-2 31 12 49.5t41 18.5q31 0 66.5 -26.5t64.5 -59.5t83 -99.5t95 -111.5zM324 -16h-162v1466h162v-1466z" glyph-name="Igrave" horiz-adv-x="485" unicode="Ì"/><glyph d="M117 1583l-21 33q41 45 95.5 111.5t83 99.5t64.5 59.5t67 26.5q27 0 41 -18.5t12 -49.5q-2 -18 -23.5 -42.5t-61.5 -53.5t-76 -52.5t-93 -58.5t-88 -55zM324 -16h-162v1466h162v-1466z" glyph-name="Iacute" horiz-adv-x="485" unicode="Í"/><glyph d="M-47 1620q158 145 244 281h92q86 -135 243 -281q8 -8 6.5 -18.5t-9 -14.5t-17.5 0h2q-147 66 -272 180q-121 -115 -271 -180q-14 -8 -22 6.5t4 26.5zM324 -16h-162v1466h162v-1466z" glyph-name="Icircumflex" horiz-adv-x="485" unicode="Î"/><glyph d="M61 1642q-41 0 -68.5 29t-27.5 68q0 41 27.5 67.5t68.5 26.5t69 -27.5t28 -66.5t-28 -68t-69 -29zM336 1739q0 41 27.5 67.5t68.5 26.5q39 0 66.5 -27.5t27.5 -66.5q0 -41 -27.5 -69t-66.5 -28t-67.5 29t-28.5 68zM324 -16h-162v1466h162v-1466z" glyph-name="Idieresis" horiz-adv-x="485" unicode="Ï"/><glyph d="M162 1450h424q432 0 672.5 -192.5t240.5 -540.5q0 -346 -240.5 -539.5t-672.5 -193.5h-424v706h-170v49h170v711zM344 35h256q342 0 528.5 178t186.5 504q0 315 -196.5 498.5t-534.5 183.5h-246q-14 -96 -14 -299v-361h192v-49h-192v-354q0 -180 20 -301z" glyph-name="Eth" horiz-adv-x="1579" unicode="Ð"/><glyph d="M434 1688q27 76 83 121.5t118 43.5q47 -2 142 -49t147 -49q63 -2 90 82q4 16 15 18.5t18.5 -7t5.5 -23.5v-2q-61 -174 -201 -168q-43 2 -141.5 49t-147.5 49q-33 2 -52 -16.5t-38 -65.5q-6 -14 -17.5 -16t-18.5 8.5t-3 24.5zM207 -14h-45v1464h84l1040 -1206v1206h43 v-1448q0 -18 -13 -22.5t-26 10.5l-1083 1259v-1263z" glyph-name="Ntilde" horiz-adv-x="1490" unicode="Ñ"/><glyph d="M989 1616l-20 -33q-31 20 -88.5 55t-93 58.5t-75.5 52.5t-61.5 53.5t-23.5 42.5q-2 31 12 49.5t41 18.5q31 0 66.5 -26.5t64.5 -59.5t83 -99.5t95 -111.5zM819 -41q-324 0 -531.5 211t-207.5 539q0 326 226 545t562 219q324 0 532 -211t208 -539q0 -319 -229.5 -541.5 t-559.5 -222.5zM225 815q0 -309 193.5 -548.5t476.5 -239.5q242 0 404.5 170t162.5 421q0 195 -83 375.5t-239.5 297t-348.5 116.5q-246 0 -406 -167t-160 -425z" glyph-name="Ograve" horiz-adv-x="1687" unicode="Ò"/><glyph d="M717 1583l-21 33q41 45 95.5 111.5t83 99.5t64.5 59.5t67 26.5q27 0 41 -18.5t12 -49.5q-2 -18 -23.5 -42.5t-61.5 -53.5t-76 -52.5t-93 -58.5t-88 -55zM819 -41q-324 0 -531.5 211t-207.5 539q0 326 226 545t562 219q324 0 532 -211t208 -539q0 -319 -229.5 -541.5 t-559.5 -222.5zM225 815q0 -309 193.5 -548.5t476.5 -239.5q242 0 404.5 170t162.5 421q0 195 -83 375.5t-239.5 297t-348.5 116.5q-246 0 -406 -167t-160 -425z" glyph-name="Oacute" horiz-adv-x="1687" unicode="Ó"/><glyph d="M553 1620q158 145 244 281h92q86 -135 244 -281q8 -8 6 -18.5t-9.5 -14.5t-17.5 0h2q-147 66 -272 180q-121 -115 -271 -180q-14 -8 -22 6.5t4 26.5zM819 -41q-324 0 -531.5 211t-207.5 539q0 326 226 545t562 219q324 0 532 -211t208 -539q0 -319 -229.5 -541.5 t-559.5 -222.5zM225 815q0 -309 193.5 -548.5t476.5 -239.5q242 0 404.5 170t162.5 421q0 195 -83 375.5t-239.5 297t-348.5 116.5q-246 0 -406 -167t-160 -425z" glyph-name="Ocircumflex" horiz-adv-x="1687" unicode="Ô"/><glyph d="M520 1688q27 76 83 121.5t118 43.5q47 -2 142 -49t147 -49q63 -2 90 82q4 16 15 18.5t18.5 -7t5.5 -23.5v-2q-61 -174 -201 -168q-43 2 -141.5 49t-147.5 49q-33 2 -52 -16.5t-38 -65.5q-6 -14 -17.5 -16t-18.5 8.5t-3 24.5zM819 -41q-324 0 -531.5 211t-207.5 539 q0 326 226 545t562 219q324 0 532 -211t208 -539q0 -319 -229.5 -541.5t-559.5 -222.5zM225 815q0 -309 193.5 -548.5t476.5 -239.5q242 0 404.5 170t162.5 421q0 195 -83 375.5t-239.5 297t-348.5 116.5q-246 0 -406 -167t-160 -425z" glyph-name="Otilde" horiz-adv-x="1687" unicode="Õ"/><glyph d="M661.5 1642q-38.5 0 -67.5 29t-29 68q0 41 28 67.5t68.5 26.5t68.5 -27.5t28 -66.5t-29 -68t-67.5 -29zM936 1739q0 41 27.5 67.5t68.5 26.5q39 0 66.5 -27.5t27.5 -66.5q0 -41 -27.5 -69t-66.5 -28q-41 0 -68.5 29t-27.5 68zM819 -41q-324 0 -531.5 211t-207.5 539 q0 326 226 545t562 219q324 0 532 -211t208 -539q0 -319 -229.5 -541.5t-559.5 -222.5zM225 815q0 -309 193.5 -548.5t476.5 -239.5q242 0 404.5 170t162.5 421q0 195 -83 375.5t-239.5 297t-348.5 116.5q-246 0 -406 -167t-160 -425z" glyph-name="Odieresis" horiz-adv-x="1687" unicode="Ö"/><glyph d="M57 324l267 268l-267 266q-12 10 -9 24.5t13.5 18.5t24.5 -4l272 -272l271 272q12 10 24.5 4t13.5 -19.5t-10 -23.5l-266 -266l266 -268q10 -12 8.5 -25.5t-12 -18t-24.5 6.5l-271 272l-272 -272q-12 -10 -23.5 -6t-12.5 17.5t7 25.5z" glyph-name="multiply" horiz-adv-x="714" unicode="×"/><glyph d="M1417 1544l-127 -192q150 -98 234 -262t84 -367q0 -319 -229.5 -541.5t-559.5 -222.5q-215 0 -387 98l-137 -209l-37 29l135 205q-147 98 -230 261t-83 366q0 326 226 545t562 219q211 0 381 -97l131 199zM225 815q0 -174 66.5 -335t183.5 -275l699 1059 q-170 143 -383 143q-246 0 -406 -167t-160 -425zM895 27q242 0 404.5 170t162.5 421q0 170 -66.5 334t-185.5 279l-700 -1059q172 -145 385 -145z" glyph-name="Oslash" horiz-adv-x="1687" unicode="Ø"/><glyph d="M848 1616l-21 -33q-31 20 -88 55t-93 58.5t-76 52.5t-61.5 53.5t-23.5 42.5q-2 31 12.5 49.5t41.5 18.5q31 0 66.5 -26.5t64 -59.5t83 -99.5t95.5 -111.5zM121 600v850h162v-793q0 -109 9 -193.5t35.5 -171.5t72.5 -145.5t124 -94.5t183 -36q233 0 361 166t128 467v801 h43v-793q0 -90 -12.5 -175t-48 -182t-92 -169t-154.5 -119t-227 -47q-285 0 -434.5 162t-149.5 473z" glyph-name="Ugrave" horiz-adv-x="1359" unicode="Ù"/><glyph d="M575 1583l-20 33q41 45 95.5 111.5t83 99.5t64.5 59.5t66 26.5q27 0 41.5 -18.5t12.5 -49.5q-2 -18 -24 -42.5t-61.5 -53.5t-75.5 -52.5t-93.5 -58.5t-88.5 -55zM121 600v850h162v-793q0 -109 9 -193.5t35.5 -171.5t72.5 -145.5t124 -94.5t183 -36q233 0 361 166t128 467 v801h43v-793q0 -90 -12.5 -175t-48 -182t-92 -169t-154.5 -119t-227 -47q-285 0 -434.5 162t-149.5 473z" glyph-name="Uacute" horiz-adv-x="1359" unicode="Ú"/><glyph d="M412 1620q158 145 243 281h93q86 -135 243 -281q8 -8 6 -18.5t-9 -14.5t-17 0h2q-147 66 -273 180q-121 -115 -270 -180q-14 -8 -22 6.5t4 26.5zM121 600v850h162v-793q0 -109 9 -193.5t35.5 -171.5t72.5 -145.5t124 -94.5t183 -36q233 0 361 166t128 467v801h43v-793 q0 -90 -12.5 -175t-48 -182t-92 -169t-154.5 -119t-227 -47q-285 0 -434.5 162t-149.5 473z" glyph-name="Ucircumflex" horiz-adv-x="1359" unicode="Û"/><glyph d="M520 1642q-41 0 -68.5 29t-27.5 68q0 41 27.5 67.5t68.5 26.5t68.5 -27.5t27.5 -66.5t-27.5 -68t-68.5 -29zM795 1739q0 41 27.5 67.5t68.5 26.5q39 0 66.5 -27.5t27.5 -66.5q0 -41 -27.5 -69t-66.5 -28t-67.5 29t-28.5 68zM121 600v850h162v-793q0 -109 9 -193.5 t35.5 -171.5t72.5 -145.5t124 -94.5t183 -36q233 0 361 166t128 467v801h43v-793q0 -90 -12.5 -175t-48 -182t-92 -169t-154.5 -119t-227 -47q-285 0 -434.5 162t-149.5 473z" glyph-name="Udieresis" horiz-adv-x="1359" unicode="Ü"/><glyph d="M506 1583l-21 33q41 45 95.5 111.5t83 99.5t64.5 59.5t67 26.5q27 0 41 -18.5t12 -49.5q-2 -18 -23.5 -42.5t-61.5 -53.5t-76 -52.5t-93 -58.5t-88 -55zM545 641l-504 809h199l426 -690l491 690h60l-510 -711v-755h-162v657z" glyph-name="Yacute" horiz-adv-x="1296" unicode="Ý"/><glyph d="M324 -16h-162v1466h162v-264h276q307 0 470 -110.5t163 -321.5q0 -190 -156.5 -293t-447.5 -103h-305v-374zM324 1135v-725h256q229 0 346.5 88t117.5 258q0 184 -116.5 281.5t-339.5 97.5h-264z" glyph-name="Thorn" horiz-adv-x="1312" unicode="Þ"/><glyph d="M186 995h-131v52h131q4 225 140.5 360t359.5 135q137 -4 230.5 -80t93.5 -186q0 -66 -29 -122t-63.5 -91t-102 -71t-106.5 -50t-113 -41q55 -39 136 -88t140.5 -83t124 -83t105.5 -96t68.5 -113.5t27.5 -144.5q0 -141 -108.5 -234.5t-274.5 -93.5q-111 0 -190.5 60.5 t-110.5 169.5l39 22q59 -201 264 -201q223 0 223 260q0 168 -96 281t-412 332v43q184 59 255 128.5t71 196.5q0 106 -47 170t-129 64q-164 0 -256 -100.5t-92 -266.5v-1140h-148v1011z" glyph-name="germandbls" horiz-adv-x="1277" unicode="ß"/><glyph d="M702 1212l-20 -32q-31 20 -88 55t-93 58.5t-76 52t-61.5 53t-23.5 43.5q-2 31 12.5 49t40.5 18q31 0 67 -26.5t64.5 -59t82.5 -99.5t95 -112zM2 465l-43 14q49 135 104.5 234.5t132 183.5t179 127t229.5 43q145 0 244.5 -69.5t136.5 -272.5l133 -741h-149l-84 471 q-39 -201 -180.5 -348.5t-307.5 -147.5q-135 0 -220 70.5t-85 183.5q0 180 204 294t556 130l-18 88q-29 135 -95.5 212t-156.5 77q-115 0 -208 -42t-162 -122t-117 -171t-93 -214zM256 254q0 -88 60.5 -144.5t154.5 -56.5q145 0 265 165t124 368q-287 -8 -445.5 -94 t-158.5 -238z" glyph-name="agrave" horiz-adv-x="1163" unicode="à"/><glyph d="M430 1180l-20 32q41 45 95 112t82.5 99.5t64.5 59t67 26.5q27 0 41 -18t12 -49q-2 -18 -23.5 -43t-61.5 -53.5t-76 -52t-93 -58.5t-88 -55zM2 465l-43 14q49 135 104.5 234.5t132 183.5t179 127t229.5 43q145 0 244.5 -69.5t136.5 -272.5l133 -741h-149l-84 471 q-39 -201 -180.5 -348.5t-307.5 -147.5q-135 0 -220 70.5t-85 183.5q0 180 204 294t556 130l-18 88q-29 135 -95.5 212t-156.5 77q-115 0 -208 -42t-162 -122t-117 -171t-93 -214zM256 254q0 -88 60.5 -144.5t154.5 -56.5q145 0 265 165t124 368q-287 -8 -445.5 -94 t-158.5 -238z" glyph-name="aacute" horiz-adv-x="1163" unicode="á"/><glyph d="M266 1217q158 145 244 280h92q86 -135 244 -280q8 -8 6 -18.5t-9 -14.5t-18 0h2q-147 66 -272 180q-121 -115 -270 -180q-14 -8 -22.5 6.5t3.5 26.5zM2 465l-43 14q49 135 104.5 234.5t132 183.5t179 127t229.5 43q145 0 244.5 -69.5t136.5 -272.5l133 -741h-149l-84 471 q-39 -201 -180.5 -348.5t-307.5 -147.5q-135 0 -220 70.5t-85 183.5q0 180 204 294t556 130l-18 88q-29 135 -95.5 212t-156.5 77q-115 0 -208 -42t-162 -122t-117 -171t-93 -214zM256 254q0 -88 60.5 -144.5t154.5 -56.5q145 0 265 165t124 368q-287 -8 -445.5 -94 t-158.5 -238z" glyph-name="acircumflex" horiz-adv-x="1163" unicode="â"/><glyph d="M233 1284q27 76 83.5 122t117.5 44q47 -2 142.5 -49t146.5 -49q63 -2 90 82q4 16 15.5 18t18.5 -7t5 -24v-2q-61 -174 -201 -168q-43 2 -141 49.5t-148 49.5q-33 2 -52 -16.5t-38 -65.5q-6 -14 -17 -16.5t-18.5 8t-3.5 24.5zM2 465l-43 14q49 135 104.5 234.5t132 183.5 t179 127t229.5 43q145 0 244.5 -69.5t136.5 -272.5l133 -741h-149l-84 471q-39 -201 -180.5 -348.5t-307.5 -147.5q-135 0 -220 70.5t-85 183.5q0 180 204 294t556 130l-18 88q-29 135 -95.5 212t-156.5 77q-115 0 -208 -42t-162 -122t-117 -171t-93 -214zM256 254 q0 -88 60.5 -144.5t154.5 -56.5q145 0 265 165t124 368q-287 -8 -445.5 -94t-158.5 -238z" glyph-name="atilde" horiz-adv-x="1163" unicode="ã"/><glyph d="M375 1239q-39 0 -67.5 27.5t-28.5 68.5t27.5 68t68.5 27t68.5 -28t27.5 -67q0 -41 -28.5 -68.5t-67.5 -27.5zM649 1335q0 41 28 68t68 27q39 0 67 -28t28 -67q0 -41 -28 -68.5t-67 -27.5q-41 0 -68.5 27.5t-27.5 68.5zM2 465l-43 14q49 135 104.5 234.5t132 183.5 t179 127t229.5 43q145 0 244.5 -69.5t136.5 -272.5l133 -741h-149l-84 471q-39 -201 -180.5 -348.5t-307.5 -147.5q-135 0 -220 70.5t-85 183.5q0 180 204 294t556 130l-18 88q-29 135 -95.5 212t-156.5 77q-115 0 -208 -42t-162 -122t-117 -171t-93 -214zM256 254 q0 -88 60.5 -144.5t154.5 -56.5q145 0 265 165t124 368q-287 -8 -445.5 -94t-158.5 -238z" glyph-name="adieresis" horiz-adv-x="1163" unicode="ä"/><glyph d="M559 1190q-66 0 -113 46t-47 111.5t47.5 112.5t112.5 47q63 0 108.5 -47t45.5 -112.5t-45.5 -111.5t-108.5 -46zM444 1347.5q0 -47.5 32 -77t83 -29.5q47 0 79 31t32 76t-32 76.5t-79 31.5q-49 0 -82 -30.5t-33 -78zM2 465l-43 14q49 135 104.5 234.5t132 183.5t179 127 t229.5 43q145 0 244.5 -69.5t136.5 -272.5l133 -741h-149l-84 471q-39 -201 -180.5 -348.5t-307.5 -147.5q-135 0 -220 70.5t-85 183.5q0 180 204 294t556 130l-18 88q-29 135 -95.5 212t-156.5 77q-115 0 -208 -42t-162 -122t-117 -171t-93 -214zM256 254 q0 -88 60.5 -144.5t154.5 -56.5q145 0 265 165t124 368q-287 -8 -445.5 -94t-158.5 -238z" glyph-name="aring" horiz-adv-x="1163" unicode="å"/><glyph d="M-39 485l-2 -2q57 139 110.5 232.5t129 180.5t176 129t227.5 42q133 0 226.5 -56.5t138.5 -217.5q78 125 208 198.5t281 73.5q172 0 295 -105.5t123 -254.5q0 -33 -12 -82h-824v-29q0 -229 123 -374.5t318 -145.5q338 0 475 407l41 -18q-84 -244 -232.5 -372t-349.5 -128 q-209 0 -356.5 133t-169.5 338l-4 21q-39 -201 -181.5 -348.5t-306.5 -147.5q-135 0 -220 70.5t-85 183.5q0 180 204 294t556 130l-19 88q-27 133 -94 211t-157 78q-115 0 -208 -42t-162 -122t-117 -171t-93 -214zM1044 674h582q76 0 76 76q0 127 -68.5 195.5t-197.5 68.5 q-125 0 -245 -90t-147 -250zM254 254q0 -88 60.5 -144.5t154.5 -56.5q145 0 265 165t124 368q-287 -8 -445.5 -94t-158.5 -238z" glyph-name="ae" horiz-adv-x="1990" unicode="æ"/><glyph d="M1159 485l43 -16q-96 -256 -232 -379t-331 -127l-39 -72q88 -12 137 -53t49 -102q0 -66 -60 -110t-148 -44q-53 0 -100.5 24.5t-61.5 59.5q-8 29 14 35q12 4 21 -14q10 -23 47 -38.5t82 -15.5q100 0 100 80q4 78 -182 86l90 164q-217 14 -364.5 166t-147.5 367 q0 240 165 404.5t402 164.5q131 0 237.5 -67.5t149.5 -178.5l-37 -26q-39 100 -134 159.5t-222 61.5q-178 0 -291 -123t-113 -320q0 -223 125 -371.5t310 -148.5q337 0 491 434z" glyph-name="ccedilla" horiz-adv-x="1198" unicode="ç"/><glyph d="M758 1212l-21 -32q-31 20 -88 55t-93 58.5t-76 52t-61.5 53t-23.5 43.5q-2 31 12.5 49t41.5 18q31 0 66.5 -26.5t64 -59t83 -99.5t95.5 -112zM76 501.5q0 231.5 169 397.5t404 166q172 0 294 -105.5t122 -254.5q0 -33 -12 -82h-822v-29q0 -229 123 -374.5t318 -145.5 q338 0 477 415l41 -18q-86 -246 -234.5 -377t-349.5 -131q-227 0 -378.5 153.5t-151.5 385zM238 674h579q76 0 76 76q0 127 -68.5 195.5t-195.5 68.5q-125 0 -244.5 -90t-146.5 -250z" glyph-name="egrave" horiz-adv-x="1185" unicode="è"/><glyph d="M485 1180l-20 32q41 45 95 112t83 99.5t64.5 59t66.5 26.5q27 0 41 -18t12 -49q-2 -18 -23.5 -43t-61.5 -53.5t-75.5 -52t-93 -58.5t-88.5 -55zM76 501.5q0 231.5 169 397.5t404 166q172 0 294 -105.5t122 -254.5q0 -33 -12 -82h-822v-29q0 -229 123 -374.5t318 -145.5 q338 0 477 415l41 -18q-86 -246 -234.5 -377t-349.5 -131q-227 0 -378.5 153.5t-151.5 385zM238 674h579q76 0 76 76q0 127 -68.5 195.5t-195.5 68.5q-125 0 -244.5 -90t-146.5 -250z" glyph-name="eacute" horiz-adv-x="1185" unicode="é"/><glyph d="M322 1217q158 145 243 280h92q86 -135 244 -280q8 -8 6 -18.5t-9 -14.5t-17 0h2q-147 66 -273 180q-121 -115 -270 -180q-14 -8 -22 6.5t4 26.5zM76 501.5q0 231.5 169 397.5t404 166q172 0 294 -105.5t122 -254.5q0 -33 -12 -82h-822v-29q0 -229 123 -374.5t318 -145.5 q338 0 477 415l41 -18q-86 -246 -234.5 -377t-349.5 -131q-227 0 -378.5 153.5t-151.5 385zM238 674h579q76 0 76 76q0 127 -68.5 195.5t-195.5 68.5q-125 0 -244.5 -90t-146.5 -250z" glyph-name="ecircumflex" horiz-adv-x="1185" unicode="ê"/><glyph d="M430 1239q-41 0 -68.5 27.5t-27.5 68.5t27.5 68t68.5 27t68.5 -28t27.5 -67q0 -41 -27.5 -68.5t-68.5 -27.5zM705 1335q0 41 27.5 68t68.5 27q39 0 66.5 -28t27.5 -67q0 -41 -27.5 -68.5t-66.5 -27.5t-67.5 27.5t-28.5 68.5zM76 501.5q0 231.5 169 397.5t404 166 q172 0 294 -105.5t122 -254.5q0 -33 -12 -82h-822v-29q0 -229 123 -374.5t318 -145.5q338 0 477 415l41 -18q-86 -246 -234.5 -377t-349.5 -131q-227 0 -378.5 153.5t-151.5 385zM238 674h579q76 0 76 76q0 127 -68.5 195.5t-195.5 68.5q-125 0 -244.5 -90t-146.5 -250z" glyph-name="edieresis" horiz-adv-x="1185" unicode="ë"/><glyph d="M420 1212l-21 -32q-31 20 -88 55t-93 58.5t-76 52t-61.5 53t-23.5 43.5q-2 31 12.5 49t41.5 18q31 0 66.5 -26.5t64 -59t83 -99.5t95.5 -112zM197 -16v1060h147v-1060h-147z" glyph-name="igrave" horiz-adv-x="540" unicode="ì"/><glyph d="M147 1180l-20 32q41 45 95 112t83 99.5t65 59t66 26.5q27 0 41.5 -18t11.5 -49q-2 -18 -23.5 -43t-61 -53.5t-75.5 -52t-93.5 -58.5t-88.5 -55zM197 -16v1060h147v-1060h-147z" glyph-name="iacute" horiz-adv-x="540" unicode="í"/><glyph d="M-16 1217q158 145 243 280h92q86 -135 244 -280q8 -8 6 -18.5t-9 -14.5t-17 0h2q-147 66 -273 180q-121 -115 -270 -180q-14 -8 -22 6.5t4 26.5zM197 -16v1060h147v-1060h-147z" glyph-name="icircumflex" horiz-adv-x="540" unicode="î"/><glyph d="M92 1239q-39 0 -67.5 27.5t-28.5 68.5t27.5 68t68.5 27t68.5 -28t27.5 -67q0 -41 -28.5 -68.5t-67.5 -27.5zM367 1335q0 41 27.5 68t68.5 27q39 0 66.5 -28t27.5 -67q0 -41 -27.5 -68.5t-66.5 -27.5q-41 0 -68.5 27.5t-27.5 68.5zM197 -16v1060h147v-1060h-147z" glyph-name="idieresis" horiz-adv-x="540" unicode="ï"/><glyph d="M76 508q0 240 161.5 403.5t397.5 163.5q193 0 313 -133q-86 248 -270 410l-186 -156l-31 37l180 151q-82 66 -197 121l15 47q117 -45 235 -125l131 111l29 -39l-119 -100q203 -152 328 -370t125 -464q0 -254 -166 -428t-407.5 -174t-390 150.5t-148.5 394.5zM246 555 q0 -240 111.5 -389.5t287.5 -149.5q166 0 271.5 127t105.5 330q0 141 -21 258q-39 143 -136 218t-234 75q-164 0 -274.5 -135t-110.5 -334z" glyph-name="eth" horiz-adv-x="1263" unicode="ð"/><glyph d="M352 1282q27 76 83.5 122t117.5 44q47 -2 142.5 -49t146.5 -49q63 -2 90 82q4 16 15 18t18.5 -7t5.5 -24v-2q-61 -174 -201 -168q-43 2 -141.5 49.5t-147.5 49.5q-33 2 -52 -16.5t-38 -65.5q-6 -14 -17.5 -16.5t-18.5 8t-3 24.5zM305 -16h-143v1063l147 -3v-380l-26 -379 h8q63 391 204.5 583.5t305.5 192.5q150 0 230.5 -105.5t127.5 -359.5l111 -612h-152l-114 639q-35 188 -95.5 275t-160.5 87q-152 0 -274 -236.5t-161 -609.5z" glyph-name="ntilde" horiz-adv-x="1351" unicode="ñ"/><glyph d="M782 1212l-20 -32q-31 20 -88.5 55t-93 58.5t-75.5 52t-61.5 53t-23.5 43.5q-2 31 12 49t41 18q31 0 66.5 -26.5t64.5 -59t83 -99.5t95 -112zM602 -43q-223 0 -374.5 150.5t-151.5 373.5q0 250 172 422t420 172q221 0 371.5 -153.5t150.5 -378.5q0 -252 -167 -419 t-421 -167zM199 604q0 -219 158.5 -395t355.5 -176q152 0 254 109.5t102 271.5q0 215 -150.5 397t-363.5 182q-152 0 -254 -111.5t-102 -277.5z" glyph-name="ograve" horiz-adv-x="1265" unicode="ò"/><glyph d="M510 1180l-21 32q41 45 95.5 112t83 99.5t64.5 59t67 26.5q27 0 41 -18t12 -49q-2 -18 -23.5 -43t-61.5 -53.5t-76 -52t-93 -58.5t-88 -55zM602 -43q-223 0 -374.5 150.5t-151.5 373.5q0 250 172 422t420 172q221 0 371.5 -153.5t150.5 -378.5q0 -252 -167 -419 t-421 -167zM199 604q0 -219 158.5 -395t355.5 -176q152 0 254 109.5t102 271.5q0 215 -150.5 397t-363.5 182q-152 0 -254 -111.5t-102 -277.5z" glyph-name="oacute" horiz-adv-x="1265" unicode="ó"/><glyph d="M346 1217q158 145 244 280h92q86 -135 244 -280q8 -8 6 -18.5t-9.5 -14.5t-17.5 0h2q-147 66 -272 180q-121 -115 -270 -180q-14 -8 -22.5 6.5t3.5 26.5zM602 -43q-223 0 -374.5 150.5t-151.5 373.5q0 250 172 422t420 172q221 0 371.5 -153.5t150.5 -378.5 q0 -252 -167 -419t-421 -167zM199 604q0 -219 158.5 -395t355.5 -176q152 0 254 109.5t102 271.5q0 215 -150.5 397t-363.5 182q-152 0 -254 -111.5t-102 -277.5z" glyph-name="ocircumflex" horiz-adv-x="1265" unicode="ô"/><glyph d="M313 1284q27 76 83.5 122t117.5 44q47 -2 142.5 -49t146.5 -49q63 -2 90 82q4 16 15.5 18t18.5 -7t5 -24v-2q-61 -174 -201 -168q-43 2 -141 49.5t-148 49.5q-33 2 -52 -16.5t-38 -65.5q-6 -14 -17 -16.5t-18.5 8t-3.5 24.5zM602 -43q-223 0 -374.5 150.5t-151.5 373.5 q0 250 172 422t420 172q221 0 371.5 -153.5t150.5 -378.5q0 -252 -167 -419t-421 -167zM199 604q0 -219 158.5 -395t355.5 -176q152 0 254 109.5t102 271.5q0 215 -150.5 397t-363.5 182q-152 0 -254 -111.5t-102 -277.5z" glyph-name="otilde" horiz-adv-x="1265" unicode="õ"/><glyph d="M455 1239q-41 0 -69 27.5t-28 68.5t28 68t69 27t68.5 -28t27.5 -67q0 -41 -27.5 -68.5t-68.5 -27.5zM729 1335q0 41 27.5 68t68.5 27q39 0 67 -28t28 -67q0 -41 -28 -68.5t-67 -27.5t-67.5 27.5t-28.5 68.5zM602 -43q-223 0 -374.5 150.5t-151.5 373.5q0 250 172 422 t420 172q221 0 371.5 -153.5t150.5 -378.5q0 -252 -167 -419t-421 -167zM199 604q0 -219 158.5 -395t355.5 -176q152 0 254 109.5t102 271.5q0 215 -150.5 397t-363.5 182q-152 0 -254 -111.5t-102 -277.5z" glyph-name="odieresis" horiz-adv-x="1265" unicode="ö"/><glyph d="M387 811q0 43 37 43q14 0 25.5 -13.5t11.5 -29.5t-11.5 -28.5t-25.5 -12.5t-25.5 12.5t-11.5 28.5zM797 567h-750v51h750v-51zM387 371q0 43 37 43q14 0 25.5 -13.5t11.5 -30t-11.5 -28.5t-25.5 -12t-25.5 12.5t-11.5 28.5z" glyph-name="divide" horiz-adv-x="843" unicode="÷"/><glyph d="M1208 1341l-237 -360q102 -72 160.5 -187.5t58.5 -250.5q0 -252 -167 -419t-421 -167q-145 0 -264 68l-252 -379l-37 28l248 375q-102 72 -161.5 184.5t-59.5 247.5q0 250 172 422t420 172q145 0 262 -69l241 366zM199 604q0 -115 50 -226.5t136 -195.5l463 701 q-133 111 -293 110q-152 0 -254 -111.5t-102 -277.5zM713 33q152 0 254 109.5t102 271.5q0 117 -50 233.5t-136 202.5l-463 -700q139 -117 293 -117z" glyph-name="oslash" horiz-adv-x="1265" unicode="ø"/><glyph d="M745 1212l-20 -32q-31 20 -88 55t-93 58.5t-76 52t-61.5 53t-23.5 43.5q-2 31 12.5 49t40.5 18q31 0 67 -26.5t64.5 -59t82.5 -99.5t95 -112zM121 416v631h147v-625q0 -367 260 -367q98 0 180.5 88t126.5 208t67.5 223.5t23.5 156.5v316h147v-1063h-147v403l26 170h-8 q-27 -111 -64.5 -206t-94 -188t-138.5 -146.5t-180 -53.5q-346 0 -346 453z" glyph-name="ugrave" horiz-adv-x="1234" unicode="ù"/><glyph d="M473 1180l-20 32q41 45 95 112t82.5 99.5t64.5 59t67 26.5q27 0 41 -18t12 -49q-2 -18 -23.5 -43t-61.5 -53.5t-76 -52t-93 -58.5t-88 -55zM121 416v631h147v-625q0 -367 260 -367q98 0 180.5 88t126.5 208t67.5 223.5t23.5 156.5v316h147v-1063h-147v403l26 170h-8 q-27 -111 -64.5 -206t-94 -188t-138.5 -146.5t-180 -53.5q-346 0 -346 453z" glyph-name="uacute" horiz-adv-x="1234" unicode="ú"/><glyph d="M309 1217q158 145 244 280h92q86 -135 244 -280q8 -8 6 -18.5t-9 -14.5t-18 0h2q-147 66 -272 180q-121 -115 -270 -180q-14 -8 -22.5 6.5t3.5 26.5zM121 416v631h147v-625q0 -367 260 -367q98 0 180.5 88t126.5 208t67.5 223.5t23.5 156.5v316h147v-1063h-147v403 l26 170h-8q-27 -111 -64.5 -206t-94 -188t-138.5 -146.5t-180 -53.5q-346 0 -346 453z" glyph-name="ucircumflex" horiz-adv-x="1234" unicode="û"/><glyph d="M418 1239q-41 0 -68.5 27.5t-27.5 68.5t27.5 68t68.5 27t68.5 -28t27.5 -67q0 -41 -27.5 -68.5t-68.5 -27.5zM692 1335q0 41 28 68t68 27q39 0 67 -28t28 -67q0 -41 -28 -68.5t-66.5 -27.5t-67.5 27.5t-29 68.5zM121 416v631h147v-625q0 -367 260 -367q98 0 180.5 88 t126.5 208t67.5 223.5t23.5 156.5v316h147v-1063h-147v403l26 170h-8q-27 -111 -64.5 -206t-94 -188t-138.5 -146.5t-180 -53.5q-346 0 -346 453z" glyph-name="udieresis" horiz-adv-x="1234" unicode="ü"/><glyph d="M514 1178l-20 32q41 45 95 112t82.5 99.5t64.5 59t67 26.5q27 0 41 -18.5t12 -48.5q-2 -18 -23.5 -43t-61.5 -53.5t-76 -52t-93 -58.5t-88 -55zM20 -336l41 10q10 -47 48 -73.5t94 -24.5q96 2 196.5 104.5t233.5 292.5l-453 1074h158l397 -928q285 377 285 598 q0 145 -84 214.5t-260 69.5v48q199 0 293 -81t94 -255q0 -78 -24.5 -158t-86 -185.5t-93.5 -151.5t-118 -171l-57 -82q-68 -98 -115 -159.5t-113.5 -133t-130 -107.5t-124.5 -36q-72 0 -122.5 37t-58.5 98z" glyph-name="yacute" horiz-adv-x="1124" unicode="ý"/><glyph d="M309 -528h-147v2080h147v-856h2l-24 -313h8q59 305 220 491.5t351 186.5q156 0 248 -135t94 -365q0 -176 -86 -316.5t-212 -211t-263 -70.5q-76 0 -148.5 19.5t-103 34t-86.5 42.5v-587zM309 117q61 -35 99 -52.5t100.5 -33t132.5 -15.5q188 0 292.5 125t104.5 348 q0 229 -61.5 355.5t-173.5 130.5q-125 6 -235.5 -106.5t-180.5 -313t-78 -438.5z" glyph-name="thorn" horiz-adv-x="1284" unicode="þ"/><glyph d="M459 1237q-41 0 -69 28.5t-28 67.5q0 41 28 67.5t69 26.5t68.5 -27.5t27.5 -66.5t-27.5 -67.5t-68.5 -28.5zM733 1333q0 41 27.5 67.5t68.5 26.5q39 0 67 -27.5t28 -66.5q0 -41 -28 -68.5t-66.5 -27.5t-67.5 28.5t-29 67.5zM20 -336l41 10q10 -47 48 -73.5t94 -24.5 q96 2 196.5 104.5t233.5 292.5l-453 1074h158l397 -928q285 377 285 598q0 145 -84 214.5t-260 69.5v48q199 0 293 -81t94 -255q0 -78 -24.5 -158t-86 -185.5t-93.5 -151.5t-118 -171l-57 -82q-68 -98 -115 -159.5t-113.5 -133t-130 -107.5t-124.5 -36q-72 0 -122.5 37 t-58.5 98z" glyph-name="ydieresis" horiz-adv-x="1124" unicode="ÿ"/><glyph d="M874 1726h-501v52h501v-52zM25 -16h-52l605 1263l-60 139q-4 6 -2 16.5t10 12.5q82 29 105 70q12 8 22 -2l631 -1499h-172l-194 458h-674zM600 1192l-332 -698h629z" glyph-name="Amacron" horiz-adv-x="1257" unicode="Ā"/><glyph d="M807 1317h-502v51h502v-51zM2 465l-43 14q49 135 104.5 234.5t132 183.5t179 127t229.5 43q145 0 244.5 -69.5t136.5 -272.5l133 -741h-149l-84 471q-39 -201 -180.5 -348.5t-307.5 -147.5q-135 0 -220 70.5t-85 183.5q0 180 204 294t556 130l-18 88q-29 135 -95.5 212 t-156.5 77q-115 0 -208 -42t-162 -122t-117 -171t-93 -214zM256 254q0 -88 60.5 -144.5t154.5 -56.5q145 0 265 165t124 368q-287 -8 -445.5 -94t-158.5 -238z" glyph-name="amacron" horiz-adv-x="1163" unicode="ā"/><glyph d="M354 1876q0 18 13.5 21.5t19.5 -13.5v-4q10 -70 77.5 -115t162.5 -45q90 0 155.5 41t79.5 107q2 33 21 30q14 -2 14 -22q2 -123 -71.5 -196.5t-198.5 -73.5t-200 74.5t-73 195.5zM25 -16h-52l605 1263l-60 139q-4 6 -2 16.5t10 12.5q82 29 105 70q12 8 22 -2l631 -1499 h-172l-194 458h-674zM600 1192l-332 -698h629z" glyph-name="Abreve" horiz-adv-x="1257" unicode="Ă"/><glyph d="M287 1466q0 18 13 21.5t19 -12.5v-5q10 -70 78 -114.5t162 -44.5q90 0 155.5 41t80.5 106q2 33 20 31q14 -2 14 -23q2 -123 -71.5 -196.5t-198.5 -73.5t-199.5 74.5t-72.5 195.5zM2 465l-43 14q49 135 104.5 234.5t132 183.5t179 127t229.5 43q145 0 244.5 -69.5 t136.5 -272.5l133 -741h-149l-84 471q-39 -201 -180.5 -348.5t-307.5 -147.5q-135 0 -220 70.5t-85 183.5q0 180 204 294t556 130l-18 88q-29 135 -95.5 212t-156.5 77q-115 0 -208 -42t-162 -122t-117 -171t-93 -214zM256 254q0 -88 60.5 -144.5t154.5 -56.5q145 0 265 165 t124 368q-287 -8 -445.5 -94t-158.5 -238z" glyph-name="abreve" horiz-adv-x="1163" unicode="ă"/><glyph d="M1358 -244q16 20 31.5 9t9.5 -27q-29 -43 -83 -71.5t-106 -28.5q-72 0 -114.5 39.5t-42.5 103.5q0 96 135 203h-76l-194 458h-674l-219 -458h-52l605 1263l-60 139q-4 6 -2 16.5t10 12.5q82 29 105 70q12 8 22 -2l621 -1473l10 -14q-2 0 -2 -1t-2 -1l4 -10h-18 q-106 -80 -107 -181q0 -43 26.5 -72.5t63.5 -29.5q56 0 109 55zM600 1192l-332 -698h629z" glyph-name="Aogonek" horiz-adv-x="1257" unicode="Ą"/><glyph d="M1176 -242q16 20 31.5 9t9.5 -27q-29 -43 -83.5 -71.5t-105.5 -28.5q-72 0 -115 39.5t-43 103.5q0 100 134 201h-35l-84 471q-39 -201 -180.5 -348.5t-307.5 -147.5q-135 0 -220 70.5t-85 183.5q0 180 204 294t556 130l-18 88q-29 135 -95.5 212t-156.5 77 q-115 0 -208 -42t-162 -122t-117 -171t-93 -214l-43 14q49 135 104.5 234.5t132 183.5t179 127t229.5 43q145 0 244.5 -69.5t136.5 -272.5l133 -741h-37q-104 -78 -104 -179q0 -43 26.5 -72.5t63.5 -29.5q56 0 109 55zM471 53q145 0 265 165t124 368q-287 -8 -445.5 -94 t-158.5 -238q0 -88 60.5 -144.5t154.5 -56.5z" glyph-name="aogonek" horiz-adv-x="1163" unicode="ą"/><glyph d="M715 1583l-21 33q41 45 95.5 111.5t83 99.5t64.5 59.5t67 26.5q27 0 41 -18.5t12 -49.5q-2 -18 -23.5 -42.5t-61.5 -53.5t-76 -52.5t-93 -58.5t-88 -55zM80 692q0 338 224 561.5t556 214.5q193 -6 327 -96t179 -246l-41 -16q-104 303 -494 307q-258 2 -412.5 -178 t-154.5 -481q0 -324 169 -518.5t454 -194.5q412 0 588 459l38 -25q-199 -516 -696 -516q-326 0 -531.5 203.5t-205.5 525.5z" glyph-name="Cacute" horiz-adv-x="1505" unicode="Ć"/><glyph d="M518 1180l-20 32q41 45 95 112t83 99.5t64.5 59t66.5 26.5q27 0 41 -18t12 -49q-2 -18 -23.5 -43t-61.5 -53.5t-75.5 -52t-93 -58.5t-88.5 -55zM76 496q0 240 165 404.5t402 164.5q131 0 237.5 -67.5t149.5 -178.5l-37 -26q-39 100 -134 159.5t-222 61.5 q-178 0 -291 -123t-113 -320q0 -223 125 -371.5t310 -148.5q338 0 491 434l43 -16q-98 -262 -238.5 -384t-340.5 -122q-229 0 -388 154t-159 379z" glyph-name="cacute" horiz-adv-x="1198" unicode="ć"/><glyph d="M745 1739q0 41 28 68.5t69 27.5q39 0 66.5 -28.5t27.5 -67.5q0 -41 -27.5 -69t-66.5 -28t-68 29t-29 68zM80 692q0 338 224 561.5t556 214.5q193 -6 327 -96t179 -246l-41 -16q-104 303 -494 307q-258 2 -412.5 -178t-154.5 -481q0 -324 169 -518.5t454 -194.5 q412 0 588 459l38 -25q-199 -516 -696 -516q-326 0 -531.5 203.5t-205.5 525.5z" glyph-name="Cdotaccent" horiz-adv-x="1505" unicode="Ċ"/><glyph d="M549 1335q0 41 27.5 69t68.5 28q39 0 66.5 -29t27.5 -68q0 -41 -27.5 -68.5t-66.5 -27.5t-67.5 27.5t-28.5 68.5zM76 496q0 240 165 404.5t402 164.5q131 0 237.5 -67.5t149.5 -178.5l-37 -26q-39 100 -134 159.5t-222 61.5q-178 0 -291 -123t-113 -320 q0 -223 125 -371.5t310 -148.5q338 0 491 434l43 -16q-98 -262 -238.5 -384t-340.5 -122q-229 0 -388 154t-159 379z" glyph-name="cdotaccent" horiz-adv-x="1198" unicode="ċ"/><glyph d="M553 1876q-12 12 -4 26.5t22 6.5q150 -66 271 -180q125 115 272 180h-2q8 6 16.5 1t9.5 -15.5t-5 -18.5q-158 -145 -244 -281h-92q-86 136 -244 281zM80 692q0 338 224 561.5t556 214.5q193 -6 327 -96t179 -246l-41 -16q-104 303 -494 307q-258 2 -412.5 -178 t-154.5 -481q0 -324 169 -518.5t454 -194.5q412 0 588 459l38 -25q-199 -516 -696 -516q-326 0 -531.5 203.5t-205.5 525.5z" glyph-name="Ccaron" horiz-adv-x="1505" unicode="Č"/><glyph d="M356 1473q-12 12 -4 26t23 6q150 -66 270 -180q125 115 273 180h-3q8 6 16.5 1t9.5 -15t-5 -18q-158 -145 -244 -281h-92q-86 136 -244 281zM76 496q0 240 165 404.5t402 164.5q131 0 237.5 -67.5t149.5 -178.5l-37 -26q-39 100 -134 159.5t-222 61.5q-178 0 -291 -123 t-113 -320q0 -223 125 -371.5t310 -148.5q338 0 491 434l43 -16q-98 -262 -238.5 -384t-340.5 -122q-229 0 -388 154t-159 379z" glyph-name="ccaron" horiz-adv-x="1198" unicode="č"/><glyph d="M416 1876q-12 12 -4 26.5t22 6.5q150 -66 271 -180q125 115 272 180h-2q8 6 16 1t9 -15.5t-5 -18.5q-158 -145 -243 -281h-93q-85 136 -243 281zM586 -16h-424v1466h424q432 0 672.5 -192.5t240.5 -540.5q0 -346 -240.5 -539.5t-672.5 -193.5zM324 1100v-764 q0 -180 20 -301h256q342 0 528.5 178t186.5 504q0 315 -196.5 498.5t-534.5 183.5h-246q-14 -96 -14 -299z" glyph-name="Dcaron" horiz-adv-x="1579" unicode="Ď"/><glyph d="M1247 1534q0 35 16.5 57.5t43 22.5t45 -22.5t18.5 -57.5q0 -33 -20.5 -126t-24.5 -153q4 -35 -18 -36q-14 -2 -19 20v4q-2 66 -21.5 163t-19.5 128zM76 436q0 268 165 448.5t410 180.5q176 0 330 -90v561h147v-1552h-147v516l29 282h-9q-70 -365 -226.5 -592t-340.5 -227 q-170 0 -264 124t-94 349zM244 479q0 -186 65.5 -306t165.5 -120q123 0 231.5 130t177 323.5t95.5 411.5q-59 33 -93 49t-100.5 31.5t-144.5 15.5q-168 0 -282.5 -154t-114.5 -381z" glyph-name="dcaron" horiz-adv-x="1290" unicode="ď"/><glyph d="M162 1450h424q432 0 672.5 -192.5t240.5 -540.5q0 -346 -240.5 -539.5t-672.5 -193.5h-424v706h-170v49h170v711zM344 35h256q342 0 528.5 178t186.5 504q0 315 -196.5 498.5t-534.5 183.5h-246q-14 -96 -14 -299v-361h192v-49h-192v-354q0 -180 20 -301z" glyph-name="Dcroat" horiz-adv-x="1579" unicode="Đ"/><glyph d="M1128 1227h152v-49h-152v-1194h-147v516l29 282h-9q-70 -365 -226.5 -592t-340.5 -227q-170 0 -264 124t-94 349q0 268 165 448.5t410 180.5q176 0 330 -90v203h-225v49h225v309h147v-309zM475 53q123 0 231.5 130t177 323.5t95.5 411.5q-59 33 -93 49t-100.5 31.5 t-144.5 15.5q-168 0 -282.5 -153.5t-114.5 -381.5q0 -186 65.5 -306t165.5 -120z" glyph-name="dcroat" horiz-adv-x="1290" unicode="đ"/><glyph d="M367 1772h501v-52h-501v52zM322 780v-745h745v-51h-905v1466h868v-51h-708v-568h462v-51h-462z" glyph-name="Emacron" horiz-adv-x="1097" unicode="Ē"/><glyph d="M862 1317h-502v51h502v-51zM76 501.5q0 231.5 169 397.5t404 166q172 0 294 -105.5t122 -254.5q0 -33 -12 -82h-822v-29q0 -229 123 -374.5t318 -145.5q338 0 477 415l41 -18q-86 -246 -234.5 -377t-349.5 -131q-227 0 -378.5 153.5t-151.5 385zM238 674h579q76 0 76 76 q0 127 -68.5 195.5t-195.5 68.5q-125 0 -244.5 -90t-146.5 -250z" glyph-name="emacron" horiz-adv-x="1185" unicode="ē"/><glyph d="M618 1642q-41 0 -68.5 29t-27.5 68q0 41 28 68.5t68 27.5q39 0 67 -28.5t28 -67.5q0 -41 -28 -69t-67 -28zM322 780v-745h745v-51h-905v1466h868v-51h-708v-568h462v-51h-462z" glyph-name="Edotaccent" horiz-adv-x="1097" unicode="Ė"/><glyph d="M516 1335q0 41 27.5 69t68.5 28q39 0 67 -29t28 -68q0 -41 -28 -68.5t-67 -27.5t-67.5 27.5t-28.5 68.5zM76 501.5q0 231.5 169 397.5t404 166q172 0 294 -105.5t122 -254.5q0 -33 -12 -82h-822v-29q0 -229 123 -374.5t318 -145.5q338 0 477 415l41 -18 q-86 -246 -234.5 -377t-349.5 -131q-227 0 -378.5 153.5t-151.5 385zM238 674h579q76 0 76 76q0 127 -68.5 195.5t-195.5 68.5q-125 0 -244.5 -90t-146.5 -250z" glyph-name="edotaccent" horiz-adv-x="1185" unicode="ė"/><glyph d="M1167 -240q16 20 31.5 9t9.5 -27q-29 -43 -83 -71.5t-105 -28.5q-72 0 -115 39.5t-43 103.5q0 100 131 199h-831v1466h868v-51h-708v-568h462v-51h-462v-745h741l2 2l2 -2l27 -35q-125 -84 -125 -193q0 -43 26.5 -72.5t63.5 -29.5q55 0 108 55z" glyph-name="Eogonek" horiz-adv-x="1097" unicode="Ę"/><glyph d="M1032 -147q16 20 31.5 8.5t9.5 -27.5q-29 -43 -83 -71.5t-105 -28.5q-72 0 -115 40t-43 103q0 53 39 111q-78 -25 -160 -25q-227 0 -378.5 153.5t-151.5 385t169 397.5t404 166q172 0 294 -105.5t122 -254.5q0 -33 -12 -82h-822v-29q0 -229 123 -374.5t318 -145.5 q338 0 477 415l41 -18q-88 -248 -234 -377l2 -2q-125 -84 -124 -192q0 -43 26.5 -73t63.5 -30q55 1 108 56zM629 1014q-125 0 -245 -90t-146 -250h579q76 0 76 76q0 127 -68.5 195.5t-195.5 68.5z" glyph-name="eogonek" horiz-adv-x="1185" unicode="ę"/><glyph d="M666 1595h-93q-86 135 -243 281q-12 12 -4 26.5t22 6.5q150 -66 270 -180q125 115 273 180h-2q8 6 16 1t9 -15.5t-5 -18.5q-157 -146 -243 -281zM322 780v-745h745v-51h-905v1466h868v-51h-708v-568h462v-51h-462z" glyph-name="Ecaron" horiz-adv-x="1097" unicode="Ě"/><glyph d="M324 1473q-12 12 -4 26t22 6q150 -66 270 -180q125 115 273 180h-2q8 6 16 1t9 -15t-5 -18q-158 -145 -244 -281h-92q-85 136 -243 281zM76 501.5q0 231.5 169 397.5t404 166q172 0 294 -105.5t122 -254.5q0 -33 -12 -82h-822v-29q0 -229 123 -374.5t318 -145.5 q338 0 477 415l41 -18q-86 -246 -234.5 -377t-349.5 -131q-227 0 -378.5 153.5t-151.5 385zM238 674h579q76 0 76 76q0 127 -68.5 195.5t-195.5 68.5q-125 0 -244.5 -90t-146.5 -250z" glyph-name="ecaron" horiz-adv-x="1185" unicode="ě"/><glyph d="M555 1870q0 18 13.5 21t19.5 -13v-4q10 -70 77.5 -115t161.5 -45q90 0 156 41t80 107q2 33 20 30q14 -2 15 -22q2 -123 -72 -197t-199 -74t-199.5 75t-72.5 196zM80 692q0 238 119 430q109 172 280.5 262.5t380.5 83.5q193 -6 327 -96t179 -246l-41 -16 q-104 303 -494 307q-258 2 -412.5 -178t-154.5 -481q0 -328 164 -522.5t438 -194.5q115 0 200 23.5t183 80.5v377q0 109 -26.5 149t-126.5 42l-295 4v47q80 0 264 -3t201 -3h133l6 -781h-41q-27 84 -102 119q-229 -133 -451 -133q-322 0 -526.5 205t-204.5 524z" glyph-name="Gbreve" horiz-adv-x="1515" unicode="Ğ"/><glyph d="M358 1466q0 18 13.5 21.5t19.5 -12.5v-5q10 -70 78 -114.5t162 -44.5q90 0 155.5 41t79.5 106q2 33 21 31q14 -2 14 -23q2 -123 -71.5 -196.5t-198.5 -73.5t-200 74.5t-73 195.5zM76 438q0 256 163.5 441.5t387.5 185.5q82 0 181 -39t144 -39q92 0 115 47l39 -8l-2 -838 q0 -221 -62.5 -390t-161 -262t-204 -138t-209.5 -45q-225 0 -338 178q-8 14 -3 28.5t16.5 15.5t23.5 -13q96 -158 301 -158q225 0 357 209t132 569v193l21 260h-8q-53 -309 -204 -490.5t-312 -181.5q-180 0 -278.5 125t-98.5 350zM240 479q0 -209 65.5 -323.5t183.5 -114.5 q70 0 141.5 47t140.5 139t117 253t58 364q-2 2 -35.5 34.5t-44 41t-44.5 34t-58.5 33.5t-63 17.5t-79.5 9.5q-170 0 -275.5 -146.5t-105.5 -388.5z" glyph-name="gbreve" horiz-adv-x="1247" unicode="ğ"/><glyph d="M729 1739q0 41 27.5 68.5t68.5 27.5q39 0 67 -28.5t28 -67.5q0 -41 -28 -69t-67 -28t-67.5 29t-28.5 68zM80 692q0 238 119 430q109 172 280.5 262.5t380.5 83.5q193 -6 327 -96t179 -246l-41 -16q-104 303 -494 307q-258 2 -412.5 -178t-154.5 -481q0 -328 164 -522.5 t438 -194.5q115 0 200 23.5t183 80.5v377q0 109 -26.5 149t-126.5 42l-295 4v47q80 0 264 -3t201 -3h133l6 -781h-41q-27 84 -102 119q-229 -133 -451 -133q-322 0 -526.5 205t-204.5 524z" glyph-name="Gdotaccent" horiz-adv-x="1515" unicode="Ġ"/><glyph d="M532 1335q0 41 28 69t69 28q39 0 66.5 -29t27.5 -68q0 -41 -27.5 -68.5t-66.5 -27.5t-68 27.5t-29 68.5zM76 438q0 256 163.5 441.5t387.5 185.5q82 0 181 -39t144 -39q92 0 115 47l39 -8l-2 -838q0 -221 -62.5 -390t-161 -262t-204 -138t-209.5 -45q-225 0 -338 178 q-8 14 -3 28.5t16.5 15.5t23.5 -13q96 -158 301 -158q225 0 357 209t132 569v193l21 260h-8q-53 -309 -204 -490.5t-312 -181.5q-180 0 -278.5 125t-98.5 350zM240 479q0 -209 65.5 -323.5t183.5 -114.5q70 0 141.5 47t140.5 139t117 253t58 364q-2 2 -35.5 34.5t-44 41 t-44.5 34t-58.5 33.5t-63 17.5t-79.5 9.5q-170 0 -275.5 -146.5t-105.5 -388.5z" glyph-name="gdotaccent" horiz-adv-x="1247" unicode="ġ"/><glyph d="M80 692q0 238 119 430q109 172 280.5 262.5t380.5 83.5q193 -6 327 -96t179 -246l-41 -16q-104 303 -494 307q-258 2 -412.5 -178t-154.5 -481q0 -328 164 -522.5t438 -194.5q115 0 200 23.5t183 80.5v377q0 109 -26.5 149t-126.5 42l-295 4v47q80 0 264 -3t201 -3h133 l6 -781h-41q-27 84 -102 119q-229 -133 -451 -133q-322 0 -526.5 205t-204.5 524zM670 -494l4 2q141 61 168 189q-27 -16 -54 -16q-45 0 -73.5 27.5t-28.5 72.5q0 47 28.5 77.5t71.5 30.5q47 0 76 -30.5t29 -81.5q2 -109 -51.5 -193t-147.5 -119q-20 -8 -29 8.5t7 32.5z" glyph-name="Gcommaaccent" horiz-adv-x="1515" unicode="Ģ"/><glyph d="M735 1550l-4 -2q-141 -61 -168 -188q27 16 53 16q45 0 74 -27.5t29 -72.5q0 -47 -28.5 -78t-72.5 -31q-47 0 -75.5 31t-28.5 82q-2 109 51 192.5t148 118.5q20 8 29 -8.5t-7 -32.5zM76 438q0 256 163.5 441.5t387.5 185.5q82 0 181 -39t144 -39q92 0 115 47l39 -8 l-2 -838q0 -221 -62.5 -390t-161 -262t-204 -138t-209.5 -45q-225 0 -338 178q-8 14 -3 28.5t16.5 15.5t23.5 -13q96 -158 301 -158q225 0 357 209t132 569v193l21 260h-8q-53 -309 -204 -490.5t-312 -181.5q-180 0 -278.5 125t-98.5 350zM240 479q0 -209 65.5 -323.5 t183.5 -114.5q70 0 141.5 47t140.5 139t117 253t58 364q-2 2 -35.5 34.5t-44 41t-44.5 34t-58.5 33.5t-63 17.5t-79.5 9.5q-170 0 -275.5 -146.5t-105.5 -388.5z" glyph-name="gcommaaccent" horiz-adv-x="1247" unicode="ģ"/><glyph d="M1202 1122v328h162v-1466h-162v802h-878v-802h-162v1466h162v-328h878zM324 1071v-235h878v235h-878z" glyph-name="Hbar" horiz-adv-x="1525" unicode="Ħ"/><glyph d="M1159 596l111 -612h-152l-114 639q-66 362 -254 362q-141 0 -267.5 -223t-169.5 -623l-8 -155h-143v708l2 527h-129v49h129v286l145 -2v-284h250v-49h-250l-2 -555l-26 -379l8 -4q66 395 208 587.5t304 192.5q145 0 229 -109.5t129 -355.5z" glyph-name="hbar" horiz-adv-x="1351" unicode="ħ"/><glyph d="M494 1720h-502v52h502v-52zM324 -16h-162v1466h162v-1466z" glyph-name="Imacron" horiz-adv-x="485" unicode="Ī"/><glyph d="M524 1317h-501v51h501v-51zM197 -16v1060h147v-1060h-147z" glyph-name="imacron" horiz-adv-x="540" unicode="ī"/><glyph d="M358 -242q16 20 32 9t9 -27q-29 -43 -83 -71.5t-105 -28.5q-72 0 -115 39.5t-43 103.5q0 100 133 201h-24v1466h162v-1466h-60q-104 -78 -104 -179q0 -43 26.5 -72.5t63.5 -29.5q55 0 108 55z" glyph-name="Iogonek" horiz-adv-x="485" unicode="Į"/><glyph d="M274 1239q-41 0 -68.5 27.5t-27.5 68.5t27.5 69t68.5 28q39 0 67 -29t28 -68q0 -41 -28 -68.5t-67 -27.5zM424 -244q16 20 31.5 9t9.5 -27q-29 -43 -83 -71.5t-106 -28.5q-72 0 -114.5 39.5t-42.5 103.5q0 96 135 203h-57v1060h147v-1040l6 -8l-6 -4v-8h-12 q-106 -80 -107 -181q0 -43 27 -72.5t63 -29.5q56 0 109 55z" glyph-name="iogonek" horiz-adv-x="540" unicode="į"/><glyph d="M147 1739q0 41 28 68.5t69 27.5q39 0 66.5 -28.5t27.5 -67.5q0 -41 -27.5 -69t-66.5 -28t-68 29t-29 68zM324 -16h-162v1466h162v-1466z" glyph-name="Idotaccent" horiz-adv-x="485" unicode="İ"/><glyph d="M197 -16v1060h147v-1060h-147z" glyph-name="dotlessi" horiz-adv-x="540" unicode="ı"/><glyph d="M324 -16h-162v1466h162v-791l788 791h64l-697 -700q102 43 215 43q326 0 447 -439q6 -25 39.5 -161t52.5 -209h-166q-14 49 -37.5 146t-36.5 144q-113 471 -325 467q-92 -2 -184.5 -46t-159.5 -107v-604zM543 -494l4 2q141 61 168 189q-27 -16 -53 -16q-45 0 -74 27.5 t-29 72.5q0 47 28.5 77.5t71.5 30.5q47 0 76 -30.5t29 -81.5q2 -109 -51.5 -193t-147.5 -119q-20 -8 -29 8.5t7 32.5z" glyph-name="Kcommaaccent" horiz-adv-x="1206" unicode="Ķ"/><glyph d="M309 -16h-147v1581h147v-885l-24 -404q45 201 176 332l422 422h67l-325 -323q55 18 108 18q109 0 161 -79t85 -230l94 -432h-158l-79 395q-55 279 -187 278q-70 0 -145 -69l-31 -29q-78 -74 -121 -201t-43 -268v-106zM455 -494l4 2q141 61 168 189q-27 -16 -54 -16 q-45 0 -73.5 27.5t-28.5 72.5q0 47 28.5 77.5t71.5 30.5q47 0 76 -30.5t29 -81.5q2 -109 -51.5 -193t-147.5 -119q-20 -8 -29 8.5t7 32.5z" glyph-name="kcommaaccent" horiz-adv-x="1155" unicode="ķ"/><glyph d="M309 -16h-147v1063h147v-551l568 546q27 27 47 7q12 -14 -4 -31l-375 -361q49 18 127 19q133 0 203.5 -85t111.5 -294l62 -313h-154l-45 241q-41 221 -72 289q-53 111 -149 109q-127 -4 -277 -150l-43 -41v-448z" glyph-name="kgreenlandic" horiz-adv-x="1130" unicode="ĸ"/><glyph d="M111 1583l-21 33q41 45 95.5 111.5t83 99.5t64.5 59.5t66 26.5q27 0 41.5 -18.5t12.5 -49.5q-2 -18 -23.5 -42.5t-61.5 -53.5t-76 -52.5t-93 -58.5t-88 -55zM1006 -16h-844v1464l160 2v-1415h684v-51z" glyph-name="Lacute" horiz-adv-x="1036" unicode="Ĺ"/><glyph d="M109 1604l-21 32q41 45 95.5 112t83 99.5t64.5 59t66 26.5q27 0 41.5 -18.5t12.5 -48.5q-2 -18 -23.5 -43t-61.5 -53.5t-76 -52t-93 -58.5t-88 -55zM162 -16v1568h147v-1568h-147z" glyph-name="lacute" horiz-adv-x="471" unicode="ĺ"/><glyph d="M1006 -16h-844v1464l160 2v-1415h684v-51zM457 -496l4 2q141 61 168 189q-27 -16 -54 -17q-45 0 -73.5 28t-28.5 73q0 47 28.5 77.5t71.5 30.5q47 0 76 -30.5t29 -81.5q2 -109 -51.5 -193t-147.5 -119q-20 -8 -29 8.5t7 32.5z" glyph-name="Lcommaaccent" horiz-adv-x="1036" unicode="Ļ"/><glyph d="M309 -16h-147v1568h147v-1568zM131 -494l4 2q141 61 168 189q-27 -16 -53 -16q-45 0 -74 27.5t-29 72.5q0 47 29 77.5t72 30.5q47 0 75.5 -30.5t28.5 -81.5q2 -109 -51 -193t-147 -119q-20 -8 -29.5 8.5t6.5 32.5z" glyph-name="lcommaaccent" horiz-adv-x="471" unicode="ļ"/><glyph d="M705 1432q0 35 16 57t43 22t45 -22.5t18 -56.5q0 -33 -20.5 -126.5t-24.5 -152.5q4 -35 -18 -37q-14 -2 -19 21v4q-2 66 -21 163t-19 128zM1006 -16h-844v1464l160 2v-1415h684v-51z" glyph-name="Lcaron" horiz-adv-x="1036" unicode="Ľ"/><glyph d="M422 1534q0 35 16.5 57.5t43 22.5t45 -22.5t18.5 -57.5q0 -33 -20.5 -126t-24.5 -153q4 -35 -19 -36q-14 -2 -18 20v4q-2 66 -21.5 163t-19.5 128zM162 -16v1568h147v-1568h-147z" glyph-name="lcaron" horiz-adv-x="471" unicode="ľ"/><glyph d="M322 721v-686h684v-51h-844v645l-117 -68q-23 -10 -33 11.5t11 33.5l139 80v762l160 2v-670l153 88q14 8 24.5 0t10.5 -21t-12 -24z" glyph-name="Lslash" horiz-adv-x="1036" unicode="Ł"/><glyph d="M309 834l144 84q14 8 24 -0.5t10 -21.5t-12 -24l-166 -96v-792h-147v706l-139 -80q-23 -10 -33 11.5t10 33.5l162 95v802h147v-718z" glyph-name="lslash" horiz-adv-x="471" unicode="ł"/><glyph d="M631 1583l-21 33q41 45 95.5 111.5t83 99.5t64.5 59.5t67 26.5q27 0 41 -18.5t12 -49.5q-2 -18 -23.5 -42.5t-61.5 -53.5t-76 -52.5t-93 -58.5t-88 -55zM207 -14h-45v1464h84l1040 -1206v1206h43v-1448q0 -18 -13 -22.5t-26 10.5l-1083 1259v-1263z" glyph-name="Nacute" horiz-adv-x="1490" unicode="Ń"/><glyph d="M549 1178l-21 32q41 45 95.5 112t83 99.5t64.5 59t67 26.5q27 0 41 -18.5t12 -48.5q-2 -18 -23.5 -43t-61.5 -53.5t-76 -52t-93 -58.5t-88 -55zM305 -16h-143v1063l147 -3v-380l-26 -379h8q63 391 204.5 583.5t305.5 192.5q150 0 230.5 -105.5t127.5 -359.5l111 -612 h-152l-114 639q-35 188 -95.5 275t-160.5 87q-152 0 -274 -236.5t-161 -609.5z" glyph-name="nacute" horiz-adv-x="1351" unicode="ń"/><glyph d="M207 -14h-45v1464h84l1040 -1206v1206h43v-1448q0 -18 -13 -22.5t-26 10.5l-1083 1259v-1263zM610 -494l4 2q141 61 168 189q-27 -16 -53 -16q-45 0 -73.5 27.5t-28.5 72.5q0 47 28.5 77.5t71.5 30.5q47 0 75.5 -30.5t28.5 -81.5q2 -109 -51 -193t-147 -119 q-20 -8 -29.5 8.5t6.5 32.5z" glyph-name="Ncommaaccent" horiz-adv-x="1490" unicode="Ņ"/><glyph d="M305 -16h-143v1063l147 -3v-380l-26 -379h8q63 391 204.5 583.5t305.5 192.5q150 0 230.5 -105.5t127.5 -359.5l111 -612h-152l-114 639q-35 188 -95.5 275t-160.5 87q-152 0 -274 -236.5t-161 -609.5zM571 -494l4 2q141 61 168 189q-27 -16 -53 -16q-45 0 -73.5 27.5 t-28.5 72.5q0 47 28.5 77.5t71.5 30.5q47 0 76 -30.5t29 -81.5q2 -109 -51.5 -193t-147.5 -119q-20 -8 -29.5 8.5t6.5 32.5z" glyph-name="ncommaaccent" horiz-adv-x="1351" unicode="ņ"/><glyph d="M469 1876q-12 12 -4 26.5t22 6.5q150 -66 271 -180q125 115 272 180h-2q8 6 16.5 1t9.5 -15.5t-5 -18.5q-158 -145 -244 -281h-92q-86 136 -244 281zM207 -14h-45v1464h84l1040 -1206v1206h43v-1448q0 -18 -13 -22.5t-26 10.5l-1083 1259v-1263z" glyph-name="Ncaron" horiz-adv-x="1490" unicode="Ň"/><glyph d="M387 1470q-12 12 -4 26.5t23 6.5q150 -66 270 -180q125 115 272 180h-2q8 6 16.5 1t9.5 -15t-5 -19q-158 -145 -244 -280h-92q-86 135 -244 280zM305 -16h-143v1063l147 -3v-380l-26 -379h8q63 391 204.5 583.5t305.5 192.5q150 0 230.5 -105.5t127.5 -359.5l111 -612 h-152l-114 639q-35 188 -95.5 275t-160.5 87q-152 0 -274 -236.5t-161 -609.5z" glyph-name="ncaron" horiz-adv-x="1351" unicode="ň"/><glyph d="M1329 1450v-1440q0 -131 -31.5 -232.5t-93 -167t-129 -105.5t-155.5 -70q-14 -4 -22.5 6t-6.5 24.5t16 18.5q145 53 209 166.5t64 320.5v148l-973 1130v-1263h-45v1464h84l1040 -1206v1206h43z" glyph-name="Eng" horiz-adv-x="1490" unicode="Ŋ"/><glyph d="M162 -16v1063l147 -3l-2 -380l-28 -377h8q66 387 213 580.5t311 193.5q317 0 317 -467v-610q0 -219 -108.5 -356.5t-308.5 -174.5l-11 49l2 2q141 20 206 136t65 350v635q0 350 -215 350q-158 0 -285 -234.5t-164 -599.5v-157h-147z" glyph-name="eng" horiz-adv-x="1210" unicode="ŋ"/><glyph d="M1094 1720h-502v52h502v-52zM819 -41q-324 0 -531.5 211t-207.5 539q0 326 226 545t562 219q324 0 532 -211t208 -539q0 -319 -229.5 -541.5t-559.5 -222.5zM225 815q0 -309 193.5 -548.5t476.5 -239.5q242 0 404.5 170t162.5 421q0 195 -83 375.5t-239.5 297 t-348.5 116.5q-246 0 -406 -167t-160 -425z" glyph-name="Omacron" horiz-adv-x="1687" unicode="Ō"/><glyph d="M887 1317h-502v51h502v-51zM602 -43q-223 0 -374.5 150.5t-151.5 373.5q0 250 172 422t420 172q221 0 371.5 -153.5t150.5 -378.5q0 -252 -167 -419t-421 -167zM199 604q0 -219 158.5 -395t355.5 -176q152 0 254 109.5t102 271.5q0 215 -150.5 397t-363.5 182 q-152 0 -254 -111.5t-102 -277.5z" glyph-name="omacron" horiz-adv-x="1265" unicode="ō"/><glyph d="M590 1583l-21 33q41 45 95.5 111.5t83 99.5t64.5 59.5t67 26.5q27 0 41 -18.5t12 -49.5q-2 -18 -23.5 -42.5t-61.5 -53.5t-76 -52.5t-93 -58.5t-88 -55zM897 1583l-20 33q41 45 95 111.5t82.5 99.5t64.5 59.5t67 26.5q27 0 41 -18.5t12 -49.5q-2 -18 -23.5 -42.5 t-61.5 -53.5t-76 -52.5t-93 -58.5t-88 -55zM819 -41q-324 0 -531.5 211t-207.5 539q0 326 226 545t562 219q324 0 532 -211t208 -539q0 -319 -229.5 -541.5t-559.5 -222.5zM225 815q0 -309 193.5 -548.5t476.5 -239.5q242 0 404.5 170t162.5 421q0 195 -83 375.5t-239.5 297 t-348.5 116.5q-246 0 -406 -167t-160 -425z" glyph-name="Ohungarumlaut" horiz-adv-x="1687" unicode="Ő"/><glyph d="M383 1180l-21 32q41 45 95.5 112t83 99.5t64.5 59t67 26.5q27 0 41 -18t12 -49q-2 -18 -23.5 -43t-61.5 -53.5t-76 -52t-93 -58.5t-88 -55zM690 1180l-20 32q41 45 95 112t83 99.5t64.5 59t66.5 26.5q27 0 41 -18t12 -49q-2 -18 -23.5 -43t-61.5 -53.5t-75.5 -52 t-93 -58.5t-88.5 -55zM602 -43q-223 0 -374.5 150.5t-151.5 373.5q0 250 172 422t420 172q221 0 371.5 -153.5t150.5 -378.5q0 -252 -167 -419t-421 -167zM199 604q0 -219 158.5 -395t355.5 -176q152 0 254 109.5t102 271.5q0 215 -150.5 397t-363.5 182q-152 0 -254 -111.5 t-102 -277.5z" glyph-name="ohungarumlaut" horiz-adv-x="1265" unicode="ő"/><glyph d="M80 696q0 324 218 549t533 225q172 0 310 -55v35h868v-51h-709v-568h463v-51h-463v-745h746v-51h-905v39q-139 -57 -330 -58q-328 0 -529.5 201.5t-201.5 529.5zM268 745q0 -311 165 -518t415 -207q186 0 293 97v1167q-131 131 -328 131q-240 0 -392.5 -186.5 t-152.5 -483.5z" glyph-name="OE" horiz-adv-x="2076" unicode="Œ"/><glyph d="M2136 489l41 -18q-86 -246 -234.5 -377t-349.5 -131q-158 0 -283.5 78t-191.5 211q-74 -137 -210 -216t-306 -79q-223 0 -374.5 150.5t-151.5 373.5q0 250 172 422t420 172q156 0 281.5 -81t189.5 -216q74 131 208 209t289 78q172 0 294 -105.5t122 -254.5q0 -33 -12 -82 h-821v-29q0 -229 122.5 -374.5t317.5 -145.5q338 -1 477 415zM1616 1014q-125 0 -245 -90t-146 -250h579q76 0 76 76q0 127 -68.5 195.5t-195.5 68.5zM1069 414v2q-6 37 -6 78q-29 199 -172 349t-336 150q-152 0 -254 -111.5t-102 -277.5q0 -219 158.5 -395t355.5 -176 q152 0 254 109.5t102 271.5z" glyph-name="oe" horiz-adv-x="2172" unicode="œ"/><glyph d="M473 1583l-20 33q41 45 95 111.5t82.5 99.5t64.5 59.5t67 26.5q27 0 41 -18.5t12 -49.5q-2 -18 -23.5 -42.5t-61.5 -53.5t-76 -52.5t-93 -58.5t-88 -55zM324 -16h-162v1466h430q293 0 433 -88t140 -272q0 -139 -101 -231.5t-284 -125.5l383 -749h-186l-363 735h-292z M322 1171v-401h296q170 0 266.5 85t96.5 235q0 158 -93 233.5t-290 75.5h-264q-12 -62 -12 -228z" glyph-name="Racute" horiz-adv-x="1255" unicode="Ŕ"/><glyph d="M383 1174l-21 32q41 45 95.5 111.5t83 99.5t64.5 59.5t67 26.5q27 0 41 -18.5t12 -48.5q-2 -18 -23.5 -43t-61.5 -53.5t-76 -52t-93 -58.5t-88 -55zM162 -16v671l2 392l145 -3v-385l-30 -370h8q55 326 200.5 549t305.5 223q166 0 225 -174l-41 -21q-49 143 -184 144 q-113 0 -220.5 -132.5t-177 -334t-86.5 -414.5l-2 -145h-145z" glyph-name="racute" horiz-adv-x="997" unicode="ŕ"/><glyph d="M324 -16h-162v1466h430q293 0 433 -88t140 -272q0 -139 -101 -231.5t-284 -125.5l383 -749h-186l-363 735h-292zM322 1171v-401h296q170 0 266.5 85t96.5 235q0 158 -93 233.5t-290 75.5h-264q-12 -62 -12 -228zM479 -494l4 2q141 61 168 189q-27 -16 -53 -16 q-45 0 -73.5 27.5t-28.5 72.5q0 47 28.5 77.5t71.5 30.5q47 0 75.5 -30.5t28.5 -81.5q2 -109 -51 -193t-147 -119q-20 -8 -29.5 8.5t6.5 32.5z" glyph-name="Rcommaaccent" horiz-adv-x="1255" unicode="Ŗ"/><glyph d="M307 -16h-145v671l2 392l145 -3v-385l-30 -370h8q55 326 200.5 549t305.5 223q166 0 225 -174l-41 -21q-49 143 -184 144q-113 0 -220.5 -132.5t-177 -334t-86.5 -414.5zM123 -492l4 3q141 61 168 188q-27 -16 -53 -16q-45 0 -74 27.5t-29 72.5q0 47 29 77.5t72 30.5 q47 0 75.5 -30.5t28.5 -81.5q2 -109 -51 -193t-148 -118q-20 -8 -29 8t7 32z" glyph-name="rcommaaccent" horiz-adv-x="997" unicode="ŗ"/><glyph d="M311 1876q-12 12 -4 26.5t23 6.5q150 -66 270 -180q125 115 272 180h-2q8 6 16.5 1t9.5 -15.5t-5 -18.5q-158 -145 -244 -281h-92q-86 136 -244 281zM324 -16h-162v1466h430q293 0 433 -88t140 -272q0 -139 -101 -231.5t-284 -125.5l383 -749h-186l-363 735h-292z M322 1171v-401h296q170 0 266.5 85t96.5 235q0 158 -93 233.5t-290 75.5h-264q-12 -62 -12 -228z" glyph-name="Rcaron" horiz-adv-x="1255" unicode="Ř"/><glyph d="M221 1466q-12 12 -4 26.5t23 6.5q150 -66 270 -180q125 115 272 180h-2q8 6 16.5 1t9.5 -15t-5 -19q-158 -145 -244 -280h-92q-86 135 -244 280zM162 -16v671l2 392l145 -3v-385l-30 -370h8q55 326 200.5 549t305.5 223q166 0 225 -174l-41 -21q-49 143 -184 144 q-113 0 -220.5 -132.5t-177 -334t-86.5 -414.5l-2 -145h-145z" glyph-name="rcaron" horiz-adv-x="997" unicode="ř"/><glyph d="M475 1585l-20 33q41 45 95 111.5t83 99.5t64.5 59.5t66.5 26.5q27 0 41 -18.5t12 -49.5q-2 -18 -23.5 -42.5t-61.5 -53.5t-75.5 -52.5t-93 -58.5t-88.5 -55zM70 360l43 13v-4q14 -152 141 -252.5t305 -100.5q199 0 303.5 78t104.5 225q0 123 -109.5 217.5t-361.5 182.5 q-350 129 -351 418q0 145 123 238t318 93q340 0 458 -292l-40 -23q-104 264 -418 264q-150 0 -238 -61.5t-88 -165.5q0 -199 315 -322q98 -37 155.5 -60.5t138.5 -68.5t124 -91t76 -117.5t33 -157.5q0 -180 -152.5 -294t-390.5 -114q-178 0 -323.5 103.5t-165.5 291.5z" glyph-name="Sacute" horiz-adv-x="1181" unicode="Ś"/><glyph d="M332 1180l-21 32q41 45 95.5 112t83 99.5t64.5 59t67 26.5q27 0 41 -18t12 -49q-2 -18 -23.5 -43t-61.5 -53.5t-76 -52t-93 -58.5t-88 -55zM47 215l45 14q98 -211 346 -211q111 0 178.5 55.5t67.5 145.5q0 96 -60.5 150.5t-191.5 107.5q-147 53 -228 122t-81 198 q0 119 92 193.5t238 74.5q121 0 216 -67.5t126 -176.5l-43 -18q-76 211 -303 211q-190 0 -191 -174q0 -84 55.5 -130t165.5 -85q74 -29 125 -54.5t107.5 -67.5t86 -101.5t29.5 -135.5q0 -135 -106.5 -218t-280.5 -83q-137 0 -241.5 66.5t-151.5 183.5z" glyph-name="sacute" horiz-adv-x="905" unicode="ś"/><glyph d="M559 -35h-6l-41 -76q88 -12 137 -53t49 -102q0 -66 -60 -110t-149 -44q-53 0 -100 24.5t-61 59.5q-8 29 14 35q12 4 20 -14q10 -23 47 -38.5t83 -15.5q100 0 100 80q4 78 -182 86l94 170q-166 16 -291 117.5t-143 275.5l43 13v-4q14 -152 141 -252.5t305 -100.5 q199 0 303.5 78t104.5 225q0 123 -109.5 217.5t-361.5 182.5q-350 129 -351 418q0 145 123 238t318 93q340 0 458 -292l-40 -23q-104 264 -418 264q-150 0 -238 -61.5t-88 -165.5q0 -199 315 -322q98 -37 155.5 -60.5t138.5 -68.5t124 -91t76 -117.5t33 -157.5 q0 -180 -152.5 -294t-390.5 -114z" glyph-name="Scedilla" horiz-adv-x="1181" unicode="Ş"/><glyph d="M440 -35h-26l-41 -74q88 -12 137 -53t49 -102q0 -66 -60.5 -110t-148.5 -44q-53 0 -100 24.5t-62 59.5q-8 29 15 35q12 4 20 -14q10 -23 47 -38.5t82 -15.5q100 0 101 80q4 78 -183 86l95 172q-111 16 -194 81t-124 163l45 14q98 -211 346 -211q111 0 178.5 55.5 t67.5 145.5q0 96 -60.5 150.5t-191.5 107.5q-147 53 -228 122t-81 198q0 119 92 193.5t238 74.5q121 0 216 -67.5t126 -176.5l-43 -18q-76 211 -303 211q-190 0 -191 -174q0 -84 55.5 -130t165.5 -85q74 -29 125 -54.5t107.5 -67.5t86 -101.5t29.5 -135.5 q0 -135 -106.5 -218t-280.5 -83z" glyph-name="scedilla" horiz-adv-x="905" unicode="ş"/><glyph d="M313 1878q-12 12 -4 26.5t23 6.5q150 -66 270 -180q125 115 272 180h-2q8 6 16.5 1t9.5 -15.5t-5 -18.5q-158 -145 -244 -281h-92q-86 136 -244 281zM70 360l43 13v-4q14 -152 141 -252.5t305 -100.5q199 0 303.5 78t104.5 225q0 123 -109.5 217.5t-361.5 182.5 q-350 129 -351 418q0 145 123 238t318 93q340 0 458 -292l-40 -23q-104 264 -418 264q-150 0 -238 -61.5t-88 -165.5q0 -199 315 -322q98 -37 155.5 -60.5t138.5 -68.5t124 -91t76 -117.5t33 -157.5q0 -180 -152.5 -294t-390.5 -114q-178 0 -323.5 103.5t-165.5 291.5z" glyph-name="Scaron" horiz-adv-x="1181" unicode="Š"/><glyph d="M170 1473q-12 12 -4 26t22 6q150 -66 271 -180q125 115 272 180h-2q8 6 16.5 1t9.5 -15t-5 -18q-158 -145 -244 -281h-92q-86 136 -244 281zM47 215l45 14q98 -211 346 -211q111 0 178.5 55.5t67.5 145.5q0 96 -60.5 150.5t-191.5 107.5q-147 53 -228 122t-81 198 q0 119 92 193.5t238 74.5q121 0 216 -67.5t126 -176.5l-43 -18q-76 211 -303 211q-190 0 -191 -174q0 -84 55.5 -130t165.5 -85q74 -29 125 -54.5t107.5 -67.5t86 -101.5t29.5 -135.5q0 -135 -106.5 -218t-280.5 -83q-137 0 -241.5 66.5t-151.5 183.5z" glyph-name="scaron" horiz-adv-x="905" unicode="š"/><glyph d="M676 1399v-1415h-70l-49 -93q88 -12 137 -53t49 -102q0 -66 -60 -110t-148 -44q-53 0 -100.5 24.5t-61.5 59.5q-8 29 14 35q12 4 21 -14q10 -23 47 -38.5t82 -15.5q100 0 100 80q4 78 -182 86l100 185h-41v1415h-483v51h1112v-51h-467z" glyph-name="Tcommaaccent" horiz-adv-x="1173" unicode="Ţ"/><glyph d="M754 1044v-51h-394v-749q0 -96 33 -151.5t86 -55.5q100 0 174 153l41 -22q-59 -111 -127 -162l-61 -115q88 -12 137 -53t49 -102q0 -66 -60.5 -110t-148.5 -44q-53 0 -100 24.5t-61 59.5q-8 29 14 35q12 4 20 -14q10 -23 47 -38.5t82 -15.5q100 0 101 80q4 78 -183 86 l95 172q-37 -10 -68 -10q-219 0 -219 277v755h-141l-4 51h2q115 0 175 80t83 244l36 -4v-320h392z" glyph-name="tcommaaccent" horiz-adv-x="712" unicode="ţ"/><glyph d="M307 1876q-12 12 -4 26.5t23 6.5q150 -66 270 -180q125 115 272 180h-2q8 6 16.5 1t9.5 -15.5t-5 -18.5q-158 -145 -244 -281h-92q-86 136 -244 281zM514 1399h-483v51h1112v-51h-467v-1415h-162v1415z" glyph-name="Tcaron" horiz-adv-x="1173" unicode="Ť"/><glyph d="M563 1528q0 35 16.5 57.5t43 22.5t45 -22.5t18.5 -57.5q0 -33 -20.5 -126t-24.5 -153q4 -35 -18 -37q-14 -2 -19 21v4q-2 66 -21.5 163t-19.5 128zM70 993l-4 51h2q115 0 175 80t83 244l36 -4v-320h392v-51h-394v-749q0 -96 33 -151.5t86 -55.5q100 0 174 153l41 -22 q-109 -207 -264 -207q-219 0 -219 277v755h-141z" glyph-name="tcaron" horiz-adv-x="712" unicode="ť"/><glyph d="M1143 1450v-51h-467v-660h180v-49h-180v-706h-162v706h-182v49h182v660h-483v51h1112z" glyph-name="Tbar" horiz-adv-x="1173" unicode="Ŧ"/><glyph d="M754 1044v-51h-394v-391h254v-49h-254v-309q0 -96 33 -151.5t86 -55.5q100 0 174 153l41 -22q-109 -207 -264 -207q-219 0 -219 277v315h-121v49h121v391h-141l-4 51h2q115 0 175 80t83 244l36 -4v-320h392z" glyph-name="tbar" horiz-adv-x="712" unicode="ŧ"/><glyph d="M952 1720h-501v52h501v-52zM121 600v850h162v-793q0 -109 9 -193.5t35.5 -171.5t72.5 -145.5t124 -94.5t183 -36q233 0 361 166t128 467v801h43v-793q0 -90 -12.5 -175t-48 -182t-92 -169t-154.5 -119t-227 -47q-285 0 -434.5 162t-149.5 473z" glyph-name="Umacron" horiz-adv-x="1359" unicode="Ū"/><glyph d="M850 1317h-502v51h502v-51zM121 416v631h147v-625q0 -367 260 -367q98 0 180.5 88t126.5 208t67.5 223.5t23.5 156.5v316h147v-1063h-147v403l26 170h-8q-27 -111 -64.5 -206t-94 -188t-138.5 -146.5t-180 -53.5q-346 0 -346 453z" glyph-name="umacron" horiz-adv-x="1234" unicode="ū"/><glyph d="M705 1593q-66 0 -113 46.5t-47 112t47 112.5t113 47q63 0 108 -47t45 -112.5t-45 -112t-108 -46.5zM590 1751q0 -47 31.5 -76.5t83.5 -29.5q47 0 78.5 30.5t31.5 75.5t-31.5 77t-78.5 32q-49 0 -82 -31t-33 -78zM121 600v850h162v-793q0 -109 9 -193.5t35.5 -171.5 t72.5 -145.5t124 -94.5t183 -36q233 0 361 166t128 467v801h43v-793q0 -90 -12.5 -175t-48 -182t-92 -169t-154.5 -119t-227 -47q-285 0 -434.5 162t-149.5 473z" glyph-name="Uring" horiz-adv-x="1359" unicode="Ů"/><glyph d="M602 1190q-66 0 -113 46t-47 111.5t47.5 112.5t112.5 47q63 0 108.5 -47t45.5 -112.5t-45.5 -111.5t-108.5 -46zM487 1347.5q0 -47.5 32 -77t83 -29.5q47 0 79 31t32 76t-32 76.5t-79 31.5q-49 0 -82 -30.5t-33 -78zM121 416v631h147v-625q0 -367 260 -367q98 0 180.5 88 t126.5 208t67.5 223.5t23.5 156.5v316h147v-1063h-147v403l26 170h-8q-27 -111 -64.5 -206t-94 -188t-138.5 -146.5t-180 -53.5q-346 0 -346 453z" glyph-name="uring" horiz-adv-x="1234" unicode="ů"/><glyph d="M449 1583l-21 33q41 45 95.5 111.5t83 99.5t64.5 59.5t66 26.5q27 0 41.5 -18.5t12.5 -49.5q-2 -18 -24 -42.5t-61.5 -53.5t-75.5 -52.5t-93 -58.5t-88 -55zM756 1583l-21 33q41 45 95.5 111.5t83 99.5t64.5 59.5t66 26.5q27 0 41.5 -18.5t12.5 -49.5q-2 -18 -23.5 -42.5 t-61.5 -53.5t-76 -52.5t-93 -58.5t-88 -55zM121 600v850h162v-793q0 -109 9 -193.5t35.5 -171.5t72.5 -145.5t124 -94.5t183 -36q233 0 361 166t128 467v801h43v-793q0 -90 -12.5 -175t-48 -182t-92 -169t-154.5 -119t-227 -47q-285 0 -434.5 162t-149.5 473z" glyph-name="Uhungarumlaut" horiz-adv-x="1359" unicode="Ű"/><glyph d="M346 1180l-20 32q41 45 95 112t82.5 99.5t64.5 59t67 26.5q27 0 41 -18t12 -49q-2 -18 -23.5 -43t-61.5 -53.5t-75.5 -52t-93 -58.5t-88.5 -55zM653 1180l-20 32q41 45 95 112t83 99.5t64.5 59t66.5 26.5q27 0 41 -18t12 -49q-2 -18 -23.5 -43t-61.5 -53.5t-75.5 -52 t-93 -58.5t-88.5 -55zM121 416v631h147v-625q0 -367 260 -367q98 0 180.5 88t126.5 208t67.5 223.5t23.5 156.5v316h147v-1063h-147v403l26 170h-8q-27 -111 -64.5 -206t-94 -188t-138.5 -146.5t-180 -53.5q-346 0 -346 453z" glyph-name="uhungarumlaut" horiz-adv-x="1234" unicode="ű"/><glyph d="M1239 1450v-793q0 -403 -207 -581l-2 -2h-2q-12 -12 -37 -29q-84 -70 -84 -162q0 -43 27 -72.5t63 -29.5q55 0 109 55q16 20 31.5 9t9.5 -27q-29 -43 -83 -72t-106 -29q-72 0 -114.5 40t-42.5 104q0 59 47 121q-70 -16 -143 -17q-285 0 -434.5 162t-149.5 473v850h162 v-793q0 -109 9 -193.5t35.5 -171.5t72.5 -145.5t124 -94.5t183 -36q233 0 361 166t128 467v801h43z" glyph-name="Uogonek" horiz-adv-x="1359" unicode="Ų"/><glyph d="M1155 -244q16 20 31.5 9t9.5 -27q-29 -43 -83 -71.5t-105 -28.5q-72 0 -115 39.5t-43 103.5q0 96 135 203h-59v403l26 170h-8q-27 -111 -64.5 -206t-94 -188t-138.5 -146.5t-180 -53.5q-346 0 -346 453v631h147v-625q0 -367 260 -367q98 0 180.5 88t126.5 208t67.5 223.5 t23.5 156.5v316h147v-1041l8 -10l-8 -6v-6h-10q-106 -80 -107 -181q0 -43 27 -72.5t64 -29.5q55 0 108 55z" glyph-name="uogonek" horiz-adv-x="1234" unicode="ų"/><glyph d="M717 1618q158 145 244 280h92q86 -135 243 -280q8 -8 6 -18.5t-9 -14.5t-17 0h2q-147 66 -272 180q-121 -115 -271 -180q-14 -8 -22 6.5t4 26.5zM594 -37l-621 1485h181l518 -1255l317 706l-192 498q16 0 62 25.5t63 41.5q12 12 24 0l486 -1257l505 1243h50l-541 -1325 l-70 -162h-24l-340 879l-318 -705l-78 -174h-22z" glyph-name="Wcircumflex" horiz-adv-x="1986" unicode="Ŵ"/><glyph d="M524 1214q158 145 244 281h92q86 -135 244 -281q8 -8 6 -18t-9 -14t-18 0h2q-147 66 -272 180q-121 -115 -270 -180q-14 -8 -22.5 6t3.5 26zM465 -35l-445 1082h158l389 -932q236 346 224 626q-2 63 -39 148l-68 158h201l370 -928q285 381 285 598q0 285 -307 284l-2 48 q352 0 352 -336q0 -98 -51 -221t-106.5 -209t-149.5 -215l-68 -101h-51l-328 809l5 -33q8 -168 -67 -353t-194 -349l-2 2l-57 -78h-49z" glyph-name="wcircumflex" horiz-adv-x="1644" unicode="ŵ"/><glyph d="M342 1620q158 145 244 281h92q86 -135 244 -281q8 -8 6 -18.5t-9.5 -14.5t-17.5 0h2q-147 66 -272 180q-121 -115 -271 -180q-14 -8 -22 6.5t4 26.5zM545 641l-504 809h199l426 -690l491 690h60l-510 -711v-755h-162v657z" glyph-name="Ycircumflex" horiz-adv-x="1296" unicode="Ŷ"/><glyph d="M350 1214q158 145 244 281h92q86 -135 244 -281q8 -8 6 -18t-9 -14t-18 0h2q-147 66 -272 180q-121 -115 -270 -180q-14 -8 -22.5 6t3.5 26zM20 -336l41 10q10 -47 48 -73.5t94 -24.5q96 2 196.5 104.5t233.5 292.5l-453 1074h158l397 -928q285 377 285 598 q0 145 -84 214.5t-260 69.5v48q199 0 293 -81t94 -255q0 -78 -24.5 -158t-86 -185.5t-93.5 -151.5t-118 -171l-57 -82q-68 -98 -115 -159.5t-113.5 -133t-130 -107.5t-124.5 -36q-72 0 -122.5 37t-58.5 98z" glyph-name="ycircumflex" horiz-adv-x="1124" unicode="ŷ"/><glyph d="M451 1642q-41 0 -69 29t-28 68q0 41 28 67.5t69 26.5t68.5 -27.5t27.5 -66.5t-27.5 -68t-68.5 -29zM725 1739q0 41 27.5 67.5t68.5 26.5q39 0 66.5 -27.5t27.5 -66.5q0 -41 -27.5 -69t-66.5 -28t-67.5 29t-28.5 68zM545 641l-504 809h199l426 -690l491 690h60l-510 -711 v-755h-162v657z" glyph-name="Ydieresis" horiz-adv-x="1296" unicode="Ÿ"/><glyph d="M492 1583l-21 33q41 45 95.5 111.5t83 99.5t64.5 59.5t66 26.5q27 0 41.5 -18.5t12.5 -49.5q-2 -18 -24 -42.5t-61.5 -53.5t-75.5 -52.5t-93 -58.5t-88 -55zM14 18l914 1381h-764v51h966q12 0 15.5 -13.5t-4.5 -21.5l-916 -1380h897v-51h-1095q-12 0 -16.5 13t3.5 21z " glyph-name="Zacute" horiz-adv-x="1249" unicode="Ź"/><glyph d="M354 1180l-20 32q41 45 95 112t83 99.5t64.5 59t66.5 26.5q27 0 41 -18t12 -49q-2 -18 -23.5 -43t-61.5 -53.5t-75.5 -52t-93 -58.5t-88.5 -55zM836 -16h-811v26l657 983l-571 2v52h766v-29l-654 -983h613v-51z" glyph-name="zacute" horiz-adv-x="899" unicode="ź"/><glyph d="M522 1739q0 41 28 68.5t68 27.5q39 0 67 -28.5t28 -67.5q0 -41 -28 -69t-67 -28q-41 0 -68.5 29t-27.5 68zM14 18l914 1381h-764v51h966q12 0 15.5 -13.5t-4.5 -21.5l-916 -1380h897v-51h-1095q-12 0 -16.5 13t3.5 21z" glyph-name="Zdotaccent" horiz-adv-x="1249" unicode="Ż"/><glyph d="M385 1335q0 41 27.5 69t68.5 28q39 0 66.5 -29t27.5 -68q0 -41 -27.5 -68.5t-66.5 -27.5t-67.5 27.5t-28.5 68.5zM836 -16h-811v26l657 983l-571 2v52h766v-29l-654 -983h613v-51z" glyph-name="zdotaccent" horiz-adv-x="899" unicode="ż"/><glyph d="M330 1876q-12 12 -4 26.5t22 6.5q150 -66 270 -180q125 115 273 180h-2q8 6 16 1t9 -15.5t-5 -18.5q-158 -145 -243 -281h-93q-85 136 -243 281zM14 18l914 1381h-764v51h966q12 0 15.5 -13.5t-4.5 -21.5l-916 -1380h897v-51h-1095q-12 0 -16.5 13t3.5 21z" glyph-name="Zcaron" horiz-adv-x="1249" unicode="Ž"/><glyph d="M193 1473q-12 12 -4 26t22 6q150 -66 270 -180q125 115 273 180h-2q8 6 16 1t9 -15t-5 -18q-158 -145 -244 -281h-92q-85 136 -243 281zM836 -16h-811v26l657 983l-571 2v52h766v-29l-654 -983h613v-51z" glyph-name="zcaron" horiz-adv-x="899" unicode="ž"/><glyph d="M59 -2l41 22q35 -98 107 -152t166 -52q80 2 139 35.5t94 99t56.5 140.5t33 180.5t16.5 197.5t12 213t17 205h-94v51h101q33 233 125 365.5t284 136.5q106 4 192.5 -59.5t127.5 -174.5l-41 -22q-35 100 -108 154.5t-169 50.5q-94 -2 -153.5 -67t-84 -155t-38.5 -229h233 v-51h-237q-4 -63 -10.5 -182t-10.5 -194t-17.5 -182.5t-31.5 -178t-54 -149.5t-85 -125t-123 -77.5t-168 -34.5q-106 -4 -192.5 59.5t-127.5 174.5z" glyph-name="florin" horiz-adv-x="1339" unicode="ƒ"/><glyph d="M70 360l43 13v-4q14 -152 141 -252.5t305 -100.5q199 0 303.5 78t104.5 225q0 123 -109.5 217.5t-361.5 182.5q-350 129 -351 418q0 145 123 238t318 93q340 0 458 -292l-40 -23q-104 264 -418 264q-150 0 -238 -61.5t-88 -165.5q0 -199 315 -322q98 -37 155.5 -60.5 t138.5 -68.5t124 -91t76 -117.5t33 -157.5q0 -180 -152.5 -294t-390.5 -114q-178 0 -323.5 103.5t-165.5 291.5zM446 -496l5 2q141 61 167 189q-27 -16 -53 -17q-45 0 -73.5 28t-28.5 73q0 47 28.5 77.5t71.5 30.5q47 0 76 -30.5t29 -81.5q2 -109 -51.5 -193t-147.5 -119 q-20 -8 -29.5 8.5t6.5 32.5z" glyph-name="Scommaaccent" horiz-adv-x="1181" unicode="Ș"/><glyph d="M47 215l45 14q98 -211 346 -211q111 0 178.5 55.5t67.5 145.5q0 96 -60.5 150.5t-191.5 107.5q-147 53 -228 122t-81 198q0 119 92 193.5t238 74.5q121 0 216 -67.5t126 -176.5l-43 -18q-76 211 -303 211q-190 0 -191 -174q0 -84 55.5 -130t165.5 -85q74 -29 125 -54.5 t107.5 -67.5t86 -101.5t29.5 -135.5q0 -135 -106.5 -218t-280.5 -83q-137 0 -241.5 66.5t-151.5 183.5zM307 -494l4 2q141 61 168 189q-27 -16 -53 -16q-45 0 -73.5 27.5t-28.5 72.5q0 47 28.5 77.5t71.5 30.5q47 0 75.5 -30.5t28.5 -81.5q2 -109 -51 -193t-147 -119 q-20 -8 -29.5 8.5t6.5 32.5z" glyph-name="scommaaccent" horiz-adv-x="905" unicode="ș"/><glyph d="M514 1399h-483v51h1112v-51h-467v-1415h-162v1415zM492 -494l4 2q141 61 168 189q-27 -16 -54 -16q-45 0 -73.5 27.5t-28.5 72.5q0 47 28.5 77.5t71.5 30.5q47 0 76 -30.5t29 -81.5q2 -109 -51.5 -193t-147.5 -119q-20 -8 -29 8.5t7 32.5z" glyph-name="uni021A" horiz-adv-x="1173" unicode="Ț"/><glyph d="M-31 -537l-2 52q252 0 252 346v1169h148v-452l2 -594q0 -141 -39 -249t-103.5 -163t-129.5 -82t-128 -27z" glyph-name="uni0237" horiz-adv-x="557" unicode="ȷ"/><glyph d="M45 1217q158 145 244 280h92q86 -135 244 -280q8 -8 6 -18.5t-9.5 -14.5t-17.5 0h2q-147 66 -272 180q-121 -115 -271 -180q-14 -8 -22 6.5t4 26.5z" glyph-name="circumflex" horiz-adv-x="669" unicode="ˆ"/><glyph d="M45 1473q-12 12 -4 26t22 6q150 -66 271 -180q125 115 272 180h-2q8 6 16.5 1t9.5 -15t-5 -18q-158 -145 -244 -281h-92q-86 136 -244 281z" glyph-name="caron" horiz-adv-x="667" unicode="ˇ"/><glyph d="M49 1466q0 18 13.5 21.5t19.5 -12.5v-5q10 -70 77.5 -114.5t162.5 -44.5q90 0 155.5 41t79.5 106q2 33 21 31q14 -2 14 -23q2 -123 -72 -196.5t-198.5 -73.5t-199.5 74.5t-73 195.5z" glyph-name="breve" horiz-adv-x="641" unicode="˘"/><glyph d="M49 1335q0 41 27.5 69t68.5 28q39 0 67 -29t28 -68q0 -41 -28 -68.5t-67 -27.5t-67.5 27.5t-28.5 68.5z" glyph-name="dotaccent" horiz-adv-x="288" unicode="˙"/><glyph d="M326 1190q-66 0 -113 46t-47 111.5t47 112.5t113 47q63 0 108 -47t45 -112.5t-45 -111.5t-108 -46zM211 1347.5q0 -47.5 31.5 -77t83.5 -29.5q47 0 78.5 31t31.5 76t-31.5 76.5t-78.5 31.5q-49 0 -82 -30.5t-33 -78z" glyph-name="ring" horiz-adv-x="532" unicode="˚"/><glyph d="M311 -217q0 29 11.5 57.5t23.5 47t41 46t40 37t48 36t39 28.5l29 -37q-125 -84 -125 -193q0 -43 26.5 -72.5t63.5 -29.5q55 0 108 55q16 20 32 9t9 -27q-29 -43 -83 -71.5t-105 -28.5q-72 0 -115 40t-43 103z" glyph-name="ogonek" horiz-adv-x="1071" unicode="˛"/><glyph d="M49 1284q27 76 83 122t118 44q47 -2 142 -49t147 -49q63 -2 90 82q4 16 15 18t18.5 -7t5.5 -24v-2q-61 -174 -201 -168q-43 2 -141.5 49.5t-147.5 49.5q-33 2 -52.5 -16.5t-37.5 -65.5q-6 -14 -17.5 -16.5t-18.5 8t-3 24.5z" glyph-name="tilde" horiz-adv-x="716" unicode="˜"/><glyph d="M76 1180l-21 32q41 45 95.5 112t83 99.5t64.5 59t67 26.5q27 0 41 -18t12 -49q-2 -18 -23.5 -43t-61.5 -53.5t-76 -52t-93 -58.5t-88 -55zM383 1180l-21 32q41 45 95.5 112t83 99.5t64.5 59t67 26.5q27 0 41 -18t12 -49q-2 -18 -23.5 -43t-61.5 -53.5t-76 -52t-93 -58.5 t-88 -55z" glyph-name="hungarumlaut" horiz-adv-x="1157" unicode="˝"/><glyph d="M-199 1212l-20 -32q-31 20 -88.5 55t-93 58.5t-75.5 52t-61.5 53t-23.5 43.5q-2 31 12 49t41 18q31 0 66.5 -26.5t64.5 -59t83 -99.5t95 -112z" glyph-name="gravecomb" unicode="̀"/><glyph d="M-506 1180l-20 32q41 45 95 112t83 99.5t64.5 59t66.5 26.5q27 0 41 -18t12 -49q-2 -18 -23.5 -43t-61.5 -53.5t-75.5 -52t-93 -58.5t-88.5 -55z" glyph-name="acutecomb" unicode="́"/><glyph d="M-625 1217q158 145 244 280h92q86 -135 244 -280q8 -8 6 -18.5t-9 -14.5t-18 0h3q-147 66 -273 180q-121 -115 -270 -180q-14 -8 -22.5 6.5t3.5 26.5z" glyph-name="uni0302" unicode="̂"/><glyph d="M-668 1284q27 76 83.5 122t117.5 44q47 -2 142.5 -49t146.5 -49q63 -2 90 82q4 16 15.5 18t18.5 -7t5 -24v-2q-61 -174 -201 -168q-43 2 -141 49.5t-148 49.5q-33 2 -52 -16.5t-38 -65.5q-6 -14 -17 -16.5t-18.5 8t-3.5 24.5z" glyph-name="tildecomb" unicode="̃"/><glyph d="M-236 1317h-501v51h501v-51z" glyph-name="uni0304" unicode="̄"/><glyph d="M-592 1466q0 18 13.5 21.5t19.5 -12.5v-5q10 -70 77.5 -114.5t162.5 -44.5q90 0 155.5 41t79.5 106q2 33 21 31q14 -2 14 -23q2 -123 -72 -196.5t-198.5 -73.5t-199.5 74.5t-73 195.5z" glyph-name="uni0306" unicode="̆"/><glyph d="M-240 1335q0 41 28 69t69 28q39 0 66.5 -29t27.5 -68q0 -41 -27.5 -68.5t-66.5 -27.5q-41 0 -69 27.5t-28 68.5z" glyph-name="uni0307" unicode="̇"/><glyph d="M-508 1239q-41 0 -68.5 27.5t-27.5 68.5t27.5 68t68.5 27t68.5 -28t27.5 -67q0 -41 -27.5 -68.5t-68.5 -27.5zM-233 1335q0 41 27.5 68t68.5 27q39 0 66.5 -28t27.5 -67q0 -41 -27.5 -68.5t-66.5 -27.5t-67.5 27.5t-28.5 68.5z" glyph-name="uni0308" unicode="̈"/><glyph d="M-207 1190q-66 0 -113 46t-47 111.5t47.5 112.5t112.5 47q63 0 108.5 -47t45.5 -112.5t-45.5 -111.5t-108.5 -46zM-322 1347.5q0 -47.5 32 -77t83 -29.5q47 0 79 31t32 76t-32 76.5t-79 31.5q-49 0 -82 -30.5t-33 -78z" glyph-name="uni030A" unicode="̊"/><glyph d="M-1081 1180l-21 32q41 45 95.5 112t83 99.5t64.5 59t66 26.5q27 0 41.5 -18t12.5 -49q-2 -18 -23.5 -43t-61.5 -53.5t-76 -52t-93 -58.5t-88 -55zM-774 1180l-21 32q41 45 95.5 112t83 99.5t64.5 59t67 26.5q27 0 41 -18t12 -49q-2 -18 -23.5 -43t-61.5 -53.5t-76 -52 t-93 -58.5t-88 -55z" glyph-name="uni030B" unicode="̋"/><glyph d="M-623 1473q-12 12 -3.5 26t22.5 6q150 -66 270 -180q125 115 273 180h-2q8 6 16 1t9 -15t-5 -18q-158 -145 -244 -281h-92q-86 136 -244 281z" glyph-name="uni030C" unicode="̌"/><glyph d="M-506 1548l-4 -2q-141 -61 -168 -188q27 16 53 16q45 0 74 -27.5t29 -72.5q0 -47 -29 -78t-72 -31q-47 0 -75.5 31t-28.5 82q-2 109 51 192.5t148 118.5q20 8 29 -8.5t-7 -32.5z" glyph-name="uni0312" unicode="̒"/><glyph d="M-393 -213q0 41 27.5 68.5t68.5 27.5q39 0 66.5 -28.5t27.5 -67.5q0 -41 -27.5 -68.5t-66.5 -27.5t-67.5 27.5t-28.5 68.5z" glyph-name="dotbelowcomb" unicode="̣"/><glyph d="M-559 -494l4 2q141 61 168 189q-27 -16 -53 -16q-45 0 -74 27.5t-29 72.5q0 47 29 77.5t72 30.5q47 0 75.5 -30.5t28.5 -81.5q2 -109 -51 -193t-148 -119q-20 -8 -29 8.5t7 32.5z" glyph-name="uni0326" unicode="̦"/><glyph d="M-887 -334q-8 29 15 35q12 4 20 -14q10 -23 47 -38.5t82 -15.5q100 0 100 80q4 78 -182 86l119 217h51l-67 -125q88 -12 137 -53t49 -102q0 -66 -60.5 -110t-148.5 -44q-53 0 -100.5 24.5t-61.5 59.5z" glyph-name="uni0327" unicode="̧"/><glyph d="M-760 -217q0 29 11.5 57.5t23.5 47t41 46t40 37t48 36t39 28.5l29 -37q-125 -84 -125 -193q0 -43 26.5 -72.5t63.5 -29.5q55 0 108 55q16 20 31.5 9t9.5 -27q-29 -43 -83 -71.5t-105 -28.5q-72 0 -115 40t-43 103z" glyph-name="uni0328" unicode="̨"/><glyph d="M-47 545h-524v49h524v-49z" glyph-name="uni0335" unicode="̵"/><glyph d="M-47 545h-762v51h762v-51z" glyph-name="uni0336" unicode="̶"/><glyph d="M-610 420l452 262q14 8 24.5 0t10.5 -21.5t-12 -23.5l-453 -262q-23 -10 -32.5 11.5t10.5 33.5z" glyph-name="uni0337" unicode="̷"/><glyph d="M-1227 -164l-37 29l1123 1698l37 -31z" glyph-name="uni0338" unicode="̸"/><glyph d="M1153 1614l-20 -33q-31 20 -88.5 55t-93.5 58.5t-75.5 52.5t-61 53.5t-23.5 42.5q-2 31 12 49.5t41 18.5q31 0 66.5 -26.5t64.5 -59.5t83 -99.5t95 -111.5zM594 -37l-621 1485h181l518 -1255l317 706l-192 498q16 0 62 25.5t63 41.5q12 12 24 0l486 -1257l505 1243h50 l-541 -1325l-70 -162h-24l-340 879l-318 -705l-78 -174h-22z" glyph-name="Wgrave" horiz-adv-x="1986" unicode="Ẁ"/><glyph d="M961 1210l-21 -32q-31 20 -88 55t-93 58.5t-76 52t-61.5 53t-23.5 43.5q-2 31 12.5 49t40.5 18q31 0 67 -26.5t64.5 -59t83 -99.5t95.5 -112zM465 -35l-445 1082h158l389 -932q236 346 224 626q-2 63 -39 148l-68 158h201l370 -928q285 381 285 598q0 285 -307 284l-2 48 q352 0 352 -336q0 -98 -51 -221t-106.5 -209t-149.5 -215l-68 -101h-51l-328 809l5 -33q8 -168 -67 -353t-194 -349l-2 2l-57 -78h-49z" glyph-name="wgrave" horiz-adv-x="1644" unicode="ẁ"/><glyph d="M881 1581l-21 33q41 45 95.5 111.5t83 99.5t64.5 59.5t66 26.5q27 0 41.5 -18.5t12.5 -49.5q-2 -18 -23.5 -42.5t-61.5 -53.5t-76 -52.5t-93 -58.5t-88 -55zM594 -37l-621 1485h181l518 -1255l317 706l-192 498q16 0 62 25.5t63 41.5q12 12 24 0l486 -1257l505 1243h50 l-541 -1325l-70 -162h-24l-340 879l-318 -705l-78 -174h-22z" glyph-name="Wacute" horiz-adv-x="1986" unicode="Ẃ"/><glyph d="M688 1178l-20 32q41 45 95 112t82.5 99.5t64.5 59t67 26.5q27 0 41 -18.5t12 -48.5q-2 -18 -23.5 -43t-61.5 -53.5t-75.5 -52t-93 -58.5t-88.5 -55zM465 -35l-445 1082h158l389 -932q236 346 224 626q-2 63 -39 148l-68 158h201l370 -928q285 381 285 598q0 285 -307 284 l-2 48q352 0 352 -336q0 -98 -51 -221t-106.5 -209t-149.5 -215l-68 -101h-51l-328 809l5 -33q8 -168 -67 -353t-194 -349l-2 2l-57 -78h-49z" glyph-name="wacute" horiz-adv-x="1644" unicode="ẃ"/><glyph d="M825 1640q-39 0 -67.5 28t-28.5 69t27.5 67.5t68.5 26.5t69 -27.5t28 -66.5q0 -41 -29 -69t-68 -28zM1100 1737q0 41 27.5 67.5t68.5 26.5q39 0 66.5 -27.5t27.5 -66.5q0 -41 -27.5 -69t-66.5 -28q-41 0 -68.5 28t-27.5 69zM594 -37l-621 1485h181l518 -1255l317 706 l-192 498q16 0 62 25.5t63 41.5q12 12 24 0l486 -1257l505 1243h50l-541 -1325l-70 -162h-24l-340 879l-318 -705l-78 -174h-22z" glyph-name="Wdieresis" horiz-adv-x="1986" unicode="Ẅ"/><glyph d="M633 1237q-39 0 -67.5 28.5t-28.5 67.5q0 41 27.5 67.5t68.5 26.5t68.5 -27.5t27.5 -66.5t-28.5 -67.5t-67.5 -28.5zM907 1333q0 41 28 67.5t69 26.5q39 0 66.5 -27.5t27.5 -66.5q0 -41 -28 -68.5t-66 -27.5q-41 0 -69 28.5t-28 67.5zM465 -35l-445 1082h158l389 -932 q236 346 224 626q-2 63 -39 148l-68 158h201l370 -928q285 381 285 598q0 285 -307 284l-2 48q352 0 352 -336q0 -98 -51 -221t-106.5 -209t-149.5 -215l-68 -101h-51l-328 809l5 -33q8 -168 -67 -353t-194 -349l-2 2l-57 -78h-49z" glyph-name="wdieresis" horiz-adv-x="1644" unicode="ẅ"/><glyph d="M778 1616l-20 -33q-31 20 -88.5 55t-93 58.5t-75.5 52.5t-61.5 53.5t-23.5 42.5q-2 31 12 49.5t41 18.5q31 0 66.5 -26.5t64.5 -59.5t83 -99.5t95 -111.5zM545 641l-504 809h199l426 -690l491 690h60l-510 -711v-755h-162v657z" glyph-name="Ygrave" horiz-adv-x="1296" unicode="Ỳ"/><glyph d="M786 1210l-20 -32q-31 20 -88 55t-93 58.5t-76 52t-61.5 53t-23.5 43.5q-2 31 12.5 49t40.5 18q31 0 67 -26.5t64.5 -59t82.5 -99.5t95 -112zM20 -336l41 10q10 -47 48 -73.5t94 -24.5q96 2 196.5 104.5t233.5 292.5l-453 1074h158l397 -928q285 377 285 598 q0 145 -84 214.5t-260 69.5v48q199 0 293 -81t94 -255q0 -78 -24.5 -158t-86 -185.5t-93.5 -151.5t-118 -171l-57 -82q-68 -98 -115 -159.5t-113.5 -133t-130 -107.5t-124.5 -36q-72 0 -122.5 37t-58.5 98z" glyph-name="ygrave" horiz-adv-x="1124" unicode="ỳ"/><glyph d="M1116 547h-1048v51h1048v-51z" glyph-name="endash" horiz-adv-x="1181" unicode="–"/><glyph d="M1546 547h-1499v51h1499v-51z" glyph-name="emdash" horiz-adv-x="1593" unicode="—"/><glyph d="M319 1460l19 -49q-168 -51 -188 -211q27 20 63 21q47 0 79 -32t32 -79q0 -49 -32 -83t-77 -34q-51 0 -83 34t-32 89q-4 274 219 344z" glyph-name="quoteleft" horiz-adv-x="450" unicode="‘"/><glyph d="M131 993l-18 49q168 51 188 211q-27 -20 -63 -20q-47 0 -79 31.5t-32 78.5q0 49 31.5 83t77.5 34q51 0 82.5 -33.5t31.5 -89.5q4 -274 -219 -344z" glyph-name="quoteright" horiz-adv-x="450" unicode="’"/><glyph d="M131 -274l-18 49q168 51 188 211q-27 -20 -63 -21q-47 0 -79 32t-32 79q0 49 31.5 83t77.5 34q51 0 82.5 -34t31.5 -89q4 -274 -219 -344z" glyph-name="quotesinglbase" horiz-adv-x="450" unicode="‚"/><glyph d="M319 1460l19 -49q-168 -51 -188 -211q27 20 63 21q47 0 79 -32t32 -79q0 -49 -32 -83t-77 -34q-51 0 -83 34t-32 89q-4 274 219 344zM629 1460l18 -49q-168 -51 -188 -211q27 20 63 21q47 0 79 -32t32 -79q0 -49 -32 -83t-77 -34q-51 0 -82.5 34t-31.5 89q-4 274 219 344 z" glyph-name="quotedblleft" horiz-adv-x="759" unicode="“"/><glyph d="M131 993l-18 49q168 51 188 211q-27 -20 -63 -20q-47 0 -79 31.5t-32 78.5q0 49 31.5 83t77.5 34q51 0 82.5 -33.5t31.5 -89.5q4 -274 -219 -344zM440 993l-18 49q168 51 188 211q-27 -20 -63 -20q-47 0 -79 31.5t-32 78.5q0 49 32 83t77 34q51 0 82.5 -33.5t31.5 -89.5 q4 -274 -219 -344z" glyph-name="quotedblright" horiz-adv-x="759" unicode="”"/><glyph d="M131 -274l-18 49q168 51 188 211q-27 -20 -63 -21q-47 0 -79 32t-32 79q0 49 31.5 83t77.5 34q51 0 82.5 -34t31.5 -89q4 -274 -219 -344zM440 -274l-18 49q168 51 188 211q-27 -20 -63 -21q-47 0 -79 32t-32 79q0 49 32 83t77 34q51 0 82.5 -34t31.5 -89 q4 -274 -219 -344z" glyph-name="quotedblbase" horiz-adv-x="759" unicode="„"/><glyph d="M186 973l-110 104l110 107q66 4 224 -70q-76 197 -70 246l104 115l95 -109q6 -41 -70 -252q158 76 221 72l111 -109l-111 -104q-76 -2 -231 78q12 -111 78 -322v-8q-76 -367 -80 -768h-33q0 403 -82 768v8q53 186 76 322q-187 -80 -232 -78z" glyph-name="dagger" horiz-adv-x="880" unicode="†"/><glyph d="M186 242l-110 106l110 105q45 2 232 -78q-29 182 -82 348q53 166 82 348q-186 -80 -232 -78l-110 105l110 106q66 4 224 -69q-76 197 -70 245l104 115l95 -109q6 -41 -70 -251q158 76 221 71l111 -108l-111 -105q-76 -2 -231 78q12 -133 84 -348q-72 -215 -84 -348 q156 80 231 78l111 -105l-111 -108q-63 -4 -221 71q78 -199 70 -250l-95 -110l-104 115q-6 49 70 245q-158 -73 -224 -69z" glyph-name="daggerdbl" horiz-adv-x="880" unicode="‡"/><glyph d="M121 686q0 59 40 99t99 40q55 0 95 -41t40 -98q0 -59 -39 -100t-96 -41t-98 41t-41 100z" glyph-name="bullet" horiz-adv-x="516" unicode="•"/><glyph d="M121 78q0 49 32.5 82t82.5 33q47 0 79.5 -34t32.5 -81q0 -49 -32.5 -83t-80 -34t-81 35t-33.5 82zM590 78q0 49 32.5 82t82.5 33q47 0 79.5 -34t32.5 -81q0 -49 -32.5 -83t-80 -34t-81 35t-33.5 82zM1059 78q0 49 32.5 82t82.5 33q47 0 79.5 -34t32.5 -81 q0 -49 -32.5 -83t-80 -34t-81 35t-33.5 82z" glyph-name="ellipsis" horiz-adv-x="1406" unicode="…"/><glyph d="M571 -92l-43 16l721 1555l39 -21zM422 682q-154 0 -250 107.5t-96 279.5q0 170 101.5 287t248.5 117q158 0 256 -109t98 -283q0 -170 -103 -284.5t-255 -114.5zM434 733q92 0 148.5 87t56.5 231q0 160 -61.5 264t-157.5 106q-90 0 -147.5 -89t-57.5 -232 q0 -162 61.5 -264.5t157.5 -102.5zM2146 -25q-164 0 -265 112t-101 292t101 291.5t265 111.5q166 0 268.5 -111.5t102.5 -291.5t-102.5 -292t-268.5 -112zM1395 -31q-154 0 -251 108.5t-97 278.5t101 287t251 117q156 0 255 -108.5t99 -280.5q0 -170 -103 -286t-255 -116z M1911 379q0 -174 60.5 -265t175 -91t177 93t62.5 263q0 168 -63.5 262t-176 94t-174 -93t-61.5 -263zM1405 23q92 0 148.5 86t56.5 229q0 162 -61.5 266.5t-155.5 104.5q-90 0 -147.5 -88.5t-57.5 -231.5q0 -162 60.5 -264t156.5 -102z" glyph-name="perthousand" horiz-adv-x="2592" unicode="‰"/><glyph d="M106 473h-2q-14 4 -13 22.5t13 22.5h2v4l5 -2q332 125 424 404q10 23 28.5 14.5t11.5 -31.5q-94 -285 -397 -413q307 -131 397 -410q6 -23 -12 -32t-28 14q-88 276 -420 403l-9 -2v6z" glyph-name="guilsinglleft" horiz-adv-x="712" unicode="‹"/><glyph d="M608 473h-2v-6l-8 2q-332 -127 -420 -403q-10 -23 -28.5 -14t-12.5 32q90 279 398 410q-303 129 -398 413q-6 23 12.5 31t28.5 -14q92 -279 424 -404l4 2v-4h2q12 -4 13 -22.5t-13 -22.5z" glyph-name="guilsinglright" horiz-adv-x="712" unicode="›"/><glyph d="M-123 -115l-45 11l737 1587l39 -21z" glyph-name="fraction" horiz-adv-x="399" unicode="⁄"/><glyph d="M387 823q-164 0 -265.5 112t-101.5 292t101.5 291.5t265.5 111.5q166 0 268.5 -111.5t102.5 -291.5t-102.5 -292t-268.5 -112zM152 1227q0 -174 60 -265.5t175 -91.5t177.5 93.5t62.5 263.5q0 168 -63.5 262t-176.5 94t-174 -93t-61 -263z" glyph-name="uni2070" horiz-adv-x="778" unicode="⁰"/><glyph d="M39 1028l-12 33l452 577l21 -18v-549h86v-43h-86v-194h-127v194h-334zM373 1442l-293 -371h293v371z" glyph-name="uni2074" horiz-adv-x="626" unicode="⁴"/><glyph d="M20 1026l35 10q14 -78 81 -124t163 -46t140 51.5t44 163.5q0 102 -48 172t-120 70q-133 0 -219 -115l-37 19l78 393q59 -2 138 -7t117 -6t84 1t74 13t52 32l35 -19q-53 -104 -165 -139t-327 -16l-39 -203q88 90 209 90q133 0 221.5 -77t88.5 -193q0 -121 -90.5 -197 t-235.5 -76q-109 0 -185 55.5t-94 147.5z" glyph-name="uni2075" horiz-adv-x="673" unicode="⁵"/><glyph d="M23 1190q0 180 104 310t266 130q94 0 151.5 -49t67.5 -129l-34 -6q-23 139 -185 141q-129 0 -186 -95t-57 -304q31 63 90 103t129 40q117 0 196.5 -69.5t79.5 -174.5q0 -119 -84 -191.5t-219 -72.5t-227 105.5t-92 261.5zM164 1020q35 -154 178 -154q174 0 174 215 q0 209 -147 209q-94 0 -154.5 -75.5t-50.5 -194.5z" glyph-name="uni2076" horiz-adv-x="663" unicode="⁶"/><glyph d="M68 1485l-70 135h588l10 -35q-18 -25 -101 -124t-128 -165q-143 -205 -140 -462h-131q-14 145 240 487q55 74 131 164h-399z" glyph-name="uni2077" horiz-adv-x="598" unicode="⁷"/><glyph d="M20 1047q0 57 63.5 114.5t164.5 91.5q-190 70 -191 189q0 76 86 132t197 56q133 0 212 -53t79 -143q0 -106 -189 -189q229 -59 230 -207q0 -90 -96.5 -152.5t-235.5 -62.5t-229.5 63t-90.5 161zM201 1468q0 -78 31.5 -130t89.5 -64l49 -12q121 61 121 163q0 90 -37 126 t-129 36q-53 0 -89 -34t-36 -85zM168 1057q0 -86 46 -138.5t126 -52.5q86 0 134 42t48 116q0 39 -3 62.5t-15 50t-39 45t-72 30.5l-69 19q-156 -57 -156 -174z" glyph-name="uni2078" horiz-adv-x="690" unicode="⁸"/><glyph d="M641 1262q0 -180 -104.5 -310.5t-266.5 -130.5q-94 0 -151.5 49.5t-67.5 128.5l35 7q23 -139 184 -142q129 0 186.5 95.5t57.5 304.5q-31 -63 -90 -103.5t-129 -40.5q-117 0 -197 70t-80 174q0 119 84 191.5t219.5 72.5t227.5 -105t92 -261zM500 1432q-35 154 -178 153 q-174 0 -175 -215q0 -209 148 -209q94 0 154.5 76t50.5 195z" glyph-name="uni2079" horiz-adv-x="663" unicode="⁹"/><glyph d="M387 -238q-164 0 -265.5 112t-101.5 292t101.5 291.5t265.5 111.5q166 0 268.5 -111.5t102.5 -291.5t-102.5 -292t-268.5 -112zM152 166q0 -174 60 -265t175 -91t177.5 93t62.5 263q0 168 -63.5 262t-176.5 94t-174 -93t-61 -263z" glyph-name="uni2080" horiz-adv-x="778" unicode="₀"/><glyph d="M16 381l-16 39l229 147q12 8 20.5 5t8.5 -17v-596q0 -102 14.5 -124.5t75.5 -24.5v-41q-41 0 -72.5 2t-39.5 2h-80q-8 0 -40 -2t-73 -2v41q61 2 76.5 26.5t15.5 122.5v498z" glyph-name="uni2081" horiz-adv-x="387" unicode="₁"/><glyph d="M23 -262l-5 51q0 49 16.5 87t55.5 67.5t67.5 45t86.5 42.5q59 27 93 47t75 54t59 81t18 109q0 106 -36.5 153t-120.5 51q-182 0 -209 -164l-35 9q10 90 79 146t165 52q135 -6 217 -69.5t82 -159.5q0 -66 -29 -119t-87 -94t-107.5 -65.5t-122.5 -57.5q-16 -6 -25 -10 q-92 -43 -133 -72q20 4 35 4q49 0 149.5 -24.5t147.5 -24.5q35 0 57.5 3t58 17.5t59 50.5t36.5 93l30 -6v-2q0 -125 -76.5 -205t-172.5 -80q-74 0 -158 67.5t-131 67.5q-109 0 -109 -145h-30z" glyph-name="uni2082" horiz-adv-x="722" unicode="₂"/><glyph d="M29 -53l37 14q51 -156 235 -156q209 0 209 205q0 190 -246 191v41q117 0 157 30.5t40 116.5q0 137 -146 137q-78 -4 -127 -46t-59 -115l-35 6q10 84 68.5 137t150.5 61q121 4 199 -46t78 -130q0 -127 -135 -170q190 -45 190 -217q0 -109 -96 -176.5t-248 -67.5 q-98 0 -171.5 50.5t-100.5 134.5z" glyph-name="uni2083" horiz-adv-x="663" unicode="₃"/><glyph d="M39 -33l-12 33l452 578l21 -19v-549h86v-43h-86v-194h-127v194h-334zM373 381l-293 -371h293v371z" glyph-name="uni2084" horiz-adv-x="626" unicode="₄"/><glyph d="M20 -35l35 10q14 -78 81 -124t163 -46t140 51.5t44 163.5q0 102 -48 172t-120 70q-133 0 -219 -115l-37 19l78 393q59 -2 138 -7t117 -6t84 1t74 13t52 32l35 -19q-53 -104 -165 -139t-327 -16l-39 -203q88 90 209 90q133 0 221.5 -76.5t88.5 -193.5q0 -121 -90.5 -197 t-235.5 -76q-109 0 -185 55.5t-94 147.5z" glyph-name="uni2085" horiz-adv-x="673" unicode="₅"/><glyph d="M23 129q0 180 104 310t266 130q94 0 151.5 -49t67.5 -129l-34 -6q-23 139 -185 141q-129 0 -186 -95t-57 -304q31 63 90 103t129 40q117 0 196.5 -69.5t79.5 -173.5q0 -119 -84 -192t-219 -73t-227 105.5t-92 261.5zM164 -41q35 -154 178 -154q174 0 174 215 q0 209 -147 209q-94 0 -154.5 -75.5t-50.5 -194.5z" glyph-name="uni2086" horiz-adv-x="663" unicode="₆"/><glyph d="M68 424l-70 135h588l10 -35q-18 -25 -101 -124t-128 -164q-143 -205 -140 -463h-131q-14 145 240 487q55 74 131 164h-399z" glyph-name="uni2087" horiz-adv-x="598" unicode="₇"/><glyph d="M20 -14q0 57 63.5 114.5t164.5 92.5q-190 70 -191 188q0 76 86 132t197 56q133 0 212 -53t79 -143q0 -106 -189 -189q229 -59 230 -207q0 -90 -96.5 -152.5t-235.5 -62.5t-229.5 63t-90.5 161zM201 408q0 -78 31.5 -130.5t89.5 -64.5l49 -12q121 61 121 164 q0 90 -37 125.5t-129 35.5q-53 0 -89 -33.5t-36 -84.5zM168 -4q0 -86 46 -138.5t126 -52.5q86 0 134 42t48 116q0 39 -3 62.5t-15 50t-39 45t-72 31.5l-69 18q-156 -57 -156 -174z" glyph-name="uni2088" horiz-adv-x="690" unicode="₈"/><glyph d="M641 201q0 -180 -104.5 -310.5t-266.5 -130.5q-94 0 -151.5 49.5t-67.5 129.5l35 6q23 -139 184 -142q129 0 186.5 95.5t57.5 304.5q-31 -63 -90 -103.5t-129 -40.5q-117 0 -197 70t-80 174q0 119 84 191.5t219.5 72.5t227.5 -105t92 -261zM500 371q-35 154 -178 153 q-174 0 -175 -215q0 -209 148 -209q94 0 154.5 76t50.5 195z" glyph-name="uni2089" horiz-adv-x="663" unicode="₉"/><glyph d="M227 545h-147v51h141q-6 47 -6 96q0 59 10 131h-145v51h156q59 262 264 428t481 166q186 0 328.5 -91t208.5 -253l-39 -24l-2 2q-127 315 -516 315q-211 0 -368 -141t-190 -402h641v-51h-645q-2 -20 -2 -65q0 -86 13 -162h634v-51h-624q51 -233 209.5 -366.5 t392.5 -133.5q205 0 355.5 117t230.5 340l39 -23q-92 -250 -270.5 -383t-424.5 -133q-285 0 -481.5 160t-243.5 422z" glyph-name="Euro" horiz-adv-x="1638" unicode="€"/><glyph d="M1808 901q-131 0 -215 79t-84 202q0 127 93.5 215t228.5 88q131 0 212 -79t81 -206t-91.5 -213t-224.5 -86zM207 -14h-45v1464h84l1040 -1206v1206h43v-1448q0 -18 -13 -22.5t-26 10.5l-1083 1259v-1263zM1833 952q70 0 112 54.5t42 144.5q0 117 -57.5 201t-133.5 80 q-70 -2 -109.5 -55.5t-39.5 -143.5q0 -117 53 -199t133 -82zM2093 795h-547v51h547v-51z" glyph-name="afii61352" horiz-adv-x="2142" unicode="№"/><glyph d="M76 969q0 207 146.5 354t353 147t353 -147t146.5 -354q0 -209 -146.5 -357.5t-353 -148.5t-353 148.5t-146.5 357.5zM119 969q0 -186 135 -320.5t321 -134.5q188 0 322.5 134t134.5 321q0 184 -135 317t-321.5 133t-321.5 -133t-135 -317zM504 680h-80v614h180 q109 0 174.5 -50t65.5 -132t-65.5 -132t-172.5 -50h-104zM502 1163v-182h112q63 0 101.5 36t38.5 95t-40 96t-108 37h-100q-4 -29 -4 -82z" glyph-name="uni2117" horiz-adv-x="1150" unicode="℗"/><glyph d="M444 1401h-266v51h680v-51h-262v-842h-152v842zM1108 561h-43v891l94 -2l371 -489l330 491h112v-893l-153 -2v750l-258 -387l53 -70q-94 -98 -90 -84q-10 -18 -27 -2l-389 508v-711z" glyph-name="trademark" horiz-adv-x="2222" unicode="™"/><glyph d="M584 416q-197 160 -486 264q-16 8 -16 18.5t16 18.5q297 111 486 264q18 14 32.5 1t-0.5 -32q-23 -25 -52 -60.5t-44.5 -53t-49.5 -49t-81 -66.5h774l82 172q10 23 37 28t111 5h24l-84 -205h45l72 172q6 20 33.5 26.5t113.5 6.5h23l-80 -228l80 -225h-23q-86 0 -113.5 6 t-33.5 27l-72 172h-45l84 -205h-24q-84 0 -111 5t-37 28l-82 172h-774q47 -35 81 -66.5t49.5 -49t45 -53.5t51.5 -60q14 -18 -1 -32.5t-31 -0.5z" glyph-name="arrowleft" horiz-adv-x="1636" unicode="←"/><glyph d="M94 975q160 197 264 485q8 16 18.5 16.5t18.5 -16.5q111 -297 264 -485q14 -18 1 -32.5t-31 -0.5q-25 23 -61 52.5t-53 45t-49 49t-67 80.5v-774l172 -82q23 -10 28 -36.5t5 -110.5v-25l-205 84v-45l172 -71q20 -6 26.5 -34t6.5 -114v-22l-227 79l-225 -79v22 q0 86 6 113.5t26 34.5l172 71v45l-204 -84v25q0 84 5 110.5t27 36.5l172 82v774q-35 -47 -66.5 -80.5t-49 -49t-53 -45t-60.5 -52.5q-18 -14 -32.5 1.5t-0.5 31.5z" glyph-name="arrowup" horiz-adv-x="753" unicode="↑"/><glyph d="M1087 420q-16 -14 -31.5 0t-0.5 33q23 25 52.5 60.5t44.5 53t49 49t81 66.5h-774l-82 -172q-10 -23 -37 -28t-110 -5h-25l84 205h-45l-72 -172q-6 -20 -33.5 -26.5t-113.5 -6.5h-23l80 225l-80 228h23q86 0 113.5 -6t33.5 -27l72 -172h45l-84 205h25q84 0 110.5 -5 t36.5 -28l82 -172h774q-47 35 -81 66.5t-49 49t-45 53.5t-52 60q-14 18 0 31.5t32 -0.5q188 -154 486 -264q16 -8 16 -18.5t-16 -18.5q-289 -104 -486 -264z" glyph-name="arrowright" horiz-adv-x="1636" unicode="→"/><glyph d="M94 475q-14 16 0.5 31.5t32.5 1.5q25 -23 60.5 -52.5t53 -45t49.5 -49t66 -80.5v774l-172 82q-23 10 -27.5 36.5t-4.5 110.5v25l204 -84v45l-172 71q-20 6 -26 34t-6 114v22l225 -79l227 79v-22q0 -86 -6 -113.5t-27 -34.5l-172 -71v-45l205 84v-25q0 -84 -5 -110.5 t-28 -36.5l-172 -82v-774q35 47 67 80.5t49 49t53 45t61 52.5q18 14 31.5 0t-1.5 -33q-154 -188 -264 -485q-8 -16 -18 -16.5t-19 16.5q-104 288 -264 485z" glyph-name="arrowdown" horiz-adv-x="712" unicode="↓"/><glyph d="M90 623q-14 6 -14 21t14 22q293 109 488 266q18 10 28 -6.5t-2 -32.5q-18 -23 -50 -60.5t-47 -54t-47 -46.5t-75 -62h807q-43 33 -75 62.5t-47 46t-47 54t-50 60.5q-12 16 -2 32.5t28 6.5q195 -158 488 -266q14 -6 14 -21.5t-14 -21.5q-291 -109 -486 -265 q-12 -10 -22 -5t-11 17.5t5 24.5q18 23 50 61t47 54t47 46t75 62h-807q43 -33 75 -62.5t47 -45.5t47 -54t50 -61q8 -10 5 -23.5t-12 -17.5t-22 4q-194 156 -485 265z" glyph-name="arrowboth" horiz-adv-x="1542" unicode="↔"/><glyph d="M352 1427q6 14 21.5 14.5t21.5 -14.5q109 -293 267 -487q10 -18 -6.5 -28.5t-32.5 1.5q-23 18 -61 50t-54 47.5t-46 47.5t-63 75v-807q33 43 63 74.5t46 47t54 47t61 50.5q16 12 32.5 2t6.5 -29q-158 -195 -267 -487q-6 -14 -21.5 -14.5t-21.5 14.5q-109 291 -264 485 q-10 12 -5 22.5t17.5 11.5t24.5 -5q23 -18 60.5 -50t54 -47.5t46 -47t62.5 -74.5v807q-33 -43 -62.5 -75t-46 -47.5t-54.5 -47t-60 -50.5q-10 -8 -23.5 -5t-17.5 12.5t4 21.5q155 194 264 485z" glyph-name="arrowupdn" horiz-adv-x="712" unicode="↕"/><glyph d="M227 737q-27 254 -155 531q-8 16 0 24t24 2q285 -131 531 -157q14 -2 20 -12.5t1 -20.5t-19 -12q-33 -2 -79 -6.5t-70.5 -5.5t-71 1t-103.5 11l547 -549l180 63q25 8 47.5 -6t79.5 -74l19 -18l-205 -84l33 -33l172 72q18 10 41.5 -5.5t85.5 -76.5l16 -16l-217 -105 l-103 -215l-16 16q-61 61 -76.5 85t-5.5 42l72 172l-33 33l-84 -205l-18 19q-59 57 -74.5 79.5t-7.5 47.5l65 180l-549 547q10 -76 11.5 -120t-4 -109.5t-7.5 -94.5q-4 -23 -24.5 -23t-22.5 23z" glyph-name="uni2196" horiz-adv-x="1363" unicode="↖"/><glyph d="M1137 737q-2 -23 -22.5 -22.5t-24.5 22.5q-2 33 -6.5 79t-5.5 70.5t1 71t11 103.5l-549 -547l65 -180q8 -25 -7 -47.5t-75 -79.5l-18 -19l-84 205l-33 -33l72 -172q10 -18 -5.5 -41.5t-76.5 -85.5l-17 -16l-102 215l-217 105l16 16q61 61 85 76.5t42 5.5l172 -72l33 33 l-205 84l19 18q57 59 79.5 73.5t47.5 6.5l180 -63l547 549q-76 -10 -120 -11.5t-109.5 4t-94.5 7.5q-14 2 -19 12t1 20.5t20 12.5q246 27 531 157q16 6 24 -2t0 -24q-128 -277 -155 -531z" glyph-name="uni2197" horiz-adv-x="1363" unicode="↗"/><glyph d="M1128 723q27 -254 156 -530q8 -16 0 -24.5t-24 -2.5q-285 131 -531 158q-14 2 -20.5 12t-1 20.5t19.5 12.5q33 2 79 6t70.5 5t70.5 -1t104 -10l-547 549l-180 -64q-25 -8 -47.5 6t-79.5 74l-19 18l205 84l-33 33l-172 -72q-18 -10 -41.5 5.5t-85.5 76.5l-16 17l217 104 l102 215l17 -16q61 -61 76.5 -85t5.5 -42l-72 -172l33 -33l84 205l18 -19q59 -57 74.5 -79.5t7.5 -47.5l-66 -180l549 -547q-10 76 -11 120t4 109.5t7 94.5q4 23 24.5 23t22.5 -23z" glyph-name="uni2198" horiz-adv-x="1363" unicode="↘"/><glyph d="M225 723q2 23 22.5 22.5t24.5 -22.5q2 -33 6.5 -79t5.5 -70.5t-1 -70.5t-11 -104l549 547l-65 180q-8 25 7 47.5t75 79.5l18 19l84 -205l33 33l-72 172q-10 18 5.5 41.5t76.5 85.5l16 16l103 -215l217 -104l-16 -17q-61 -61 -85 -76.5t-42 -5.5l-172 72l-33 -33l205 -84 l-19 -18q-57 -59 -79.5 -73.5t-47.5 -6.5l-180 64l-547 -549q76 10 120 11t109.5 -4t94.5 -7q14 -2 19 -12.5t-1 -20.5t-20 -12q-246 -27 -531 -158q-16 -6 -24.5 2t0.5 25q128 276 155 530z" glyph-name="uni2199" horiz-adv-x="1363" unicode="↙"/><glyph d="M748 567h-701v51h701v-51z" glyph-name="minus" horiz-adv-x="794" unicode="−"/><glyph d="M1470 516q0 -139 -79.5 -226t-210.5 -87q-102 0 -175 44t-157 136q-23 23 -74 92q-49 -66 -72 -94q-82 -96 -159.5 -138t-175.5 -42q-131 0 -211 86t-80 227q0 137 82 225t209 88q106 0 184 -46t151 -134q23 -29 72 -94q57 78 72 92q78 86 153.5 133t180.5 47 q123 2 206.5 -87t83.5 -222zM371 250q160 0 297 164q63 76 80 100q-76 96 -78 98q-135 164 -299 164q-113 0 -182.5 -72.5t-69.5 -187.5q0 -121 67.5 -191.5t184.5 -74.5zM805 512q23 -33 76 -96q76 -88 145.5 -125t153.5 -37q111 0 179 71.5t68 188.5q0 113 -69.5 186.5 t-177.5 73.5q-166 0 -303 -164q-45 -49 -72 -98z" glyph-name="infinity" horiz-adv-x="1546" unicode="∞"/><glyph d="M100 672q16 57 76 102t121 45q76 0 173 -62.5t171 -62.5q102 0 164 115q8 16 23.5 15t20.5 -13t-3 -27v2q-29 -68 -86.5 -106.5t-126.5 -38.5q-84 0 -180.5 62.5t-161.5 62.5q-43 0 -86 -34t-60 -79q-6 -25 -29.5 -15.5t-15.5 34.5zM846 506v2q-29 -68 -86.5 -107 t-126.5 -39q-84 0 -180.5 62.5t-161.5 62.5q-43 0 -86 -33.5t-60 -78.5q-6 -25 -29.5 -15.5t-15.5 33.5q16 57 76 102.5t121 45.5q76 0 173 -62.5t171 -62.5q102 0 164 114q8 16 23.5 15.5t20.5 -13t-3 -26.5z" glyph-name="approxequal" horiz-adv-x="950" unicode="≈"/><glyph d="M383 477h389q23 0 25 -25.5t-25 -25.5h-422l-80 -131q-16 -29 -34 -10q-14 14 -3 37l66 104h-227q-27 0 -26 25.5t26 25.5h258l141 230h-399q-27 0 -26 25.5t26 25.5h432l80 129q10 16 23.5 15t17.5 -13t-7 -29l-63 -102h217q23 0 25 -25.5t-25 -25.5h-248z" glyph-name="notequal" horiz-adv-x="843" unicode="≠"/><glyph d="M145 530l676 -395l-22 -43l-719 418q-10 4 -10 19.5t10 19.5l713 420l26 -43zM797 53v-49h-742v49h742z" glyph-name="lessequal" horiz-adv-x="958" unicode="≤"/><glyph d="M160 92l-23 43l676 395l-674 396l27 43l713 -420q10 -4 10 -19.5t-10 -19.5zM903 4h-741v49h741v-49z" glyph-name="greaterequal" horiz-adv-x="976" unicode="≥"/><glyph d="M2 465l-39 20q102 281 249.5 431.5t391.5 150.5q145 0 244.5 -69.5t136.5 -272.5l133 -741h-149l-84 471q-39 -201 -180.5 -348.5t-307.5 -147.5q-135 0 -220 70.5t-85 183.5q0 180 204 294t556 130l-18 88q-27 133 -94.5 211t-157.5 78q-115 0 -208 -42t-162 -122 t-117 -171t-93 -214zM256 254q0 -88 60.5 -144.5t154.5 -56.5q145 0 265 165t124 368q-287 -8 -445.5 -94t-158.5 -238z" glyph-name="glyph382" horiz-adv-x="1163"/><glyph d="M49 481q0 242 165 413t398 171q168 0 264.5 -57.5t96.5 -157.5q0 -117 -122 -203t-295 -120.5t-347 -20.5q18 -197 136 -314.5t300 -117.5q338 0 473 407l41 -20l2 2q-84 -244 -232.5 -372t-348.5 -128q-231 0 -381 145.5t-150 372.5zM205 573v-16q276 -20 445 59.5 t169 231.5q0 166 -227 166q-57 0 -120.5 -25.5t-125 -75t-101.5 -138.5t-40 -202z" glyph-name="e.salt" horiz-adv-x="1157"/><glyph d="M76 -268q0 78 58.5 143.5t148.5 95.5q-92 49 -90 160q2 55 46 97t117 63q-100 43 -161.5 136t-61.5 210q0 178 124 298t308 120q129 2 227.5 -64.5t137.5 -179.5q29 113 97.5 192.5t148.5 110.5l16 -47q-84 -25 -164 -139.5t-78 -284.5q-14 -154 -123.5 -260.5 t-267.5 -120.5l2 -2q-139 0 -215 -27.5t-76 -74.5q0 -49 77 -67.5t186.5 -26t219 -26t186.5 -84t77 -181.5q0 -131 -141.5 -223.5t-342.5 -96.5h-2h-22q-201 4 -316.5 78t-115.5 201zM233 725q0 -147 114 -271t249 -124q104 0 180 77.5t76 184.5q0 150 -115.5 270.5 t-257.5 120.5q-104 0 -175 -74.5t-71 -183.5zM119 -268q8 -111 114.5 -170.5t298.5 -57.5q166 2 268.5 64.5t102.5 161.5q0 59 -33.5 96t-96 53.5t-125 23.5t-146.5 16t-135 22q-94 -14 -171 -71.5t-77 -137.5z" glyph-name="g.salt" horiz-adv-x="1153"/><glyph d="M90 995l-4 52q119 41 180.5 117.5t79.5 203.5q4 20 20.5 17t16.5 -21v-317h473v-52h-475v-600q-2 -180 54.5 -275t166.5 -95q152 0 245 116.5t169 339.5l41 -20l2 2q-84 -242 -192.5 -371t-291.5 -129q-154 0 -244.5 91t-99.5 249v692h-141z" glyph-name="t.aalt" horiz-adv-x="1036"/><glyph d="M-25 8l588 1135l-106 243q-4 6 -2 16.5t10 12.5q82 29 104 70q12 8 23 -2l651 -1499h-172l-170 387h-686l-197 -379q-6 -14 -20 -15.5t-21.5 8t-1.5 23.5zM588 1087l-346 -665h637z" glyph-name="A.ss02" horiz-adv-x="1216"/><glyph d="M207 -14h-45v1464h149q-6 -164 113 -301t334 -285q20 -14 81.5 -56t80 -54.5t67.5 -48t67.5 -50t56.5 -44t55.5 -48t42 -44t41 -49.5t28.5 -48v1028h43v-1464h-41q0 86 -35 171t-87 152.5t-137 143t-156.5 129t-174.5 123.5q-401 268 -483 469v-1188z" glyph-name="N.aalt" horiz-adv-x="1441"/><glyph d="M76 502q0 170 91 315.5t239 206.5q139 51 268 39t227 -92t117 -199l-774 -307q33 -178 147.5 -283.5t280.5 -105.5q336 0 473 405l43 -18q-86 -244 -235.5 -372t-346.5 -128q-227 0 -378.5 154t-151.5 385zM231 594q0 -27 5 -80l544 217q70 27 39 96q-47 119 -152.5 161 t-230.5 -5q-92 -37 -148.5 -143.5t-56.5 -245.5z" glyph-name="e.ss02" horiz-adv-x="1183"/><glyph d="M102 -504l-26 23l6 4l16 8q287 176 535 487q-88 -55 -176 -55q-180 0 -278.5 125t-98.5 350q0 256 164 441.5t387 185.5q82 0 181 -39t144 -39q92 0 117 49q8 18 22.5 14.5t14.5 -24.5v-57l-2 -781q0 -221 -61.5 -390t-160 -262t-203.5 -138t-210 -45q-252 0 -371 143z M244 479q0 -209 65.5 -323.5t184.5 -114.5q74 0 154.5 55.5t146.5 161.5l6 12q129 215 149 572v2q-6 6 -31.5 30.5t-37 34t-37 31t-45 30.5t-48 21.5t-60.5 17.5t-66 5q-170 0 -275.5 -146.5t-105.5 -388.5zM264 -416q53 -178 207 -180q225 -2 357.5 208t132.5 570v193 l12 260q-43 -254 -164 -434q-102 -174 -248.5 -338t-296.5 -279z" glyph-name="g.ss02" horiz-adv-x="1251"/><glyph d="M80 692q0 340 226 560.5t568 215.5q244 -10 396.5 -136t152.5 -318q0 -197 -124.5 -321t-321.5 -124q-145 0 -246.5 77t-101.5 190h43q0 -88 89 -151.5t216 -63.5q180 0 291.5 108.5t111.5 284.5q0 174 -146.5 286.5t-383.5 116.5q-279 -4 -432.5 -177t-153.5 -482 q0 -324 169 -518.5t454 -194.5q199 0 347 111.5t232 324.5l45 -4q-197 -514 -694 -514q-326 0 -531.5 203.5t-205.5 525.5z" glyph-name="C.aalt" horiz-adv-x="1503"/><glyph d="M80 414q0 195 100.5 314.5t290.5 156.5q-125 29 -197.5 103.5t-72.5 178.5q0 135 114.5 217t305.5 84q328 4 448 -268l-37 -24q-106 238 -393 241h-25q-121 -4 -180 -76.5t-59 -162.5q0 -145 87 -209t277 -56v-51q-125 0 -215 -27.5t-139 -68.5t-77.5 -104.5t-37 -119 t-8.5 -128.5q0 -152 111.5 -268.5t359.5 -122.5q201 6 336 122.5t135 284.5q0 131 -72.5 213t-189.5 82q-109 0 -180.5 -51t-87.5 -144l-43 7q14 109 100 174t211 65q135 0 220 -95t85 -249q0 -182 -152.5 -324.5t-410.5 -144.5q-268 -2 -436 124t-168 327z" glyph-name="E.aalt" horiz-adv-x="1335"/><glyph d="M80 692q0 340 219 559t557 217q236 -2 380 -107.5t144 -279.5q0 -111 -52 -194.5t-144 -126.5l82 -2h133l6 -787l-39 -6q-39 131 -102 133q-233 -135 -453 -135q-322 0 -526.5 205t-204.5 524zM264 758q0 -328 164 -522.5t438 -194.5q115 0 200 23.5t183 80.5v377 q0 109 -27.5 150t-125.5 41l-295 4v47l168 -2q172 8 270 94t98 225q0 150 -133 242t-348 94h-20q-264 -4 -418 -181t-154 -478z" glyph-name="G.aalt" horiz-adv-x="1515"/><glyph d="M1477 -403q475 0 614 237l35 -29q-102 -170 -282.5 -267t-395.5 -97q-315 0 -552 149.5t-353 415.5q-213 78 -338 265.5t-125 437.5q0 326 226 545t562 219q324 0 532 -211t208 -539q0 -319 -229.5 -541.5t-559.5 -222.5q-113 0 -217 29q220 -391 875 -391zM225 815 q0 -174 67.5 -337t184.5 -277q-33 154 -33 305q0 313 175.5 519t441.5 206q100 0 174 -25q-190 201 -444 201q-246 0 -406 -167t-160 -425zM895 27q242 0 404.5 170t162.5 421q0 256 -137 469q-94 92 -262 93q-250 0 -413 -191.5t-163 -484.5q0 -201 45 -350 q162 -127 363 -127z" glyph-name="Q.aalt" horiz-adv-x="1687"/><glyph d="M1292 494l41 -21q-100 -262 -249.5 -385t-372.5 -123q-252 0 -405.5 144.5t-153.5 382t122.5 484.5t325.5 423h-520v51h1087v-51h-493q-115 -100 -190.5 -216t-109.5 -238t-46.5 -219t-12.5 -212q0 -225 113 -353t311 -128q201 0 330 106.5t223 354.5z" glyph-name="T.aalt" horiz-adv-x="1325"/><glyph d="M1143 475l45 -8q-121 -326 -275 -492q102 -72 102.5 -202.5t-137 -223t-335.5 -96.5h-23h-2q-197 4 -314.5 126t-117.5 261q0 37 35 27q174 -49 331.5 -49t280.5 71q-43 10 -112.5 17.5t-124 11.5t-114.5 18.5t-100 35t-66 61.5t-23 98q2 53 47 95t118 65 q-102 43 -163.5 136t-61.5 210q0 178 124 298t308 120q129 2 227.5 -64.5t137.5 -179.5q29 113 97.5 192.5t148.5 110.5l16 -47q-84 -25 -163 -139.5t-77 -284.5h-2q-12 -150 -117.5 -255t-259.5 -124l7 -4q-309 0 -310 -102q0 -55 99.5 -72.5t257 -31t243.5 -54.5 q150 156 273 475zM485 983q-98 0 -161.5 -72.5t-63.5 -185.5q0 -152 102.5 -273.5t231.5 -121.5q98 0 165.5 75.5t67.5 186.5q0 152 -104.5 271.5t-237.5 119.5zM543 -496q166 2 263 62.5t97 163.5q0 100 -106 141q-154 -104 -344 -104q-195 0 -324 45q18 -135 134 -222.5 t280 -85.5z" glyph-name="g.ss03" horiz-adv-x="1183"/><glyph d="M309 -16h-147v1581h147v-885l-24 -404q45 201 176 332l422 422h67l-325 -323q55 18 108 18q109 0 161 -79t85 -230l94 -432h-158l-79 395q-55 279 -187 278q-70 0 -145 -69l-31 -29q-78 -74 -121 -201t-43 -268v-106z" glyph-name="k.aalt" horiz-adv-x="1155"/><glyph d="M1176 -403q408 0 557 247l34 -28q-109 -176 -268.5 -275.5t-339.5 -99.5q-248 0 -441.5 151.5t-287.5 391.5q-158 53 -256 188t-98 309q0 250 172 422t420 172q221 0 371.5 -153.5t150.5 -378.5q0 -252 -167 -419t-421 -167q-59 0 -115 12q92 -178 270.5 -275t418.5 -97z M199 604q0 -231 174 -411q-14 78 -15 165q0 219 118 364.5t294 145.5q55 0 109 -14q-143 139 -324 139q-152 0 -254 -111.5t-102 -277.5zM713 33q152 0 254 109.5t102 271.5q0 63 -16 135l-2 -2q-53 150 -80 186q-59 84 -199 84q-160 0 -265.5 -131t-105.5 -330 q0 -109 23 -211q139 -112 289 -112z" glyph-name="q.aalt" horiz-adv-x="1265"/><glyph d="M178 1335q0 41 27.5 69t68.5 28q39 0 67 -29t28 -68q0 -41 -28 -68.5t-67 -27.5q-41 0 -68.5 27.5t-27.5 68.5zM197 -16v1060h147v-1060h-147z" glyph-name="i.aalt" horiz-adv-x="540"/><glyph d="M2 463l-43 18q49 135 98 228.5t122 181.5t173.5 132t229.5 44q68 0 121 -12.5t108 -46t94 -105.5t58 -178l98 -551q45 -258 191.5 -414.5t338.5 -156.5q141 0 244 73l23 -41q-125 -88 -287 -88q-236 0 -419 175.5t-239 449.5l-51 283q-41 -205 -181 -350.5t-306 -145.5 q-133 0 -219 70.5t-86 183.5q0 178 202.5 290.5t556.5 133.5l-16 88q-29 133 -96.5 211t-155.5 78q-94 0 -173 -32t-135 -81t-105.5 -126t-81 -147.5t-64.5 -164.5zM236 254q0 -88 60 -144.5t155 -56.5q145 0 264 165t123 368q-287 -8 -444.5 -94t-157.5 -238z" glyph-name="a.swash" horiz-adv-x="1228"/><glyph d="M20 -346l41 16q29 -94 162 -90q98 2 218 111.5t206 275.5l-465 1075h158l391 -886q59 135 102.5 226t111 222t124.5 222.5t134 193.5t152 167.5t165 116t182 64.5l2 -51q-172 -29 -317.5 -162t-306 -411.5t-388.5 -786.5q-94 -188 -224 -307t-245 -121q-166 -4 -203 125z " glyph-name="y.aalt" horiz-adv-x="1232"/><glyph d="M-2 465l-39 20q102 281 249.5 431.5t391.5 150.5q145 0 244.5 -69.5t136.5 -272.5l133 -741h-149l-84 471q-39 -201 -180.5 -348.5t-307.5 -147.5q-135 0 -220 70.5t-85 183.5q0 180 204 294t556 130l-19 88q-27 133 -94 211t-157 78q-115 0 -208.5 -42t-162 -122 t-116.5 -171t-93 -214zM1069 1014v47q154 0 259.5 -96.5t137.5 -262.5l43 -266q35 -203 98.5 -292t170.5 -89q74 0 139 58.5t106 143.5t72 180t44 170t13 114v326h150v-1063h-145v403l16 170q-25 -111 -61.5 -207t-92 -187t-133.5 -145.5t-170 -54.5q-78 0 -136 25.5 t-93 61.5t-60.5 104.5t-38 121t-26.5 144.5l-35 205q-29 205 -89 297t-169 92zM252 254q0 -88 60.5 -144.5t154.5 -56.5q145 0 265 165t124 368q-287 -8 -445.5 -94t-158.5 -238z" glyph-name="a_u.dlig" horiz-adv-x="2463"/><glyph d="M2030 1061q158 0 254 -135t96 -357q0 -240 -160 -422t-371 -182q-111 0 -218 40t-148 40q-47 0 -91 -15.5t-49 -33.5q-6 -18 -20 -16t-14 20v2q16 119 16 197v1001q0 74 -2 111t-13.5 91t-33 79.5t-64.5 46t-106 20.5q-125 0 -211 -76.5t-86 -189.5q0 -174 176 -324 q43 -31 78 -69l-29 -37q-84 86 -181 124t-230 38q-176 -2 -288 -125t-112 -318q0 -223 125 -371.5t309 -148.5q342 0 488 428l43 -14q-94 -258 -233.5 -380t-342.5 -122q-229 0 -387.5 153.5t-158.5 379.5q0 238 159.5 401.5t397.5 167.5q135 0 237 -39q-96 131 -92 254 q2 135 99.5 226t240.5 91q172 0 268.5 -105.5t96.5 -291.5v-514l-13 -280q55 338 213 496.5t357 158.5zM1849 16q170 0 265.5 138.5t95.5 382.5q0 207 -69.5 325.5t-190.5 118.5q-195 0 -325 -221t-144 -578v-2q66 -63 164 -113.5t204 -50.5z" glyph-name="c_b.dlig" horiz-adv-x="2480"/><glyph d="M2333 596l110 -612h-151l-115 639q-66 362 -254 362q-141 0 -267 -223t-169 -623l-8 -155h-144v1216q0 74 -2 111t-13 91t-32.5 79.5t-64.5 46t-107 20.5q-125 0 -211 -76.5t-86 -189.5q0 -174 176 -324q43 -31 78 -69l-29 -37q-84 86 -181 124t-230 38 q-176 -2 -288 -125t-112 -318q0 -223 125 -371.5t310 -148.5q342 0 487 428l43 -14q-94 -258 -233.5 -380t-341.5 -122q-229 0 -388 153.5t-159 379.5q0 238 159.5 401.5t397.5 167.5q135 0 237 -39q-96 131 -92 254q2 135 99.5 226t240.5 91q172 0 268.5 -105.5 t96.5 -291.5v-524l-21 -393q66 393 208 585.5t304 192.5q145 0 230.5 -110.5t128.5 -354.5z" glyph-name="c_h.dlig" horiz-adv-x="2525"/><glyph d="M2044 442l160 -458h-158l-139 415q-27 80 -78 130.5t-109 50.5q-94 0 -235 -113l-12 -8v-475h-148v1216q0 74 -2 111t-13.5 91t-33 79.5t-64.5 46t-106 20.5q-125 0 -211 -76.5t-86 -189.5q0 -174 176 -324q43 -31 78 -69l-29 -37q-84 86 -181 124t-230 38 q-176 -2 -288 -125t-112 -318q0 -223 125 -371.5t309 -148.5q342 0 488 428l43 -14q-94 -258 -233.5 -380t-342.5 -122q-229 0 -387.5 153.5t-158.5 379.5q0 238 159.5 401.5t397.5 167.5q135 0 237 -39q-96 131 -92 254q2 135 99.5 226t240.5 91q172 0 268.5 -105.5 t96.5 -291.5v-680l636 524h78l-508 -417q45 10 80 10q102 0 177 -51.5t108 -143.5z" glyph-name="c_k.dlig" horiz-adv-x="2254"/><glyph d="M76 496q0 238 159.5 401.5t397.5 167.5q135 0 237 -39q-96 131 -92 254q2 135 99.5 226t240.5 91q172 0 268.5 -105.5t96.5 -291.5v-1216h-148v1216q0 74 -2 111t-13 91t-32.5 79.5t-64.5 46t-107 20.5q-125 0 -211 -76.5t-86 -189.5q0 -174 176 -324q43 -31 78 -69 l-29 -37q-84 86 -181 124t-230 38q-176 -2 -288 -125t-112 -318q0 -223 125 -371.5t310 -148.5q342 0 487 428l43 -14q-94 -258 -233.5 -380t-341.5 -122q-229 0 -388 154t-159 379z" glyph-name="c_l.dlig" horiz-adv-x="1644"/><glyph d="M2109 481l41 -20l2 2q-84 -242 -192.5 -371t-290.5 -129q-154 0 -245 91t-99 249v692h-141l-4 52q86 31 113.5 76.5t31.5 138.5q-2 141 -45 213.5t-174 72.5q-125 0 -211 -76.5t-86 -189.5q0 -174 176 -324q43 -31 78 -69l-29 -37q-84 86 -181 124t-230 38 q-176 -2 -288 -125t-112 -318q0 -223 125 -371.5t309 -148.5q342 0 488 428l43 -14q-94 -258 -233.5 -380t-342.5 -122q-229 0 -387.5 153.5t-158.5 379.5q0 238 159.5 401.5t397.5 167.5q135 0 237 -39q-96 131 -92 254q2 135 99.5 226t240.5 91q172 0 268.5 -105.5 t96.5 -291.5v-153h477v-52h-477v-635q2 -162 60 -248.5t163 -86.5q152 0 244.5 116.5t168.5 339.5z" glyph-name="c_t.dlig" horiz-adv-x="2111"/><glyph d="M168 995h-133l2 52h131q2 129 40 228t98.5 154.5t124 83t126.5 29.5h12q197 0 281 -137q59 -94 59 -231q0 -111 -47 -232q137 125 346 125q68 0 121 -12.5t108.5 -46t94.5 -105.5t57 -178l131 -741h-149l-80 465q-43 -201 -184.5 -345.5t-305.5 -144.5q-133 0 -219 70.5 t-86 183.5q0 178 203 290.5t557 133.5l-16 88q-29 133 -96.5 211t-155.5 78q-139 0 -241.5 -64.5t-192.5 -210.5q-33 -55 -74 -106l-37 31q223 274 223 514q0 119 -51 198q-82 111 -258 115q-117 -4 -179.5 -92t-62.5 -254v-98h226l-2 -52h-224v-1011h-147v1011zM862 254 q0 -88 60.5 -144.5t154.5 -56.5q145 0 264 165t123 368q-602 -29 -602 -332z" glyph-name="f_a.dlig" horiz-adv-x="1765"/><glyph d="M47 197l37 32q29 -96 123 -153.5t223 -57.5q111 0 182.5 48.5t75.5 123.5q4 145 -145 220q-47 23 -126 57.5t-120 54.5q-111 59 -159 128t-44 159q6 113 107.5 184.5t253.5 71.5q70 0 135 -25q-84 123 -80 240q2 135 99.5 226t240.5 91q172 0 268 -101t96 -284v-526 l-12 -280q55 338 213 496.5t357 158.5q158 0 254 -135t96 -357q0 -240 -160 -422t-371 -182q-109 0 -217 40t-149 40q-47 0 -91 -15.5t-49 -33.5l-34 4v2q16 119 16 197v1013q0 70 -2 108t-13.5 89t-34 76.5t-64.5 44t-105 18.5q-125 0 -211 -76.5t-86 -189.5 q0 -168 162 -311q43 -35 90 -84l-31 -35q-150 162 -321 162q-106 0 -164 -45t-58 -129q0 -104 129 -174q10 -6 217 -101q264 -119 256 -327q-4 -125 -112.5 -199t-286.5 -74q-135 0 -238.5 63t-146.5 169zM1223 182v-2q66 -63 164 -113.5t204 -50.5q170 0 265.5 138.5 t95.5 382.5q0 207 -70 325.5t-190 118.5q-195 0 -325 -221.5t-144 -577.5z" glyph-name="s_b.dlig" horiz-adv-x="2197"/><glyph d="M47 197l37 32q29 -96 123 -153.5t223 -57.5q111 0 182.5 48.5t75.5 123.5q4 145 -145 220q-47 23 -126 57.5t-120 54.5q-111 59 -159 128t-44 159q6 113 107.5 184.5t253.5 71.5q70 0 135 -25q-84 123 -80 240q2 135 99.5 226t240.5 91q172 0 268 -101t96 -284l-2 -548 l-18 -383q63 393 205.5 586.5t306.5 193.5q150 0 230.5 -105.5t127.5 -359.5l111 -612h-152l-114 639q-33 186 -94.5 274t-161.5 88q-152 0 -274 -236.5t-160 -609.5l-9 -155h-143v1228q0 70 -2 108t-13.5 89t-34 76.5t-64.5 44t-105 18.5q-125 0 -211 -76.5t-86 -189.5 q0 -168 162 -311q43 -35 90 -84l-31 -35q-150 162 -321 162q-106 0 -164 -45t-58 -129q0 -104 129 -174q10 -6 217 -101q264 -119 256 -327q-4 -125 -112.5 -199t-286.5 -74q-135 0 -238.5 63t-146.5 169z" glyph-name="s_h.dlig" horiz-adv-x="2256"/><glyph d="M47 197l37 32q29 -96 123 -153.5t223 -57.5q111 0 182.5 48.5t75.5 123.5q4 145 -145 220q-47 23 -126 57.5t-120 54.5q-111 59 -159 128t-44 159q6 113 107.5 184.5t253.5 71.5q70 0 135 -25q-84 123 -80 240q2 135 99.5 226t240.5 91q172 0 268 -101t96 -284v-692 l637 524h78l-508 -417q45 10 80 10q102 0 177 -51t108 -144l160 -458h-158l-139 415q-27 80 -78 130.5t-109 50.5q-70 0 -235 -113l-13 -8v-475h-147v1228q0 70 -2 108t-13.5 89t-34 76.5t-64.5 44t-105 18.5q-125 0 -211 -76.5t-86 -189.5q0 -168 162 -311q43 -35 90 -84 l-31 -35q-150 162 -321 162q-106 0 -164 -45t-58 -129q0 -104 129 -174q10 -6 217 -101q264 -119 256 -327q-4 -125 -112.5 -199t-286.5 -74q-135 0 -238.5 63t-146.5 169z" glyph-name="s_k.dlig" horiz-adv-x="2013"/><glyph d="M47 197l37 32q29 -96 123 -153.5t223 -57.5q111 0 182.5 48.5t75.5 123.5q4 145 -145 220q-47 23 -126 57.5t-120 54.5q-111 59 -159 128t-44 159q6 113 107.5 184.5t253.5 71.5q70 0 135 -25q-84 123 -80 240q2 135 99.5 226t240.5 91q172 0 268 -101t96 -284v-1228 h-147v1228q0 70 -2 108t-13.5 89t-34 76.5t-64.5 44t-105 18.5q-125 0 -211 -76.5t-86 -189.5q0 -168 162 -311q43 -35 90 -84l-31 -35q-150 162 -321 162q-106 0 -164 -45t-58 -129q0 -104 129 -174q10 -6 217 -101q264 -119 256 -327q-4 -125 -112.5 -199t-286.5 -74 q-135 0 -238.5 63t-146.5 169z" glyph-name="s_l.dlig" horiz-adv-x="1376"/><glyph d="M47 197l37 32q29 -96 123 -153.5t223 -57.5q111 0 182.5 48.5t75.5 123.5q4 145 -145 220q-47 23 -126 57.5t-120 54.5q-111 59 -159 128t-44 159q6 113 107.5 184.5t253.5 71.5q70 0 135 -25q-84 123 -80 240q2 135 99.5 226t240.5 91q172 0 268 -101t96 -284v-516h3 l-17 -313q59 305 220 491.5t352 186.5q156 0 247.5 -135t94.5 -365q0 -176 -86 -316.5t-212 -211t-264 -70.5q-76 0 -148.5 19.5t-103 34t-86.5 42.5v-587h-147v1740q0 70 -2 108t-13.5 89t-34 76.5t-64.5 44t-105 18.5q-125 0 -211 -76.5t-86 -189.5q0 -168 162 -311 q43 -35 90 -84l-31 -35q-150 162 -321 162q-106 0 -164 -45t-58 -129q0 -104 129 -174q10 -6 217 -101q264 -119 256 -327q-4 -125 -112.5 -199t-286.5 -74q-135 0 -238.5 63t-146.5 169zM1214 139v-22q61 -35 99.5 -52.5t101 -33t131.5 -15.5q188 0 293 125t105 348 q0 229 -61.5 355.5t-174.5 130.5q-178 8 -330 -231.5t-164 -604.5z" glyph-name="s_p.dlig" horiz-adv-x="2189"/><glyph d="M47 197l37 32q29 -96 123 -153.5t223 -57.5q111 0 182.5 48.5t75.5 123.5q4 145 -145 220q-47 23 -126 57.5t-120 54.5q-111 59 -159 128t-44 159q6 113 107.5 184.5t253.5 71.5q70 0 135 -25q-84 123 -80 240q2 135 99.5 226t240.5 91q172 0 268 -101t96 -284v-165h478 v-52h-478v-635q2 -162 60.5 -248.5t163.5 -86.5q152 0 245 116.5t168 339.5l41 -20l2 2q-84 -242 -192.5 -371t-290.5 -129q-154 0 -245 91t-99 249v692h-141l-4 52q86 31 113.5 77.5t31.5 139.5q-2 143 -44 213.5t-175 70.5q-125 0 -211 -76.5t-86 -189.5q0 -168 162 -311 q43 -35 90 -84l-31 -35q-150 162 -321 162q-106 0 -164 -45t-58 -129q0 -104 129 -174q10 -6 217 -101q264 -119 256 -327q-4 -125 -112.5 -199t-286.5 -74q-135 0 -238.5 63t-146.5 169z" glyph-name="s_t.dlig" horiz-adv-x="1853"/><glyph d="M750 -35q-299 0 -484.5 209t-185.5 543q0 336 185.5 543.5t482.5 207.5q299 0 484 -207.5t185 -543.5t-185 -544t-482 -208zM246 717q0 -322 136 -511.5t366 -189.5q248 0 375.5 200t127.5 501q0 315 -138 507.5t-365 192.5q-242 0 -372 -200.5t-130 -499.5z" glyph-name="zero.oldstyle.case" horiz-adv-x="1497"/><glyph d="M94 1165l-20 45l362 263q14 10 25.5 5t11.5 -22l-2 -1472h-158v1341z" glyph-name="one.oldstyle.case" horiz-adv-x="624"/><glyph d="M70 0h-31q0 127 105.5 222t308.5 210q106 57 180 107.5t149.5 121t114.5 159.5t39 192q0 213 -85 311t-265 94q-272 -6 -408 -301l-37 25q66 156 193 244t276 83q221 -4 366.5 -118.5t145.5 -288.5q0 -92 -41 -179t-95 -147.5t-151.5 -130t-163 -107.5t-175.5 -100 q-18 -10 -27 -14q-190 -102 -283 -186q47 20 105 20q94 0 260 -45t256 -45q53 0 84 2t90 19.5t98 51t78 102.5t57 167l43 -4v-4q-49 -242 -167.5 -376t-282.5 -134q-86 0 -161 33.5t-119 73.5t-106.5 74t-129.5 34q-49 0 -71.5 -3t-53.5 -17.5t-52 -49.5t-44 -96z" glyph-name="two.oldstyle.case" horiz-adv-x="1255"/><glyph d="M80 293l43 12q35 -123 162 -206t290 -83q215 0 327 103.5t112 298.5q0 184 -133 285.5t-357 87.5q-18 0 -23 18t9 29v4q207 0 302 72.5t95 228.5q0 131 -70.5 201.5t-203.5 72.5q-145 0 -256 -78.5t-170 -222.5l-39 25l-2 -2q59 150 181 237.5t271 91.5 q111 2 213.5 -29.5t176 -106.5t73.5 -177q0 -254 -301 -330q412 -74 412 -415q0 -195 -173 -320t-444 -125q-180 0 -319 92.5t-176 235.5z" glyph-name="three.oldstyle.case" horiz-adv-x="1271"/><glyph d="M96 367l-16 39l840 1095l38 -16v-1067h209v-51h-209v-383h-161v383h-701zM797 1264l-650 -846h650v846z" glyph-name="four.oldstyle.case" horiz-adv-x="1247"/><glyph d="M80 276l43 15q39 -125 163 -200t292 -75q205 0 311 113t106 326q0 201 -105.5 329.5t-266.5 128.5q-268 0 -441 -225q-16 -20 -32.5 -10t-12.5 35l146 737q82 -6 216 -19.5t191.5 -18.5t144.5 -8t133 3t97 21.5t92 44.5l21 -35q-102 -125 -296 -159t-587 3l-100 -508 q172 190 428 191q238 0 395.5 -140.5t157.5 -353.5q0 -225 -166 -365.5t-432 -140.5q-166 0 -308.5 80.5t-189.5 230.5z" glyph-name="five.oldstyle.case" horiz-adv-x="1257"/><glyph d="M80 645q0 354 176 586.5t455 236.5q139 -4 252.5 -71.5t152.5 -173.5l-41 -17q-39 92 -142.5 150.5t-232.5 60.5q-449 0 -448 -772l2 -76q51 160 181 249t259 89q223 0 367.5 -128t144.5 -328q0 -211 -155.5 -348.5t-395.5 -137.5q-248 0 -411.5 193.5t-163.5 486.5z M272 385q70 -369 383 -369q180 0 276.5 108.5t96.5 313.5q0 197 -89 307.5t-245 110.5q-174 0 -298 -136t-124 -335z" glyph-name="six.oldstyle.case" horiz-adv-x="1286"/><glyph d="M74 1282l-2 168h972l23 -43q-326 -424 -399 -535q-285 -424 -279 -888h-178q-12 293 422 919q121 172 280 379h-839z" glyph-name="seven.oldstyle.case" horiz-adv-x="989"/><glyph d="M80 377q0 119 125 231.5t315 171.5q-375 121 -375 344q0 139 149.5 241.5t350.5 102.5q238 0 375 -95t137 -259q0 -100 -96 -196.5t-264 -163.5l22 -6q201 -53 305.5 -148.5t104.5 -226.5q0 -174 -168 -291t-418 -117t-406.5 115t-156.5 297zM324 1165q0 -137 74.5 -232 t211.5 -130l105 -29q268 117 268 328q0 162 -88 238.5t-270 76.5q-129 0 -215 -71.5t-86 -180.5zM264 393q0 -170 104.5 -273.5t276.5 -103.5q180 0 291 91.5t111 236.5q0 289 -285 365l-150 43q-170 -49 -259 -143.5t-89 -215.5z" glyph-name="eight.oldstyle.case" horiz-adv-x="1308"/><glyph d="M1206 788q0 -354 -176 -586.5t-455 -236.5q-139 4 -252.5 71.5t-152.5 174.5l41 16q39 -92 142.5 -150.5t232.5 -60.5q449 0 448 772l-2 76q-51 -160 -181 -249t-259 -89q-223 0 -367.5 128t-144.5 329q0 211 155.5 348t395.5 137q248 0 411.5 -193.5t163.5 -486.5z M1014 1049q-70 369 -383 368q-180 0 -276.5 -108.5t-96.5 -313.5q0 -197 89 -307t245 -110q174 0 298 136t124 335z" glyph-name="nine.oldstyle.case" horiz-adv-x="1286"/><glyph d="M549 -35q-209 0 -341 150.5t-132 388t139 399.5t344 162q217 0 351 -149.5t134 -391.5q0 -238 -142 -398.5t-353 -160.5zM246 547q0 -225 82 -377t241 -152q139 0 221 125t82 338q0 225 -81.5 378t-241.5 155q-141 0 -222 -125t-81 -342z" glyph-name="zero.oldstyle" horiz-adv-x="1120"/><glyph d="M199 813l-23 43l287 205q16 14 27.5 9t11.5 -23l-2 -1063h-154v931z" glyph-name="one.oldstyle" horiz-adv-x="663"/><glyph d="M86 -31h-37q0 178 336 342q164 78 259 174.5t95 239.5q0 154 -58 222.5t-187 66.5q-100 -2 -180.5 -52.5t-116.5 -134.5l-43 11q33 98 126 162.5t205 64.5h11h14q172 -4 285.5 -90t113.5 -215q0 -86 -45 -163t-130 -140.5t-157.5 -104.5t-175.5 -88q-125 -59 -194 -110 q25 4 39 4q70 0 210 -24.5t208 -24.5h28.5h33.5t33.5 2t38 6t36 12t37 18.5t32 28t30.5 39t23.5 51t18.5 64.5l43 -6q-35 -174 -131 -276.5t-223 -102.5q-66 0 -126.5 25.5t-99.5 55t-91 55t-101 25.5q-144 0 -160 -137z" glyph-name="two.oldstyle" horiz-adv-x="1067"/><glyph d="M76 35h41q16 -119 128.5 -200t268.5 -81q375 0 375 359q0 166 -121 256t-319 75l2 48v4q346 0 348 270q4 248 -242 248q-98 -2 -179 -52.5t-118 -134.5l-43 11q33 98 126 162.5t206 64.5h14h10q152 -4 272 -80t120 -207q0 -225 -265 -299q356 -66 357 -373 q0 -176 -152.5 -289.5t-390.5 -113.5q-174 0 -299 94.5t-139 237.5z" glyph-name="three.oldstyle" horiz-adv-x="1132"/><glyph d="M68 -16l-21 43l698 1017l41 -12v-997h185v-51h-185v-275h-147v275h-571zM639 811l-530 -776h530v776z" glyph-name="four.oldstyle" horiz-adv-x="1021"/><glyph d="M76 20l39 19q23 -129 138.5 -207t278.5 -78q367 0 367 391q0 180 -91 296t-235 116q-238 0 -395 -203l-45 23l133 667q74 -6 195 -18t172 -16t130 -7.5t120 3t88 20.5t84 41l20 -37q-94 -113 -268 -143.5t-528 2.5l-89 -451q154 170 383 170q215 0 356.5 -127t141.5 -321 q0 -201 -150.5 -329t-388.5 -128q-176 0 -306 86t-150 231z" glyph-name="five.oldstyle" horiz-adv-x="1150"/><glyph d="M76 573q0 311 154.5 520.5t387.5 213.5q139 2 241 -60.5t138 -177.5l-39 -22l-2 2q-66 201 -315 206q-209 4 -308.5 -161.5t-99.5 -520.5v-51q49 135 165 211t225 76q201 0 329.5 -114.5t128.5 -295.5q0 -188 -139 -311t-352 -123q-221 0 -367.5 173t-146.5 435zM250 356 q27 -174 110.5 -257t229.5 -83q158 0 241.5 96.5t83.5 276.5q0 174 -76.5 271.5t-215.5 97.5q-154 0 -265.5 -120t-107.5 -282z" glyph-name="six.oldstyle" horiz-adv-x="1157"/><glyph d="M113 889l-58 155h906l28 -40q-31 -39 -114.5 -145.5t-144 -187.5t-112.5 -155q-258 -389 -251 -811h-166q-12 266 383 842q98 141 256 342h-727z" glyph-name="seven.oldstyle" horiz-adv-x="1024"/><glyph d="M76 340q0 104 109.5 205.5t277.5 154.5q-328 111 -328 314q0 127 134 220t317 93q213 0 338 -86t125 -235q0 -92 -85 -178.5t-237 -149.5l14 -2q182 -47 277.5 -133t95.5 -205q0 -158 -152.5 -265.5t-377.5 -107.5q-223 0 -365.5 105.5t-142.5 269.5zM311 1051 q0 -264 244 -324l94 -27q231 92 232 293q0 147 -75 215t-239 68q-113 0 -184.5 -63.5t-71.5 -161.5zM246 356q0 -152 92 -245t248 -93q162 0 259 80t97 213q0 256 -252 326l-139 39q-143 -39 -224 -125t-81 -195z" glyph-name="eight.oldstyle" horiz-adv-x="1189"/><glyph d="M1137 457q0 -311 -155 -520t-388 -213q-139 -2 -240.5 60t-138.5 177l39 23l2 -2q66 -201 315 -207q209 -4 308.5 161.5t99.5 520.5v51q-49 -135 -165 -211t-224 -76q-201 0 -330 115t-129 295q0 188 139.5 311t352.5 123q221 0 367.5 -173t146.5 -435zM963 674 q-27 174 -111 257t-229 83q-158 0 -242 -96.5t-84 -276.5q0 -174 77 -271.5t216 -97.5q154 0 265.5 120t107.5 282z" glyph-name="nine.oldstyle" horiz-adv-x="1314"/><glyph d="M670 -35q-299 0 -484.5 209t-185.5 543q0 336 185.5 543.5t482.5 207.5q299 0 484 -207.5t185 -543.5t-185 -544t-482 -208zM166 717q0 -322 136 -511.5t366 -189.5q248 0 375.5 200t127.5 501q0 315 -138 507.5t-365 192.5q-242 0 -372 -200.5t-130 -499.5z" glyph-name="zero.tnum" horiz-adv-x="1433"/><glyph d="M459 1165l-21 45l363 263q14 10 25.5 5t11.5 -22l-2 -1472h-158v1341z" glyph-name="one.tnum" horiz-adv-x="1433"/><glyph d="M111 0h-31q0 127 105.5 222t308.5 210q106 57 180 107.5t149.5 121t114.5 159.5t39 192q0 213 -85 311t-265 94q-272 -6 -408 -301l-37 25q66 156 193 244t276 83q221 -4 366.5 -118.5t145.5 -288.5q0 -92 -41 -179t-95 -147.5t-151.5 -130t-163 -107.5t-175.5 -100 q-18 -10 -27 -14q-190 -102 -283 -186q47 20 105 20q94 0 260 -45t256 -45q53 0 84 2t90 19.5t98 51t78 102.5t57 167l43 -4v-4q-49 -242 -167.5 -376t-282.5 -134q-86 0 -161 33.5t-119 73.5t-106.5 74t-129.5 34q-49 0 -71.5 -3t-53.5 -17.5t-52 -49.5t-44 -96z" glyph-name="two.tnum" horiz-adv-x="1433"/><glyph d="M102 293l43 12q35 -123 162 -206t291 -83q215 0 326.5 103.5t111.5 298.5q0 184 -133 285.5t-356 87.5q-18 0 -23.5 18t8.5 29v4q207 0 302.5 72.5t95.5 228.5q0 131 -71 201.5t-204 72.5q-145 0 -255.5 -78.5t-170.5 -222.5l-39 25l-2 -2q59 150 181.5 237.5t271.5 91.5 q111 2 213 -29.5t176 -106.5t74 -177q0 -254 -301 -330q412 -74 411 -415q0 -195 -173 -320t-443 -125q-180 0 -319.5 92.5t-176.5 235.5z" glyph-name="three.tnum" horiz-adv-x="1433"/><glyph d="M139 367l-16 39l840 1095l38 -16v-1067h209v-51h-209v-383h-161v383h-701zM840 1264l-650 -846h650v846z" glyph-name="four.tnum" horiz-adv-x="1433"/><glyph d="M104 276l43 15q39 -125 163 -200t292 -75q205 0 311.5 113t106.5 326q0 201 -105.5 329.5t-267.5 128.5q-268 0 -440 -225q-16 -20 -32.5 -10t-12.5 35l145 737q82 -6 216 -19.5t191.5 -18.5t144.5 -8t133 3t97.5 21.5t92.5 44.5l20 -35q-102 -125 -295.5 -159t-587.5 3 l-100 -508q172 190 428 191q238 0 395.5 -140.5t157.5 -353.5q0 -225 -166 -365.5t-432 -140.5q-166 0 -308.5 80.5t-189.5 230.5z" glyph-name="five.tnum" horiz-adv-x="1433"/><glyph d="M102 645q0 354 176.5 586.5t454.5 236.5q139 -4 253 -71.5t153 -173.5l-41 -17q-39 92 -142.5 150.5t-232.5 60.5q-449 0 -449 -772l2 -76q51 160 181.5 249t259.5 89q223 0 367.5 -128t144.5 -328q0 -211 -155.5 -348.5t-395.5 -137.5q-248 0 -412 193.5t-164 486.5z M295 385q70 -369 383 -369q180 0 276.5 108.5t96.5 313.5q0 197 -89.5 307.5t-244.5 110.5q-174 0 -298 -136t-124 -335z" glyph-name="six.tnum" horiz-adv-x="1433"/><glyph d="M238 1282l-2 168h972l23 -43q-326 -424 -400 -535q-285 -424 -278 -888h-178q-12 293 422 919q121 172 280 379h-839z" glyph-name="seven.tnum" horiz-adv-x="1433"/><glyph d="M100 377q0 119 125 231.5t316 171.5q-375 121 -375 344q0 139 149.5 241.5t350.5 102.5q238 0 375 -95t137 -259q0 -100 -96.5 -196.5t-264.5 -163.5l23 -6q201 -53 305 -148.5t104 -226.5q0 -174 -168 -291t-417.5 -117t-406.5 115t-157 297zM344 1165q0 -137 75 -232 t212 -130l104 -29q268 117 269 328q0 162 -88.5 238.5t-270.5 76.5q-129 0 -215 -71.5t-86 -180.5zM285 393q0 -170 104.5 -273.5t276.5 -103.5q180 0 290.5 91.5t110.5 236.5q0 289 -285 365l-149 43q-170 -49 -259 -143.5t-89 -215.5z" glyph-name="eight.tnum" horiz-adv-x="1433"/><glyph d="M1229 788q0 -354 -176 -586.5t-455 -236.5q-139 4 -253 71.5t-152 174.5l40 16q39 -92 142.5 -150.5t232.5 -60.5q449 0 449 772l-2 76q-51 -160 -181.5 -249t-259.5 -89q-223 0 -367.5 128t-144.5 329q0 211 156 348t395 137q248 0 412 -193.5t164 -486.5zM1036 1049 q-70 369 -383 368q-180 0 -276 -108.5t-96 -313.5q0 -197 89 -307t244 -110q174 0 298 136t124 335z" glyph-name="nine.tnum" horiz-adv-x="1433"/><glyph d="M711 -35q-209 0 -341 150.5t-132 388t139 399.5t344 162q217 0 351 -149.5t134 -391.5q0 -238 -142 -398.5t-353 -160.5zM408 547q0 -225 81.5 -377t241.5 -152q139 0 221 125t82 338q0 225 -82 378t-241 155q-141 0 -222 -125t-81 -342z" glyph-name="zero.tnum.oldstyle" horiz-adv-x="1433"/><glyph d="M524 813l-22 43l286 205q16 14 27.5 9t11.5 -23l-2 -1063h-153v931z" glyph-name="one.tnum.oldstyle" horiz-adv-x="1433"/><glyph d="M299 -31h-37q0 178 336 342q164 78 259 174.5t95 239.5q0 154 -58 222.5t-187 66.5q-100 -2 -180.5 -52.5t-116.5 -134.5l-43 11q33 98 126 162.5t205 64.5h11h14q172 -4 285.5 -90t113.5 -215q0 -86 -45 -163t-130 -140.5t-157.5 -104.5t-175.5 -88q-125 -59 -194 -110 q25 4 39 4q70 0 210 -24.5t208 -24.5h28.5h33.5t33.5 2t38 6t36 12t37 18.5t32 28t30.5 39t23.5 51t18.5 64.5l43 -6q-35 -174 -131 -276.5t-223 -102.5q-66 0 -126.5 25.5t-99.5 55t-91 55t-101 25.5q-144 0 -160 -137z" glyph-name="two.tnum.oldstyle" horiz-adv-x="1433"/><glyph d="M252 35h41q16 -119 129 -200t268 -81q375 0 375 359q0 166 -121 256t-319 75l2 48v4q346 0 348 270q4 248 -242 248q-98 -2 -179 -52.5t-118 -134.5l-43 11q33 98 126 162.5t206 64.5h14h11q152 -4 271.5 -80t119.5 -207q0 -225 -264 -299q356 -66 356 -373 q0 -176 -152.5 -289.5t-390.5 -113.5q-174 0 -299 94.5t-139 237.5z" glyph-name="three.tnum.oldstyle" horiz-adv-x="1433"/><glyph d="M297 -16l-21 43l699 1017l41 -12v-997h184v-51h-184v-275h-148v275h-571zM868 811l-530 -776h530v776z" glyph-name="four.tnum.oldstyle" horiz-adv-x="1433"/><glyph d="M332 20l39 19q23 -129 138.5 -207t278.5 -78q367 0 367 391q0 180 -91 296t-235 116q-238 0 -395 -203l-45 23l133 667q74 -6 195 -18t172 -16t130 -7.5t120 3t88 20.5t84 41l20 -37q-94 -113 -268 -143.5t-528 2.5l-89 -451q154 170 383 170q215 0 356.5 -127 t141.5 -321q0 -201 -150.5 -329t-388.5 -128q-176 0 -306 86t-150 231z" glyph-name="five.tnum.oldstyle" horiz-adv-x="1433"/><glyph d="M369 573q0 311 154.5 520.5t387.5 213.5q139 2 240.5 -60.5t138.5 -177.5l-39 -22l-2 2q-66 201 -315 206q-209 4 -308.5 -161.5t-99.5 -520.5v-51q49 135 165 211t224 76q201 0 330 -114.5t129 -295.5q0 -188 -139 -311t-352 -123q-221 0 -367.5 173t-146.5 435z M543 356q27 -174 110.5 -257t229.5 -83q158 0 241.5 96.5t83.5 276.5q0 174 -76.5 271.5t-216.5 97.5q-154 0 -265 -120t-107 -282z" glyph-name="six.tnum.oldstyle" horiz-adv-x="1433"/><glyph d="M444 889l-57 155h905l29 -40q-31 -39 -115 -145.5t-144.5 -187.5t-111.5 -155q-258 -389 -252 -811h-166q-12 266 383 842q98 141 256 342h-727z" glyph-name="seven.tnum.oldstyle" horiz-adv-x="1433"/><glyph d="M352 340q0 104 109.5 205.5t277.5 154.5q-328 111 -327 314q0 127 134 220t316 93q213 0 338 -86t125 -235q0 -92 -85 -178.5t-236 -149.5l14 -2q182 -47 277.5 -133t95.5 -205q0 -158 -153 -265.5t-378 -107.5q-223 0 -365.5 105.5t-142.5 269.5zM588 1051 q0 -264 243 -324l95 -27q231 92 231 293q0 147 -74.5 215t-238.5 68q-113 0 -184.5 -63.5t-71.5 -161.5zM522 356q0 -152 93.5 -245t246.5 -93q162 0 259.5 80t97.5 213q0 256 -252 326l-140 39q-143 -39 -224 -125t-81 -195z" glyph-name="eight.tnum.oldstyle" horiz-adv-x="1433"/><glyph d="M1372 446q0 -311 -154.5 -520t-388.5 -213q-139 -2 -240.5 60.5t-137.5 177.5l38 22l3 -2q66 -201 315 -207q209 -4 308 162t99 520v52q-49 -135 -164.5 -211t-224.5 -76q-201 0 -329.5 114.5t-128.5 295.5q0 188 139 311t352 123q221 0 367.5 -173.5t146.5 -435.5z M1198 664q-27 174 -110.5 257t-229.5 83q-158 0 -242 -96.5t-84 -276.5q0 -174 77 -271.5t216 -97.5q154 0 265.5 120t107.5 282z" glyph-name="nine.tnum.oldstyle" horiz-adv-x="1433"/><glyph d="M387 -25q-164 0 -265.5 112t-101.5 292t101.5 291.5t265.5 111.5q166 0 268.5 -111.5t102.5 -291.5t-102.5 -292t-268.5 -112zM152 379q0 -174 60 -265t175 -91t177.5 93t62.5 263q0 168 -63.5 262t-176.5 94t-174 -93t-61 -263z" glyph-name="zero.dnom" horiz-adv-x="778"/><glyph d="M16 594l-16 39l229 147q12 8 20.5 5t8.5 -17v-596q0 -102 14.5 -124.5t75.5 -24.5v-41q-41 0 -72.5 2t-39.5 2h-80q-8 0 -40 -2t-73 -2v41q61 2 76.5 26.5t15.5 122.5v498z" glyph-name="one.dnom" horiz-adv-x="387"/><glyph d="M23 -49l-5 51q0 49 16.5 87t55.5 67.5t67.5 45t86.5 42.5q59 27 93 47t75 54t59 81t18 109q0 106 -36.5 153t-120.5 51q-182 0 -209 -164l-35 9q10 90 79 146t165 52q135 -6 217 -69.5t82 -159.5q0 -66 -29 -119t-87 -94t-107.5 -65.5t-122.5 -57.5q-16 -6 -25 -10 q-92 -43 -133 -72q20 4 35 4q49 0 149.5 -24.5t147.5 -24.5q35 0 57.5 3t58 17.5t59 50.5t36.5 93l30 -6v-2q0 -125 -76.5 -205t-172.5 -80q-74 0 -158 67.5t-131 67.5q-109 0 -109 -145h-30z" glyph-name="two.dnom" horiz-adv-x="722"/><glyph d="M29 160l37 14q51 -156 235 -156q209 0 209 205q0 190 -246 191v41q117 0 157 30.5t40 116.5q0 137 -146 137q-78 -4 -127 -46t-59 -115l-35 6q10 84 68.5 137t150.5 61q121 4 199 -46t78 -130q0 -127 -135 -170q190 -45 190 -217q0 -109 -96 -176.5t-248 -67.5 q-98 0 -171.5 50.5t-100.5 134.5z" glyph-name="three.dnom" horiz-adv-x="663"/><glyph d="M39 180l-12 33l452 578l21 -19v-549h86v-43h-86v-194h-127v194h-334zM373 594l-293 -371h293v371z" glyph-name="four.dnom" horiz-adv-x="626"/><glyph d="M20 178l35 10q14 -78 81 -124t163 -46t140 51.5t44 163.5q0 102 -48 172t-120 70q-133 0 -219 -115l-37 19l78 393q59 -2 138 -7t117 -6t84 1t74 13t52 32l35 -19q-53 -104 -165 -139t-327 -16l-39 -203q88 90 209 90q133 0 221.5 -76.5t88.5 -193.5q0 -121 -90.5 -197 t-235.5 -76q-109 0 -185 55.5t-94 147.5z" glyph-name="five.dnom" horiz-adv-x="673"/><glyph d="M23 342q0 180 104 310t266 130q94 0 151.5 -49t67.5 -129l-34 -6q-23 139 -185 141q-129 0 -186 -95t-57 -304q31 63 90 103t129 40q117 0 196.5 -69.5t79.5 -173.5q0 -119 -84 -192t-219 -73t-227 105.5t-92 261.5zM164 172q35 -154 178 -154q174 0 174 215 q0 209 -147 209q-94 0 -154.5 -75.5t-50.5 -194.5z" glyph-name="six.dnom" horiz-adv-x="663"/><glyph d="M68 637l-70 135h588l10 -35q-18 -25 -101 -124t-128 -164q-143 -205 -140 -463h-131q-14 145 240 487q55 74 131 164h-399z" glyph-name="seven.dnom" horiz-adv-x="598"/><glyph d="M20 199q0 57 63.5 114.5t164.5 92.5q-190 70 -191 188q0 76 86 132t197 56q133 0 212 -53t79 -143q0 -106 -189 -189q229 -59 230 -207q0 -90 -96.5 -152.5t-235.5 -62.5t-229.5 63t-90.5 161zM201 621q0 -78 31.5 -130.5t89.5 -64.5l49 -12q121 61 121 164 q0 90 -37 125.5t-129 35.5q-53 0 -89 -33.5t-36 -84.5zM168 209q0 -86 46 -138.5t126 -52.5q86 0 134 42t48 116q0 39 -3 62.5t-15 50t-39 45t-72 31.5l-69 18q-156 -57 -156 -174z" glyph-name="eight.dnom" horiz-adv-x="690"/><glyph d="M641 414q0 -180 -104.5 -310.5t-266.5 -130.5q-94 0 -151.5 49.5t-67.5 129.5l35 6q23 -139 184 -142q129 0 186.5 95.5t57.5 304.5q-31 -63 -90 -103.5t-129 -40.5q-117 0 -197 70t-80 174q0 119 84 191.5t219.5 72.5t227.5 -105t92 -261zM500 584q-35 154 -178 153 q-174 0 -175 -215q0 -209 148 -209q94 0 154.5 76t50.5 195z" glyph-name="nine.dnom" horiz-adv-x="663"/><glyph d="M387 670q-164 0 -265.5 111.5t-101.5 291.5t101.5 292t265.5 112q166 0 268.5 -112t102.5 -292t-102.5 -291.5t-268.5 -111.5zM152 1073q0 -174 60 -265t175 -91t177.5 93t62.5 263q0 168 -63.5 262.5t-176.5 94.5t-174 -93.5t-61 -263.5z" glyph-name="zero.numr" horiz-adv-x="778"/><glyph d="M16 1288l-16 39l229 148q29 20 29 -13v-596q0 -102 14.5 -124.5t75.5 -24.5v-41q-41 0 -72.5 2t-39.5 2h-80q-8 0 -40 -2t-73 -2v41q61 2 76.5 25.5t15.5 123.5v498z" glyph-name="one.numr" horiz-adv-x="387"/><glyph d="M23 645l-5 51q0 49 16.5 87t55.5 68t67.5 45t86.5 42q59 27 93 47.5t75 54t59 80.5t18 109q0 106 -36.5 153.5t-120.5 51.5q-182 0 -209 -164l-35 8q10 90 79 146.5t165 52.5q135 -6 217 -70t82 -160q0 -66 -29 -119t-87 -94t-107.5 -65.5t-122.5 -57.5q-16 -6 -25 -10 q-92 -43 -133 -72q20 4 35 5q49 0 149.5 -25t147.5 -25q35 0 57.5 3.5t58 17.5t59 50t36.5 93l30 -6v-2q0 -125 -76.5 -205t-172.5 -80q-74 0 -158 68t-131 68q-109 0 -109 -146h-30z" glyph-name="two.numr" horiz-adv-x="722"/><glyph d="M29 854l37 14q51 -156 235 -155q209 0 209 205q0 190 -246 190v41q117 0 157 30.5t40 116.5q0 137 -146 138q-78 -4 -127 -46t-59 -116l-35 6q10 84 68.5 137t150.5 62q121 4 199 -46.5t78 -130.5q0 -127 -135 -170q190 -45 190 -217q0 -109 -96 -176t-248 -67 q-98 0 -171.5 50t-100.5 134z" glyph-name="three.numr" horiz-adv-x="663"/><glyph d="M39 874l-12 33l452 578l21 -19v-548h86v-44h-86v-194h-127v194h-334zM373 1288l-293 -370h293v370z" glyph-name="four.numr" horiz-adv-x="626"/><glyph d="M20 872l35 11q14 -78 81 -124t163 -46t140 51t44 164q0 102 -48 171.5t-120 69.5q-133 0 -219 -114l-37 18l78 393q59 -2 138 -7t117 -6t84 1t74 13.5t52 31.5l35 -18q-53 -104 -165 -139t-327 -17l-39 -203q88 90 209 90q133 0 221.5 -76.5t88.5 -193.5 q0 -121 -90.5 -196.5t-235.5 -75.5q-109 0 -185 55t-94 147z" glyph-name="five.numr" horiz-adv-x="673"/><glyph d="M23 1036q0 180 104 310.5t266 130.5q94 0 151.5 -49.5t67.5 -129.5l-34 -6q-23 139 -185 142q-129 0 -186 -95.5t-57 -304.5q31 63 90 103.5t129 40.5q117 0 196.5 -70t79.5 -174q0 -119 -84 -191.5t-219 -72.5t-227 105t-92 261zM164 866q35 -154 178 -153 q174 0 174 215q0 209 -147 209q-94 0 -154.5 -76t-50.5 -195z" glyph-name="six.numr" horiz-adv-x="663"/><glyph d="M68 1331l-70 135h588l10 -34q-18 -25 -101 -124.5t-128 -164.5q-143 -205 -140 -463h-131q-14 145 240 487q55 74 131 164h-399z" glyph-name="seven.numr" horiz-adv-x="598"/><glyph d="M20 893q0 57 63.5 114.5t164.5 92.5q-190 70 -191 188q0 76 86 132.5t197 56.5q133 0 212 -53.5t79 -143.5q0 -106 -189 -188q229 -59 230 -207q0 -90 -96.5 -152.5t-235.5 -62.5t-229.5 62.5t-90.5 160.5zM201 1315q0 -78 31.5 -130t89.5 -65l49 -12q121 59 121 164 q0 90 -37 126t-129 36q-53 0 -89 -34t-36 -85zM168 903q0 -86 46 -138t126 -52q86 0 134 42t48 115q0 39 -3 62.5t-15 50.5t-39 45.5t-72 30.5l-69 18q-156 -57 -156 -174z" glyph-name="eight.numr" horiz-adv-x="690"/><glyph d="M641 1108q0 -180 -104.5 -310t-266.5 -130q-94 0 -151.5 49t-67.5 129l35 6q23 -139 184 -141q129 0 186.5 95t57.5 304q-31 -63 -90 -103t-129 -40q-117 0 -197 69.5t-80 173.5q0 119 84 192t219.5 73t227.5 -105.5t92 -261.5zM500 1278q-35 154 -178 154 q-174 0 -175 -215q0 -209 148 -209q94 0 154.5 75.5t50.5 194.5z" glyph-name="nine.numr" horiz-adv-x="663"/><glyph d="M279 1364q0 47 33.5 82t78.5 35q47 0 80 -34t33 -83q0 -47 -33 -81t-80 -34q-49 0 -80.5 33t-31.5 82zM260 258q0 137 55.5 422t55.5 481h43q0 -197 55 -481.5t55 -421.5q0 -127 -41 -197.5t-94 -68.5q-53 4 -91 73.5t-38 192.5z" glyph-name="exclamdown.aalt" horiz-adv-x="579"/><glyph d="M782 1360q0 -49 -31.5 -82t-80.5 -33q-47 0 -80 34t-33 81q0 49 33 83t80 34q45 0 78.5 -35t33.5 -82zM731 733q29 -139 -65 -139h-170q-119 0 -189.5 -48t-70.5 -126q0 -123 79.5 -221.5t183 -144.5t195.5 -46v-51q-70 0 -152.5 29.5t-162.5 85t-133 147.5t-53 201 q0 360 342 360h116v338l43 2q0 -197 37 -387z" glyph-name="questiondown.aalt" horiz-adv-x="964"/><glyph d="M80 707q0 150 31.5 289t96 262.5t174.5 217t255 134.5l12 -51q-182 -51 -304 -185.5t-172 -301.5t-50 -365q0 -197 51 -365t173 -302t304 -183l-14 -52q-190 53 -319.5 197.5t-183.5 323t-54 381.5z" glyph-name="parenleft.aalt" horiz-adv-x="808"/><glyph d="M729 707q0 -203 -54 -381.5t-183.5 -322.5t-319.5 -198l-14 52q182 49 304 183t173 302t51 365q0 199 -50 365.5t-172 300.5t-304 186l12 51q145 -41 255 -134.5t174.5 -217t96 -262.5t31.5 -289z" glyph-name="parenright.aalt" horiz-adv-x="808"/><glyph d="M31 682q-16 0 -23.5 13.5t-0.5 25.5t24 12q197 0 196 156q0 57 -35.5 186t-35.5 221q0 162 97 228.5t329 66.5h94v-51h-94q-72 0 -120 -3t-102.5 -17.5t-86 -39t-53 -68.5t-21.5 -107q0 -104 35.5 -223t35.5 -191q0 -135 -104 -182q104 -49 104 -185q0 -72 -35.5 -190.5 t-35.5 -222.5q0 -63 21.5 -107.5t53 -69t86 -39t102.5 -17.5t120 -3h94v-51h-94q-231 0 -328.5 66.5t-97.5 228.5q0 94 35.5 223t35.5 184q1 156 -196 156z" glyph-name="braceleft.aalt" horiz-adv-x="708"/><glyph d="M678 682q-197 0 -197 -156q0 -55 36 -184t36 -223q0 -162 -97.5 -228.5t-328.5 -66.5h-94v51h94q72 0 120 3t102 17.5t86 39t53.5 68.5t21.5 108q0 104 -36 223t-36 190q0 135 105 185q-104 47 -105 182q0 72 36 190.5t36 223.5q0 63 -21.5 107t-53.5 68.5t-86 39 t-102 17.5t-120 3h-94v51h94q231 0 328.5 -66.5t97.5 -228.5q0 -92 -36 -221t-36 -186q0 -156 197 -156q16 0 23.5 -12t0 -25.5t-23.5 -13.5z" glyph-name="braceright.aalt" horiz-adv-x="708"/><glyph d="M555 -193h-403v1778h403v-51h-360v-1675h360v-52z" glyph-name="bracketleft.aalt" horiz-adv-x="606"/><glyph d="M455 1585v-1778h-404v52h361v1675h-361v51h404z" glyph-name="bracketright.aalt" horiz-adv-x="606"/><glyph d="M797 723h-750v51h750v-51z" glyph-name="hyphen.aalt" horiz-adv-x="843"/><glyph d="M797 723h-750v51h750v-51z" glyph-name="uni00AD.aalt" horiz-adv-x="843"/><glyph d="M1098 725h-1051v51h1051v-51z" glyph-name="endash.aalt" horiz-adv-x="1144"/><glyph d="M1546 725h-1499v51h1499v-51z" glyph-name="emdash.aalt" horiz-adv-x="1593"/><glyph d="M106 717h-2q-14 4 -13 22.5t13 22.5h2v4l5 -2q332 125 424 403q10 23 28.5 15t11.5 -31q-94 -285 -397 -414q307 -131 397 -409q6 -23 -12 -32t-28 13q-88 276 -420 404l-9 -2v6zM510 717h-2q-14 4 -13 22.5t13 22.5h2v4l4 -2q332 125 424 403q10 23 28.5 15t12.5 -31 q-94 -285 -397 -414q307 -131 397 -409q6 -23 -12.5 -32t-28.5 13q-88 276 -420 404l-8 -2v6z" glyph-name="guillemotleft.aalt" horiz-adv-x="1116"/><glyph d="M608 717h-2v-6l-8 2q-332 -127 -420 -404q-10 -23 -28.5 -13.5t-12.5 32.5q90 279 398 409q-303 129 -398 414q-6 23 12.5 31t28.5 -15q92 -279 424 -403l4 2v-4h2q12 -4 13 -22.5t-13 -22.5zM1012 717h-2v-6l-9 2q-332 -127 -419 -404q-10 -23 -28.5 -13.5t-12.5 32.5 q90 279 397 409q-303 129 -397 414q-6 23 12 31t29 -15q92 -279 424 -403l4 2v-4h2q12 -4 13 -22.5t-13 -22.5z" glyph-name="guillemotright.aalt" horiz-adv-x="1116"/><glyph d="M106 717h-2q-14 4 -13 22.5t13 22.5h2v4l5 -2q332 125 424 403q10 23 28.5 15t11.5 -31q-94 -285 -397 -414q307 -131 397 -409q6 -23 -12 -32t-28 13q-88 276 -420 404l-9 -2v6z" glyph-name="guilsinglleft.aalt" horiz-adv-x="712"/><glyph d="M608 717h-2v-6l-8 2q-332 -127 -420 -404q-10 -23 -28.5 -13.5t-12.5 32.5q90 279 398 409q-303 129 -398 414q-6 23 12.5 31t28.5 -15q92 -279 424 -403l4 2v-4h2q12 -4 13 -22.5t-13 -22.5z" glyph-name="guilsinglright.aalt" horiz-adv-x="712"/><glyph glyph-name="glyph490" horiz-adv-x="542"/><glyph d="M80 692q0 326 225 549t555 227h19q209 -6 349 -137t148 -325q4 -109 -33 -195h17q575 0 575 377q0 68 -41 111.5t-102 43.5q-94 0 -153.5 -54t-59.5 -142h-43q0 106 72.5 177t183.5 71q106 0 179 -67.5t73 -166.5q0 -145 -120 -245.5t-331 -137.5q-4 -147 -52 -289.5 t-139 -263.5t-243.5 -193.5t-341.5 -66.5q-326 10 -531.5 212t-205.5 515zM264 758q0 -319 164 -513t436 -198q168 -2 301 58.5t214 165t124 231.5t47 270q-88 -12 -190 -12h-39q-98 -199 -320 -262q4 -88 46.5 -136.5t113.5 -48.5q68 0 126.5 47.5t80.5 118.5l41 -16 q-27 -84 -98.5 -142.5t-149.5 -58.5q-109 0 -186.5 60.5t-85.5 154.5h-62q-129 10 -210.5 90t-81.5 199q0 127 91 217t218 90q96 0 164.5 -60.5t68.5 -142.5q0 -47 -8 -59h-432q0 -119 70.5 -192.5t185.5 -69.5q18 119 121.5 184.5t281.5 75.5q37 90 37 178q0 186 -137 309 t-342 121q-252 -4 -421 -177t-169 -482zM641 862h295q33 0 33 31q0 131 -131 131q-61 0 -121 -42t-76 -120zM1006 563q174 49 262 193q-235 -25 -262 -193z" glyph-name="ampersand.aalt" horiz-adv-x="2052"/><glyph d="M-219 1452q0 35 16.5 57.5t43 22.5t45 -22.5t18.5 -57.5q0 -33 -20.5 -126t-24.5 -152q4 -35 -19 -37q-14 -2 -18 20v4q-2 66 -21.5 163t-19.5 128z" glyph-name="glyph492"/><glyph d="M-494 1333q0 45 29 76t72 31t72.5 -31t29.5 -76t-28.5 -74.5t-73.5 -29.5q-41 0 -71 30.5t-30 73.5z" glyph-name="uni0307_i.ccmp"/><glyph d="M322 -16h-144v1130l148 -16v-422l-21 -393q66 393 208 585.5t304 192.5q145 0 230.5 -110.5t128.5 -354.5l110 -612h-151l-115 639q-66 362 -254 362q-141 0 -267 -223t-169 -623z" glyph-name="glyph494" horiz-adv-x="1339"/></font>
</defs>
</svg>
